<svg width="24" height="24" viewBox="0 0 24 24" fill="none" xmlns="http://www.w3.org/2000/svg">
<g clip-path="url(#clip0_10_896)">
<path d="M16.1037 15.6409C18.2843 17.0932 16.8118 19.8943 14.192 19.8943H4.35356C1.73369 19.8943 0.26129 17.0932 2.44181 15.6409C4.39767 14.3383 6.74655 13.5791 9.27276 13.5791C11.799 13.5791 14.1479 14.3383 16.1037 15.6409Z" fill="#9092AF"/>
<path d="M8.19802 13.6254C6.08125 13.808 4.11732 14.5251 2.44181 15.6411C0.26129 17.0933 1.73369 19.8943 4.35356 19.8943H8.19802" stroke="currentColor" stroke-width="1.71429" stroke-linecap="round"/>
<path d="M12.4285 17.4235C12.4285 14.3588 13.2856 13.0454 13.7142 12.6075H21.4285C21.857 13.0454 22.7142 14.3588 22.7142 17.4235C22.7142 20.926 19.3374 22.2179 17.6231 22.6557C15.9088 22.2179 12.4285 20.926 12.4285 17.4235Z" fill="#9092AF" stroke="currentColor" stroke-width="1.71429" stroke-linecap="round" stroke-linejoin="round"/>
<path d="M9.27563 10.2356C11.7376 10.2356 13.7334 8.23977 13.7334 5.77783C13.7334 3.31587 11.7376 1.32007 9.27563 1.32007C6.81368 1.32007 4.81787 3.31587 4.81787 5.77783C4.81787 8.23977 6.81368 10.2356 9.27563 10.2356Z" fill="#9092AF" stroke="currentColor" stroke-width="1.71429" stroke-linecap="round" stroke-linejoin="round"/>
</g>
<defs>
<clipPath id="clip0_10_896">
<rect width="24" height="24" fill="white"/>
</clipPath>
</defs>
</svg>
