<svg viewBox="0 0 43 40" fill="none" xmlns="http://www.w3.org/2000/svg">
<mask id="path-1-inside-1_682_7932" fill="white">
<path fill-rule="evenodd" clip-rule="evenodd" d="M13.9726 0.995111C12.0524 1.63405 9.09884 3.24077 8.00663 4.24052C7.19693 4.98169 7.02341 5.95464 7.47478 7.22295C7.81921 8.19066 7.84729 9.56704 7.54126 10.4785C6.88301 12.4391 5.13191 13.8366 2.94065 14.15C1.78967 14.3146 1.0574 14.7641 0.618143 15.5756C0.215402 16.3197 -0.0724106 18.7939 0.0160506 20.7525C0.125147 23.1706 0.366755 24.015 1.13043 24.6487C1.58709 25.0276 1.97485 25.1689 3.07523 25.3579C4.30346 25.5688 5.06264 25.9534 5.99104 26.8353C7.17898 27.9636 7.64372 29.0281 7.63645 30.6038C7.63295 31.363 7.59716 31.5444 7.28628 32.3795C6.51866 34.4415 6.92365 35.193 9.75916 36.969C10.7231 37.5728 12.621 38.5 13.6876 38.8882C14.7865 39.2882 15.4165 39.2975 16.2069 38.9252C16.562 38.758 16.8822 38.5238 17.096 38.2752C18.1381 37.0631 18.8503 36.5569 20.0517 36.1743C22.2639 35.47 24.6615 36.1446 26.1966 37.9032C27.0546 38.8862 28.1278 39.2353 29.2454 38.8951C30.1278 38.6265 32.0697 37.6711 33.279 36.9107C34.814 35.9454 35.5984 35.2743 35.8592 34.7031C36.1903 33.9776 36.192 33.5881 35.8678 32.6755C35.5059 31.6566 35.4124 30.4085 35.632 29.527C36.1184 27.5749 37.7006 26.0756 39.771 25.6049C41.2532 25.2679 41.3132 25.2445 41.8219 24.8064C42.1781 24.4995 42.3676 24.2526 42.497 23.9267C43.1813 22.2027 43.1634 17.241 42.4676 15.7985C42.2396 15.3258 41.7583 14.826 41.33 14.6173C41.1783 14.5433 40.7754 14.4281 40.4346 14.3611C38.0541 13.8932 36.3906 12.4483 35.8186 10.3517C35.6088 9.58226 35.6773 8.13975 35.9574 7.43435C36.2392 6.72456 36.2451 5.88378 35.9723 5.32035C35.7164 4.79202 35.4859 4.56033 34.4898 3.83032C32.5194 2.38638 29.4461 0.917908 28.1859 0.81838C27.2485 0.74439 26.8609 0.923658 25.6864 1.97448C24.9185 2.66153 24.5121 2.95546 24.0013 3.19342C22.403 3.93771 20.6542 3.93712 19.0296 3.19164C18.4757 2.93745 18.1168 2.67955 17.3324 1.97229C16.5715 1.28617 16.2355 1.04255 15.9034 0.935834C15.3067 0.744221 14.6675 0.763839 13.9726 0.995111ZM21.4802 26.58C20.9279 26.58 20.4802 26.1323 20.4802 25.58V21.2159H15.9803C15.428 21.2159 14.9803 20.7682 14.9803 20.2159C14.9803 19.6637 15.428 19.2159 15.9803 19.2159H20.4802V14.8521C20.4802 14.2998 20.9279 13.8521 21.4802 13.8521C22.0325 13.8521 22.4802 14.2998 22.4802 14.8521V19.2159H26.7082C27.2605 19.2159 27.7082 19.6637 27.7082 20.2159C27.7082 20.7682 27.2605 21.2159 26.7082 21.2159H22.4802V25.58C22.4802 26.1323 22.0325 26.58 21.4802 26.58Z"/>
</mask>
<path fill-rule="evenodd" clip-rule="evenodd" d="M13.9726 0.995111C12.0524 1.63405 9.09884 3.24077 8.00663 4.24052C7.19693 4.98169 7.02341 5.95464 7.47478 7.22295C7.81921 8.19066 7.84729 9.56704 7.54126 10.4785C6.88301 12.4391 5.13191 13.8366 2.94065 14.15C1.78967 14.3146 1.0574 14.7641 0.618143 15.5756C0.215402 16.3197 -0.0724106 18.7939 0.0160506 20.7525C0.125147 23.1706 0.366755 24.015 1.13043 24.6487C1.58709 25.0276 1.97485 25.1689 3.07523 25.3579C4.30346 25.5688 5.06264 25.9534 5.99104 26.8353C7.17898 27.9636 7.64372 29.0281 7.63645 30.6038C7.63295 31.363 7.59716 31.5444 7.28628 32.3795C6.51866 34.4415 6.92365 35.193 9.75916 36.969C10.7231 37.5728 12.621 38.5 13.6876 38.8882C14.7865 39.2882 15.4165 39.2975 16.2069 38.9252C16.562 38.758 16.8822 38.5238 17.096 38.2752C18.1381 37.0631 18.8503 36.5569 20.0517 36.1743C22.2639 35.47 24.6615 36.1446 26.1966 37.9032C27.0546 38.8862 28.1278 39.2353 29.2454 38.8951C30.1278 38.6265 32.0697 37.6711 33.279 36.9107C34.814 35.9454 35.5984 35.2743 35.8592 34.7031C36.1903 33.9776 36.192 33.5881 35.8678 32.6755C35.5059 31.6566 35.4124 30.4085 35.632 29.527C36.1184 27.5749 37.7006 26.0756 39.771 25.6049C41.2532 25.2679 41.3132 25.2445 41.8219 24.8064C42.1781 24.4995 42.3676 24.2526 42.497 23.9267C43.1813 22.2027 43.1634 17.241 42.4676 15.7985C42.2396 15.3258 41.7583 14.826 41.33 14.6173C41.1783 14.5433 40.7754 14.4281 40.4346 14.3611C38.0541 13.8932 36.3906 12.4483 35.8186 10.3517C35.6088 9.58226 35.6773 8.13975 35.9574 7.43435C36.2392 6.72456 36.2451 5.88378 35.9723 5.32035C35.7164 4.79202 35.4859 4.56033 34.4898 3.83032C32.5194 2.38638 29.4461 0.917908 28.1859 0.81838C27.2485 0.74439 26.8609 0.923658 25.6864 1.97448C24.9185 2.66153 24.5121 2.95546 24.0013 3.19342C22.403 3.93771 20.6542 3.93712 19.0296 3.19164C18.4757 2.93745 18.1168 2.67955 17.3324 1.97229C16.5715 1.28617 16.2355 1.04255 15.9034 0.935834C15.3067 0.744221 14.6675 0.763839 13.9726 0.995111ZM21.4802 26.58C20.9279 26.58 20.4802 26.1323 20.4802 25.58V21.2159H15.9803C15.428 21.2159 14.9803 20.7682 14.9803 20.2159C14.9803 19.6637 15.428 19.2159 15.9803 19.2159H20.4802V14.8521C20.4802 14.2998 20.9279 13.8521 21.4802 13.8521C22.0325 13.8521 22.4802 14.2998 22.4802 14.8521V19.2159H26.7082C27.2605 19.2159 27.7082 19.6637 27.7082 20.2159C27.7082 20.7682 27.2605 21.2159 26.7082 21.2159H22.4802V25.58C22.4802 26.1323 22.0325 26.58 21.4802 26.58Z" fill="url(#paint0_linear_682_7932)"/>
<path d="M8.00663 4.24052L7.33143 3.50288L7.33142 3.50289L8.00663 4.24052ZM13.9726 0.995111L14.2883 1.94396L14.2883 1.94395L13.9726 0.995111ZM7.47478 7.22295L6.53266 7.55823L6.53267 7.55827L7.47478 7.22295ZM7.54126 10.4785L6.59327 10.1602L6.59327 10.1602L7.54126 10.4785ZM2.94065 14.15L3.08218 15.14L3.08223 15.1399L2.94065 14.15ZM0.618143 15.5756L-0.261294 15.0996L-0.261312 15.0996L0.618143 15.5756ZM0.0160506 20.7525L1.01503 20.7075L1.01503 20.7074L0.0160506 20.7525ZM1.13043 24.6487L0.491851 25.4183L0.491959 25.4184L1.13043 24.6487ZM3.07523 25.3579L2.90596 26.3435L2.906 26.3435L3.07523 25.3579ZM5.99104 26.8353L5.30233 27.5603L5.30235 27.5603L5.99104 26.8353ZM7.63645 30.6038L6.63646 30.5992V30.5992L7.63645 30.6038ZM7.28628 32.3795L8.22345 32.7284L8.22346 32.7284L7.28628 32.3795ZM9.75916 36.969L10.29 36.1216L10.29 36.1216L9.75916 36.969ZM13.6876 38.8882L13.3456 39.8279L13.3456 39.8279L13.6876 38.8882ZM16.2069 38.9252L16.6329 39.8299L16.633 39.8299L16.2069 38.9252ZM17.096 38.2752L17.8542 38.9273L17.8542 38.9272L17.096 38.2752ZM20.0517 36.1743L19.7483 35.2215L19.7483 35.2215L20.0517 36.1743ZM26.1966 37.9032L26.95 37.2456L26.95 37.2456L26.1966 37.9032ZM29.2454 38.8951L28.9542 37.9384L28.9541 37.9384L29.2454 38.8951ZM33.279 36.9107L32.7467 36.0641L32.7466 36.0642L33.279 36.9107ZM35.8592 34.7031L36.7689 35.1183L36.7689 35.1183L35.8592 34.7031ZM35.8678 32.6755L34.9255 33.0102L34.9255 33.0103L35.8678 32.6755ZM35.632 29.527L34.6617 29.2852L34.6617 29.2852L35.632 29.527ZM39.771 25.6049L39.5493 24.6297L39.5493 24.6297L39.771 25.6049ZM41.8219 24.8064L42.4744 25.5642L42.4746 25.564L41.8219 24.8064ZM42.497 23.9267L43.4264 24.2956L43.4264 24.2956L42.497 23.9267ZM42.4676 15.7985L43.3683 15.3641L43.3683 15.364L42.4676 15.7985ZM41.33 14.6173L40.8917 15.5161L40.892 15.5163L41.33 14.6173ZM40.4346 14.3611L40.6275 13.3799L40.6275 13.3799L40.4346 14.3611ZM35.8186 10.3517L34.8538 10.6148L34.8539 10.6149L35.8186 10.3517ZM35.9574 7.43435L36.8868 7.8034L36.8868 7.80335L35.9574 7.43435ZM35.9723 5.32035L36.8723 4.88452L36.8723 4.88447L35.9723 5.32035ZM34.4898 3.83032L35.0809 3.02373L35.0809 3.02372L34.4898 3.83032ZM28.1859 0.81838L28.2646 -0.178515L28.2646 -0.178519L28.1859 0.81838ZM25.6864 1.97448L25.0196 1.22923L25.0196 1.22924L25.6864 1.97448ZM24.0013 3.19342L24.4235 4.09994L24.4236 4.09987L24.0013 3.19342ZM19.0296 3.19164L18.6126 4.10051L18.6126 4.10052L19.0296 3.19164ZM17.3324 1.97229L16.6627 2.71494L16.6627 2.71497L17.3324 1.97229ZM15.9034 0.935834L16.2093 -0.0162297L16.2091 -0.0162676L15.9034 0.935834ZM20.4802 21.2159H21.4802V20.2159H20.4802V21.2159ZM20.4802 19.2159V20.2159H21.4802V19.2159H20.4802ZM22.4802 19.2159H21.4802V20.2159H22.4802V19.2159ZM26.7082 19.2159V20.2159H26.7082L26.7082 19.2159ZM22.4802 21.2159V20.2159H21.4802V21.2159H22.4802ZM8.68182 4.97816C9.13465 4.56366 10.0576 3.95899 11.157 3.36095C12.2413 2.77108 13.4033 2.23845 14.2883 1.94396L13.6568 0.0462634C12.6217 0.390705 11.3468 0.980905 10.2013 1.60407C9.07074 2.21907 7.97081 2.91763 7.33143 3.50288L8.68182 4.97816ZM8.4169 6.88767C8.22981 6.36196 8.20348 5.98325 8.25227 5.70962C8.29793 5.45359 8.42157 5.21638 8.68183 4.97816L7.33142 3.50289C6.78198 4.00583 6.41402 4.62568 6.28333 5.3585C6.15579 6.07371 6.26838 6.81563 6.53266 7.55823L8.4169 6.88767ZM8.48926 10.7968C8.87162 9.65795 8.83095 8.05099 8.41689 6.88764L6.53267 7.55827C6.80746 8.33032 6.82295 9.47613 6.59327 10.1602L8.48926 10.7968ZM3.08223 15.1399C5.61464 14.7778 7.70047 13.1462 8.48926 10.7968L6.59327 10.1602C6.06555 11.732 4.64917 12.8955 2.79908 13.1601L3.08223 15.1399ZM1.49758 16.0516C1.74741 15.5901 2.15437 15.2726 3.08218 15.14L2.79912 13.1601C1.42497 13.3565 0.367392 13.9381 -0.261294 15.0996L1.49758 16.0516ZM1.01503 20.7074C0.973504 19.7879 1.0204 18.7338 1.1262 17.8242C1.179 17.3702 1.24492 16.9658 1.31755 16.6415C1.39497 16.2958 1.46481 16.1122 1.4976 16.0516L-0.261312 15.0996C-0.42989 15.4111 -0.547062 15.8158 -0.634108 16.2045C-0.72595 16.6146 -0.801973 17.0907 -0.860408 17.5931C-0.977084 18.5962 -1.02986 19.7585 -0.982931 20.7977L1.01503 20.7074ZM1.76901 23.8792C1.38402 23.5597 1.12587 23.1641 1.01503 20.7075L-0.982933 20.7976C-0.875578 23.1771 -0.650512 24.4704 0.491851 25.4183L1.76901 23.8792ZM3.2445 24.3724C2.18888 24.1911 2.01739 24.0852 1.7689 23.8791L0.491959 25.4184C1.15679 25.9699 1.76081 26.1468 2.90596 26.3435L3.2445 24.3724ZM6.67975 26.1102C6.16871 25.6248 5.66836 25.2422 5.09752 24.9529C4.52554 24.6632 3.92701 24.4896 3.24446 24.3724L2.906 26.3435C3.45168 26.4372 3.84685 26.5613 4.19362 26.737C4.54153 26.9133 4.88497 27.1639 5.30233 27.5603L6.67975 26.1102ZM8.63644 30.6084C8.64055 29.7176 8.51081 28.913 8.1784 28.1516C7.84699 27.3926 7.34102 26.7384 6.67973 26.1102L5.30235 27.5603C5.829 28.0606 6.14937 28.5027 6.3455 28.9519C6.54063 29.3988 6.63962 29.9142 6.63646 30.5992L8.63644 30.6084ZM8.22346 32.7284C8.37712 32.3156 8.49181 31.991 8.55774 31.6567C8.62584 31.3113 8.63466 30.9939 8.63644 30.6084L6.63646 30.5992C6.63474 30.9729 6.62392 31.1257 6.59553 31.2697C6.56497 31.4247 6.50632 31.6084 6.34911 32.0307L8.22346 32.7284ZM10.29 36.1216C8.83816 35.2122 8.26701 34.7064 8.05189 34.3072C7.9082 34.0405 7.86111 33.7017 8.22345 32.7284L6.34912 32.0306C5.94384 33.1193 5.71544 34.1873 6.29121 35.2558C6.79555 36.1919 7.84465 36.9499 9.22834 37.8165L10.29 36.1216ZM14.0296 37.9485C13.0292 37.5844 11.1945 36.6881 10.29 36.1216L9.22834 37.8165C10.2517 38.4575 12.2129 39.4156 13.3456 39.8279L14.0296 37.9485ZM15.7808 38.0205C15.492 38.1566 15.2878 38.1995 15.0776 38.1964C14.8447 38.193 14.5331 38.1318 14.0296 37.9485L13.3456 39.8279C13.941 40.0446 14.4938 40.188 15.0482 40.1962C15.6254 40.2047 16.1314 40.0661 16.6329 39.8299L15.7808 38.0205ZM16.3378 37.6232C16.2318 37.7464 16.0332 37.9017 15.7808 38.0206L16.633 39.8299C17.0908 39.6143 17.5325 39.3013 17.8542 38.9273L16.3378 37.6232ZM19.7483 35.2215C19.0736 35.4363 18.4963 35.6995 17.9348 36.0986C17.383 36.4908 16.8841 36.9877 16.3377 37.6233L17.8542 38.9272C18.35 38.3506 18.7282 37.9883 19.0935 37.7288C19.4489 37.4761 19.8284 37.2949 20.3551 37.1272L19.7483 35.2215ZM26.95 37.2456C25.1548 35.189 22.3429 34.3955 19.7483 35.2215L20.3551 37.1272C22.185 36.5446 24.1683 37.1002 25.4432 38.5608L26.95 37.2456ZM28.9541 37.9384C28.266 38.1479 27.5873 37.9758 26.95 37.2456L25.4432 38.5607C26.5218 39.7965 27.9896 40.3227 29.5366 39.8517L28.9541 37.9384ZM32.7466 36.0642C31.5762 36.8002 29.7187 37.7057 28.9542 37.9384L29.5365 39.8517C30.537 39.5473 32.5632 38.5421 33.8113 37.7572L32.7466 36.0642ZM34.9494 34.2878C34.9078 34.379 34.7741 34.5765 34.3968 34.8993C34.0301 35.2131 33.497 35.5923 32.7467 36.0641L33.8113 37.7572C34.596 37.2638 35.2227 36.8249 35.6971 36.4189C36.1609 36.0221 36.5498 35.5983 36.7689 35.1183L34.9494 34.2878ZM34.9255 33.0103C35.0784 33.4408 35.1098 33.6322 35.1092 33.7552C35.1088 33.8553 35.0877 33.985 34.9494 34.2879L36.7689 35.1183C36.9618 34.6957 37.1071 34.2679 37.1092 33.7637C37.1113 33.2824 36.9814 32.8228 36.8101 32.3407L34.9255 33.0103ZM34.6617 29.2852C34.3861 30.3914 34.5105 31.842 34.9255 33.0102L36.8101 32.3408C36.5012 31.4713 36.4387 30.4257 36.6023 29.7687L34.6617 29.2852ZM39.5493 24.6297C37.1366 25.1783 35.2455 26.9422 34.6617 29.2852L36.6023 29.7688C36.9914 28.2076 38.2646 26.9729 39.9927 26.58L39.5493 24.6297ZM41.1693 24.0487C40.9263 24.258 40.893 24.275 40.7987 24.3117C40.6214 24.3807 40.3264 24.4531 39.5493 24.6297L39.9927 26.58C40.6979 26.4196 41.174 26.3118 41.5243 26.1754C41.9578 26.0066 42.2088 25.7929 42.4744 25.5642L41.1693 24.0487ZM41.5675 23.5577C41.5145 23.6913 41.4431 23.8128 41.1691 24.0488L42.4746 25.564C42.9132 25.1862 43.2207 24.8138 43.4264 24.2956L41.5675 23.5577ZM41.5669 16.2329C41.6672 16.4408 41.7838 16.8866 41.8701 17.5615C41.9526 18.2071 41.997 18.9743 41.9999 19.7606C42.0027 20.5464 41.9639 21.3335 41.8855 22.0183C41.8049 22.7212 41.6895 23.2504 41.5675 23.5577L43.4264 24.2956C43.6466 23.741 43.7856 23.0034 43.8724 22.2461C43.9613 21.4706 44.0029 20.6038 43.9998 19.7534C43.9968 18.9036 43.949 18.0521 43.8539 17.3079C43.7625 16.5928 43.616 15.8775 43.3683 15.3641L41.5669 16.2329ZM40.892 15.5163C41.0974 15.6163 41.4259 15.9407 41.567 16.2331L43.3683 15.364C43.0532 14.7109 42.4193 14.0357 41.768 13.7183L40.892 15.5163ZM40.2418 15.3423C40.3822 15.3699 40.5406 15.4086 40.6781 15.448C40.7465 15.4675 40.804 15.4856 40.8475 15.5007C40.8975 15.5179 40.9072 15.5237 40.8917 15.5161L41.7684 13.7185C41.4936 13.5845 40.9833 13.4498 40.6275 13.3799L40.2418 15.3423ZM34.8539 10.6149C35.5395 13.1282 37.5423 14.8118 40.2418 15.3423L40.6275 13.3799C38.5658 12.9747 37.2416 11.7684 36.7833 10.0885L34.8539 10.6149ZM35.028 7.0653C34.8289 7.56658 34.7335 8.22982 34.7054 8.8215C34.6771 9.41715 34.71 10.0875 34.8538 10.6148L36.7834 10.0885C36.7173 9.84648 36.6796 9.41082 36.7031 8.91651C36.7268 8.41824 36.8058 8.00753 36.8868 7.8034L35.028 7.0653ZM35.0723 5.75618C35.1966 6.01304 35.2309 6.55422 35.028 7.06535L36.8868 7.80335C37.2475 6.89489 37.2936 5.75451 36.8723 4.88452L35.0723 5.75618ZM33.8987 4.63692C34.4014 5.00529 34.6479 5.20361 34.7997 5.35627C34.9185 5.47565 34.9808 5.56731 35.0723 5.75623L36.8723 4.88447C36.7079 4.54507 36.527 4.25672 36.2176 3.94566C35.9412 3.66789 35.5744 3.38535 35.0809 3.02373L33.8987 4.63692ZM28.1072 1.81528C28.5338 1.84897 29.4679 2.16228 30.6404 2.72249C31.7686 3.26153 32.9736 3.95898 33.8987 4.63692L35.0809 3.02372C34.0356 2.25772 32.7188 1.49896 31.5026 0.917896C30.3308 0.358002 29.0982 -0.112684 28.2646 -0.178515L28.1072 1.81528ZM26.3532 2.71974C26.9472 2.18822 27.2366 1.97855 27.4448 1.88224C27.588 1.81604 27.7253 1.78514 28.1072 1.81528L28.2646 -0.178519C27.7091 -0.222365 27.1839 -0.200634 26.6052 0.0670098C26.0917 0.304544 25.6 0.709919 25.0196 1.22923L26.3532 2.71974ZM24.4236 4.09987C25.0685 3.79945 25.562 3.42765 26.3532 2.71973L25.0196 1.22924C24.275 1.89542 23.9557 2.11148 23.579 2.28696L24.4236 4.09987ZM18.6126 4.10052C20.4995 4.96637 22.5551 4.96999 24.4235 4.09994L23.5792 2.28689C22.2509 2.90543 20.809 2.90787 19.4467 2.28276L18.6126 4.10052ZM16.6627 2.71497C17.4758 3.4481 17.923 3.78408 18.6126 4.10051L19.4467 2.28277C19.0285 2.09083 18.7577 1.91099 18.002 1.2296L16.6627 2.71497ZM15.5975 1.8879C15.692 1.91828 15.8745 2.00423 16.6627 2.71494L18.002 1.22963C17.2684 0.568099 16.779 0.166815 16.2093 -0.0162297L15.5975 1.8879ZM14.2883 1.94395C14.8169 1.76805 15.2359 1.77177 15.5976 1.88794L16.2091 -0.0162676C15.3776 -0.283327 14.5181 -0.240376 13.6568 0.0462727L14.2883 1.94395ZM19.4802 25.58C19.4802 26.6846 20.3756 27.58 21.4802 27.58V25.58H19.4802ZM19.4802 21.2159V25.58H21.4802V21.2159H19.4802ZM20.4802 20.2159H15.9803V22.2159H20.4802V20.2159ZM15.9803 20.2159H13.9803C13.9803 21.3205 14.8757 22.2159 15.9803 22.2159V20.2159ZM15.9803 20.2159V18.2159C14.8757 18.2159 13.9803 19.1114 13.9803 20.2159H15.9803ZM15.9803 20.2159H20.4802V18.2159H15.9803V20.2159ZM19.4802 14.8521V19.2159H21.4802V14.8521H19.4802ZM21.4802 12.8521C20.3756 12.8521 19.4802 13.7475 19.4802 14.8521H21.4802V12.8521ZM23.4802 14.8521C23.4802 13.7475 22.5847 12.8521 21.4802 12.8521V14.8521H23.4802ZM23.4802 19.2159V14.8521H21.4802V19.2159H23.4802ZM22.4802 20.2159H26.7082V18.2159H22.4802V20.2159ZM26.7082 20.2159L26.7082 20.2159H28.7082C28.7082 19.1114 27.8128 18.2159 26.7082 18.2159L26.7082 20.2159ZM26.7082 20.2159V22.2159C27.8128 22.2159 28.7082 21.3205 28.7082 20.2159H26.7082ZM26.7082 20.2159H22.4802V22.2159H26.7082V20.2159ZM23.4802 25.58V21.2159H21.4802V25.58H23.4802ZM21.4802 27.58C22.5847 27.58 23.4802 26.6846 23.4802 25.58H21.4802V27.58Z" fill="#565879" mask="url(#path-1-inside-1_682_7932)"/>
<defs>
<linearGradient id="paint0_linear_682_7932" x1="2.52941" y1="2.493" x2="31.4784" y2="36.5506" gradientUnits="userSpaceOnUse">
<stop offset="0.28125" stop-color="#484963"/>
<stop offset="0.515625" stop-color="#525372"/>
<stop offset="0.765625" stop-color="#484963"/>
</linearGradient>
</defs>
</svg>
