<svg xmlns="http://www.w3.org/2000/svg" fill="none" viewBox="-1 -1 58 52">
<mask id="path-1-inside-1_118_1883" fill="white">
<path fill-rule="evenodd" clip-rule="evenodd" d="M10.4272 4.47585C11.8497 3.17384 15.6962 1.08137 18.1968 0.249265C19.1019 -0.0519259 19.9344 -0.0774748 20.7113 0.172068C21.1439 0.311045 21.5815 0.628314 22.5724 1.52186C23.5939 2.44295 24.0614 2.77883 24.7828 3.10986C26.8985 4.08072 29.176 4.08149 31.2575 3.11217C31.9227 2.80228 32.452 2.41949 33.452 1.52473C34.9816 0.15621 35.4864 -0.0772545 36.7072 0.0191045C38.3484 0.148721 42.3509 2.06114 44.917 3.94163C46.2142 4.89234 46.5144 5.19408 46.8476 5.88214C47.2029 6.6159 47.1952 7.71087 46.8282 8.63525C46.4635 9.55391 46.3742 11.4325 46.6475 12.4346C47.3923 15.165 49.5588 17.0468 52.6591 17.6561C53.1028 17.7433 53.6276 17.8934 53.8251 17.9898C54.3829 18.2616 55.0097 18.9125 55.3067 19.5281C56.2128 21.4067 56.2362 27.8684 55.3449 30.1136C55.1764 30.538 54.9296 30.8596 54.4657 31.2594C53.8033 31.8298 53.7251 31.8603 51.7948 32.2992C49.0985 32.9122 47.038 34.8648 46.4045 37.4071C46.1184 38.5551 46.2402 40.1806 46.7115 41.5075C47.1338 42.6959 47.1316 43.2032 46.7003 44.148C46.3608 44.8919 45.3392 45.766 43.3401 47.023C41.7652 48.0134 39.2363 49.2576 38.087 49.6073C36.6315 50.0505 35.2339 49.5958 34.1165 48.3156C32.1174 46.0253 28.9949 45.1469 26.1138 46.0641C24.5492 46.5623 23.6217 47.2215 22.2645 48.8001C21.9861 49.1239 21.5691 49.4288 21.1066 49.6467C20.0772 50.1314 19.2568 50.1193 17.8257 49.5984C16.4367 49.0928 13.9649 47.8853 12.7096 47.099C9.01684 44.7861 8.48942 43.8073 9.48912 41.122C9.89397 40.0344 9.94059 39.7981 9.94515 38.8094C9.95461 36.7573 9.34937 35.3711 7.80228 33.9016C6.59321 32.7531 5.6045 32.2523 4.00495 31.9776C2.57189 31.7315 2.06691 31.5473 1.47219 31.054C0.477635 30.2287 0.162982 29.129 0.0209031 25.9799C-0.0943021 23.4291 0.280524 20.2069 0.805023 19.2378C1.37708 18.181 2.33073 17.5955 3.82969 17.3812C6.68341 16.9731 8.96392 15.1531 9.82118 12.5997C10.2197 11.4127 10.1832 9.62021 9.7346 8.35994C9.14677 6.70818 9.37274 5.44109 10.4272 4.47585ZM31.1093 23.2449C35.8122 18.168 35.8236 18.1563 36.194 18.0293C36.3835 17.9644 36.7556 17.9648 36.9548 18.0301C37.6622 18.2621 38.0999 18.9963 37.9804 19.7502C37.9704 19.8133 37.9659 19.864 37.957 19.9139C37.8887 20.2951 37.5608 20.6298 32.5368 26.0615C27.5204 31.4849 27.2456 31.7907 26.9075 31.8995C26.876 31.9096 26.8439 31.918 26.8073 31.9288C26.5538 32.003 26.1749 31.9637 25.9012 31.8347C25.685 31.7329 25.5268 31.57 22.9729 28.817C20.4433 26.0902 20.1463 25.7757 20.0557 25.41C20.0418 25.3536 20.0327 25.296 20.0211 25.2281C19.9365 24.732 20.1103 24.1856 20.4619 23.8421C20.9051 23.4092 21.4991 23.32 22.0577 23.6024C22.2775 23.7135 22.4433 23.8827 24.3881 25.9812L26.4819 28.2403L31.1093 23.2449Z"/>
</mask>
<path fill-rule="evenodd" clip-rule="evenodd" d="M10.4272 4.47585C11.8497 3.17384 15.6962 1.08137 18.1968 0.249265C19.1019 -0.0519259 19.9344 -0.0774748 20.7113 0.172068C21.1439 0.311045 21.5815 0.628314 22.5724 1.52186C23.5939 2.44295 24.0614 2.77883 24.7828 3.10986C26.8985 4.08072 29.176 4.08149 31.2575 3.11217C31.9227 2.80228 32.452 2.41949 33.452 1.52473C34.9816 0.15621 35.4864 -0.0772545 36.7072 0.0191045C38.3484 0.148721 42.3509 2.06114 44.917 3.94163C46.2142 4.89234 46.5144 5.19408 46.8476 5.88214C47.2029 6.6159 47.1952 7.71087 46.8282 8.63525C46.4635 9.55391 46.3742 11.4325 46.6475 12.4346C47.3923 15.165 49.5588 17.0468 52.6591 17.6561C53.1028 17.7433 53.6276 17.8934 53.8251 17.9898C54.3829 18.2616 55.0097 18.9125 55.3067 19.5281C56.2128 21.4067 56.2362 27.8684 55.3449 30.1136C55.1764 30.538 54.9296 30.8596 54.4657 31.2594C53.8033 31.8298 53.7251 31.8603 51.7948 32.2992C49.0985 32.9122 47.038 34.8648 46.4045 37.4071C46.1184 38.5551 46.2402 40.1806 46.7115 41.5075C47.1338 42.6959 47.1316 43.2032 46.7003 44.148C46.3608 44.8919 45.3392 45.766 43.3401 47.023C41.7652 48.0134 39.2363 49.2576 38.087 49.6073C36.6315 50.0505 35.2339 49.5958 34.1165 48.3156C32.1174 46.0253 28.9949 45.1469 26.1138 46.0641C24.5492 46.5623 23.6217 47.2215 22.2645 48.8001C21.9861 49.1239 21.5691 49.4288 21.1066 49.6467C20.0772 50.1314 19.2568 50.1193 17.8257 49.5984C16.4367 49.0928 13.9649 47.8853 12.7096 47.099C9.01684 44.7861 8.48942 43.8073 9.48912 41.122C9.89397 40.0344 9.94059 39.7981 9.94515 38.8094C9.95461 36.7573 9.34937 35.3711 7.80228 33.9016C6.59321 32.7531 5.6045 32.2523 4.00495 31.9776C2.57189 31.7315 2.06691 31.5473 1.47219 31.054C0.477635 30.2287 0.162982 29.129 0.0209031 25.9799C-0.0943021 23.4291 0.280524 20.2069 0.805023 19.2378C1.37708 18.181 2.33073 17.5955 3.82969 17.3812C6.68341 16.9731 8.96392 15.1531 9.82118 12.5997C10.2197 11.4127 10.1832 9.62021 9.7346 8.35994C9.14677 6.70818 9.37274 5.44109 10.4272 4.47585ZM31.1093 23.2449C35.8122 18.168 35.8236 18.1563 36.194 18.0293C36.3835 17.9644 36.7556 17.9648 36.9548 18.0301C37.6622 18.2621 38.0999 18.9963 37.9804 19.7502C37.9704 19.8133 37.9659 19.864 37.957 19.9139C37.8887 20.2951 37.5608 20.6298 32.5368 26.0615C27.5204 31.4849 27.2456 31.7907 26.9075 31.8995C26.876 31.9096 26.8439 31.918 26.8073 31.9288C26.5538 32.003 26.1749 31.9637 25.9012 31.8347C25.685 31.7329 25.5268 31.57 22.9729 28.817C20.4433 26.0902 20.1463 25.7757 20.0557 25.41C20.0418 25.3536 20.0327 25.296 20.0211 25.2281C19.9365 24.732 20.1103 24.1856 20.4619 23.8421C20.9051 23.4092 21.4991 23.32 22.0577 23.6024C22.2775 23.7135 22.4433 23.8827 24.3881 25.9812L26.4819 28.2403L31.1093 23.2449Z" fill="url(#paint0_linear_118_1883)"/>
<path d="M18.1968 0.249265L18.5125 1.19811L18.5126 1.1981L18.1968 0.249265ZM10.4272 4.47585L9.75204 3.73821L9.75203 3.73822L10.4272 4.47585ZM20.7113 0.172068L21.0172 -0.779996L21.0171 -0.780034L20.7113 0.172068ZM22.5724 1.52186L21.9027 2.26452L21.9027 2.26455L22.5724 1.52186ZM24.7828 3.10986L24.3657 4.01873L24.3657 4.01874L24.7828 3.10986ZM31.2575 3.11217L31.6797 4.0187L31.6798 4.01863L31.2575 3.11217ZM33.452 1.52473L32.7853 0.779478L32.7853 0.779481L33.452 1.52473ZM36.7072 0.0191045L36.786 -0.977791L36.7859 -0.977795L36.7072 0.0191045ZM44.917 3.94163L45.5081 3.13504L45.5081 3.13503L44.917 3.94163ZM46.8476 5.88214L47.7477 5.44631L47.7476 5.44626L46.8476 5.88214ZM46.8282 8.63525L47.7577 9.0043L47.7577 9.00425L46.8282 8.63525ZM46.6475 12.4346L45.6827 12.6977L45.6827 12.6977L46.6475 12.4346ZM52.6591 17.6561L52.8519 16.6749H52.8519L52.6591 17.6561ZM53.8251 17.9898L53.3868 18.8886L53.3871 18.8888L53.8251 17.9898ZM55.3067 19.5281L56.2074 19.0937L56.2073 19.0936L55.3067 19.5281ZM55.3449 30.1136L56.2743 30.4826L56.2743 30.4826L55.3449 30.1136ZM54.4657 31.2594L55.1182 32.0171L55.1184 32.017L54.4657 31.2594ZM51.7948 32.2992L51.5731 31.324L51.5731 31.3241L51.7948 32.2992ZM46.4045 37.4071L45.4341 37.1653L45.4341 37.1653L46.4045 37.4071ZM46.7115 41.5075L45.7692 41.8422L45.7692 41.8423L46.7115 41.5075ZM46.7003 44.148L47.61 44.5633L47.61 44.5632L46.7003 44.148ZM43.3401 47.023L42.8078 46.1765L42.8077 46.1765L43.3401 47.023ZM38.087 49.6073L37.7959 48.6507L37.7957 48.6507L38.087 49.6073ZM34.1165 48.3156L34.8699 47.658L34.8699 47.658L34.1165 48.3156ZM26.1138 46.0641L25.8105 45.1112L25.8104 45.1112L26.1138 46.0641ZM22.2645 48.8001L23.0227 49.4522L23.0228 49.4521L22.2645 48.8001ZM21.1066 49.6467L21.5327 50.5513L21.5327 50.5513L21.1066 49.6467ZM17.8257 49.5984L17.4837 50.5381L17.4837 50.5381L17.8257 49.5984ZM12.7096 47.099L13.2404 46.2516L13.2404 46.2515L12.7096 47.099ZM9.48912 41.122L10.4263 41.4709L10.4263 41.4709L9.48912 41.122ZM9.94515 38.8094L8.94516 38.8048V38.8048L9.94515 38.8094ZM7.80228 33.9016L7.11357 34.6266L7.11359 34.6266L7.80228 33.9016ZM4.00495 31.9776L3.83568 32.9632L3.83572 32.9632L4.00495 31.9776ZM1.47219 31.054L0.833609 31.8235L0.833715 31.8236L1.47219 31.054ZM0.0209031 25.9799L1.01989 25.9348L1.01988 25.9348L0.0209031 25.9799ZM0.805023 19.2378L-0.0744133 18.7618L-0.0744314 18.7619L0.805023 19.2378ZM3.82969 17.3812L3.97122 18.3712L3.97126 18.3712L3.82969 17.3812ZM9.82118 12.5997L8.87318 12.2815L8.87318 12.2815L9.82118 12.5997ZM9.7346 8.35994L8.79248 8.69522L8.79249 8.69526L9.7346 8.35994ZM36.194 18.0293L35.87 17.0833L35.87 17.0833L36.194 18.0293ZM31.1093 23.2449L30.3757 22.5653L30.3757 22.5653L31.1093 23.2449ZM36.9548 18.0301L37.2664 17.0799L37.2663 17.0799L36.9548 18.0301ZM37.9804 19.7502L38.9681 19.9068L38.9681 19.9068L37.9804 19.7502ZM37.957 19.9139L36.9726 19.7375L36.9726 19.7376L37.957 19.9139ZM32.5368 26.0615L33.2709 26.7405L33.2709 26.7405L32.5368 26.0615ZM26.9075 31.8995L27.2137 32.8514L27.2137 32.8514L26.9075 31.8995ZM26.8073 31.9288L27.0884 32.8884L27.0886 32.8884L26.8073 31.9288ZM25.9012 31.8347L25.4749 32.7394L25.475 32.7394L25.9012 31.8347ZM22.9729 28.817L23.706 28.1369L23.706 28.1369L22.9729 28.817ZM20.0557 25.41L19.085 25.6503L20.0557 25.41ZM20.0211 25.2281L19.0354 25.3962L19.0354 25.3962L20.0211 25.2281ZM20.4619 23.8421L21.1607 24.5575L21.1607 24.5575L20.4619 23.8421ZM22.0577 23.6024L22.509 22.71L22.5089 22.71L22.0577 23.6024ZM24.3881 25.9812L25.1216 25.3014L24.3881 25.9812ZM26.4819 28.2403L25.7485 28.92L26.4821 29.7116L27.2156 28.9198L26.4819 28.2403ZM17.8811 -0.699582C16.5557 -0.258557 14.9125 0.501373 13.4298 1.30791C11.9622 2.10627 10.5565 3.00183 9.75204 3.73821L11.1024 5.21349C11.7204 4.64786 12.9491 3.84619 14.3856 3.06478C15.807 2.29155 17.3373 1.58919 18.5125 1.19811L17.8811 -0.699582ZM21.0171 -0.780034C20.0052 -1.10502 18.9525 -1.05614 17.881 -0.699573L18.5126 1.1981C19.2512 0.95229 19.8635 0.950074 20.4056 1.12417L21.0171 -0.780034ZM23.2421 0.77921C22.2784 -0.0897539 21.6874 -0.564689 21.0172 -0.779996L20.4054 1.12413C20.6004 1.18678 20.8845 1.34638 21.9027 2.26452L23.2421 0.77921ZM25.1999 2.20099C24.6141 1.9322 24.2349 1.67439 23.242 0.779184L21.9027 2.26455C22.953 3.2115 23.5087 3.62545 24.3657 4.01873L25.1999 2.20099ZM30.8354 2.20565C29.0239 3.04921 27.0533 3.05147 25.1998 2.20098L24.3657 4.01874C26.7438 5.10997 29.3281 5.11377 31.6797 4.0187L30.8354 2.20565ZM32.7853 0.779481C31.8085 1.65338 31.3663 1.9583 30.8352 2.20572L31.6798 4.01863C32.4791 3.64627 33.0955 3.1856 34.1188 2.26998L32.7853 0.779481ZM36.7859 -0.977795C36.0887 -1.03283 35.4634 -1.00314 34.7756 -0.685029C34.1529 -0.39703 33.5432 0.101317 32.7853 0.779478L34.1188 2.26998C34.8904 1.57962 35.2979 1.27698 35.6152 1.1302C35.8674 1.01354 36.1049 0.974675 36.6286 1.016L36.7859 -0.977795ZM45.5081 3.13503C44.1649 2.15076 42.4669 1.17188 40.8964 0.421495C39.3702 -0.307717 37.81 -0.896915 36.786 -0.977791L36.6285 1.016C37.2456 1.06474 38.5073 1.49656 40.0341 2.22609C41.5167 2.93445 43.1029 3.85202 44.3259 4.74823L45.5081 3.13503ZM47.7476 5.44626C47.5446 5.02699 47.3269 4.6812 46.9527 4.30508C46.6116 3.96223 46.1521 3.60702 45.5081 3.13504L44.3258 4.74823C44.9791 5.22696 45.3183 5.49796 45.5349 5.71568C45.7184 5.90012 45.8175 6.04923 45.9476 6.31802L47.7476 5.44626ZM47.7577 9.00425C48.2035 7.8812 48.2514 6.48663 47.7477 5.44631L45.9476 6.31797C46.1545 6.74517 46.1869 7.54054 45.8988 8.26626L47.7577 9.00425ZM47.6122 12.1714C47.5145 11.8131 47.4661 11.2102 47.4975 10.5511C47.529 9.88812 47.6343 9.31506 47.7577 9.0043L45.8988 8.26621C45.6574 8.87411 45.5357 9.69969 45.4997 10.4561C45.4636 11.2165 45.5072 12.054 45.6827 12.6977L47.6122 12.1714ZM52.8519 16.6749C50.0706 16.1282 48.2434 14.4851 47.6122 12.1714L45.6827 12.6977C46.5413 15.8449 49.0471 17.9653 52.4662 18.6373L52.8519 16.6749ZM54.2635 17.091C53.9428 16.9346 53.3107 16.7651 52.8519 16.6749L52.4662 18.6373C52.6581 18.6751 52.8728 18.7276 53.0593 18.7809C53.1522 18.8075 53.2325 18.8327 53.2955 18.8545C53.365 18.8785 53.3909 18.8906 53.3868 18.8886L54.2635 17.091ZM56.2073 19.0936C55.8233 18.2976 55.0439 17.4712 54.2632 17.0908L53.3871 18.8888C53.722 19.0519 54.1961 19.5274 54.406 19.9627L56.2073 19.0936ZM56.2743 30.4826C56.5462 29.7976 56.7237 28.8686 56.8358 27.8905C56.95 26.8943 57.0038 25.7775 56.9998 24.6798C56.9958 23.5826 56.9342 22.4864 56.8122 21.5321C56.6939 20.607 56.5076 19.7161 56.2074 19.0937L54.406 19.9626C54.5588 20.2794 54.7152 20.9007 54.8283 21.7857C54.9377 22.6415 54.9961 23.6533 54.9998 24.687C55.0035 25.7202 54.9526 26.7572 54.8489 27.6628C54.743 28.5864 54.5892 29.307 54.4155 29.7447L56.2743 30.4826ZM55.1184 32.017C55.6647 31.5463 56.0295 31.0993 56.2743 30.4826L54.4155 29.7447C54.3233 29.9768 54.1946 30.173 53.8129 30.5018L55.1184 32.017ZM52.0165 33.2743C52.9457 33.063 53.5384 32.928 53.9685 32.7605C54.4818 32.5607 54.7758 32.312 55.1182 32.0171L53.8131 30.5016C53.4932 30.7771 53.4169 30.829 53.2429 30.8968C52.9858 30.9969 52.5742 31.0965 51.5731 31.324L52.0165 33.2743ZM47.3748 37.6489C47.9109 35.4976 49.6624 33.8095 52.0165 33.2743L51.5731 31.3241C48.5345 32.0149 46.1651 34.2321 45.4341 37.1653L47.3748 37.6489ZM47.6538 41.1727C47.2356 39.9952 47.1447 38.5723 47.3748 37.6488L45.4341 37.1653C45.0921 38.5379 45.2448 40.3659 45.7692 41.8422L47.6538 41.1727ZM47.61 44.5632C47.853 44.0309 48.0234 43.5189 48.026 42.9234C48.0284 42.3507 47.8741 41.7927 47.6538 41.1727L45.7692 41.8423C45.9712 42.4107 46.0269 42.7006 46.026 42.9148C46.0252 43.1063 45.9789 43.3203 45.7906 43.7328L47.61 44.5632ZM43.8724 47.8696C44.8891 47.2303 45.6911 46.6676 46.2927 46.1529C46.8837 45.6473 47.3515 45.1296 47.61 44.5633L45.7906 43.7328C45.7096 43.9103 45.4969 44.2017 44.9924 44.6333C44.4985 45.0558 43.7902 45.5588 42.8078 46.1765L43.8724 47.8696ZM38.3782 50.564C39.6454 50.1783 42.2587 48.8843 43.8724 47.8696L42.8077 46.1765C41.2716 47.1425 38.8271 48.3368 37.7959 48.6507L38.3782 50.564ZM33.3631 48.9731C34.7011 50.5061 36.4933 51.1379 38.3783 50.564L37.7957 48.6507C36.7697 48.9631 35.7666 48.6854 34.8699 47.658L33.3631 48.9731ZM26.4172 47.017C28.916 46.2214 31.6241 46.9809 33.3632 48.9732L34.8699 47.658C32.6106 45.0697 29.0739 44.0723 25.8105 45.1112L26.4172 47.017ZM23.0228 49.4521C23.6761 48.6922 24.1869 48.2001 24.6907 47.842C25.1848 47.4908 25.7089 47.2425 26.4172 47.0169L25.8104 45.1112C24.9541 45.3839 24.2322 45.7142 23.5321 46.2119C22.8417 46.7026 22.2102 47.3294 21.5062 48.1482L23.0228 49.4521ZM21.5327 50.5513C22.0979 50.2851 22.6364 49.9014 23.0227 49.4522L21.5063 48.1481C21.3358 48.3464 21.0403 48.5725 20.6805 48.742L21.5327 50.5513ZM17.4837 50.5381C18.2452 50.8153 18.9287 50.9896 19.6021 50.9995C20.2983 51.0098 20.9116 50.8438 21.5327 50.5513L20.6806 48.742C20.2722 48.9343 19.9607 49.0046 19.6315 48.9998C19.2796 48.9946 18.8373 48.9024 18.1678 48.6587L17.4837 50.5381ZM12.1788 47.9465C13.4935 48.77 16.0286 50.0085 17.4837 50.5381L18.1678 48.6587C16.8449 48.1772 14.4364 47.0006 13.2404 46.2516L12.1788 47.9465ZM8.55195 40.7731C8.03063 42.1735 7.77482 43.4541 8.45935 44.7245C9.07245 45.8623 10.3665 46.8114 12.1788 47.9465L13.2404 46.2515C11.36 45.0737 10.5439 44.3769 10.22 43.7758C9.96758 43.3073 9.94791 42.7559 10.4263 41.4709L8.55195 40.7731ZM8.94516 38.8048C8.94291 39.2933 8.92912 39.5172 8.88614 39.7352C8.84099 39.9641 8.75614 40.2246 8.55194 40.7732L10.4263 41.4709C10.6269 40.9318 10.7678 40.5304 10.8483 40.1221C10.931 39.7028 10.9428 39.3143 10.9451 38.814L8.94516 38.8048ZM7.11359 34.6266C7.81981 35.2974 8.2651 35.9053 8.54097 36.5372C8.81584 37.1667 8.94941 37.8817 8.94516 38.8048L10.9451 38.814C10.9503 37.6851 10.786 36.6809 10.3739 35.7369C9.96272 34.7952 9.33184 33.9752 8.49097 33.1765L7.11359 34.6266ZM3.83572 32.9632C4.56706 33.0888 5.11244 33.2579 5.5981 33.5039C6.08488 33.7506 6.55588 34.0969 7.11357 34.6266L8.49099 33.1765C7.83962 32.5578 7.21172 32.0794 6.502 31.7199C5.79114 31.3597 5.04239 31.1411 4.17418 30.992L3.83572 32.9632ZM0.833715 31.8236C1.63661 32.4897 2.35786 32.7094 3.83568 32.9632L4.17422 30.992C2.78593 30.7536 2.49721 30.605 2.11066 30.2843L0.833715 31.8236ZM-0.978081 26.025C-0.837743 29.1355 -0.539633 30.684 0.833609 31.8235L2.11076 30.2844C1.4949 29.7734 1.16371 29.1225 1.01989 25.9348L-0.978081 26.025ZM-0.0744314 18.7619C-0.27345 19.1296 -0.41889 19.6232 -0.530797 20.1229C-0.647501 20.644 -0.74498 21.2532 -0.82023 21.9002C-0.970536 23.1925 -1.03838 24.6898 -0.978079 26.025L1.01988 25.9348C0.964984 24.7192 1.02695 23.33 1.16638 22.1312C1.236 21.5327 1.32337 20.9953 1.42086 20.5599C1.52315 20.1032 1.62125 19.8306 1.68448 19.7138L-0.0744314 18.7619ZM3.68816 16.3913C1.96603 16.6375 0.68707 17.355 -0.0744133 18.7618L1.68446 19.7138C2.06708 19.007 2.69543 18.5536 3.97122 18.3712L3.68816 16.3913ZM8.87318 12.2815C8.14646 14.446 6.20068 16.032 3.68811 16.3913L3.97126 18.3712C7.16615 17.9143 9.78138 15.8602 10.7692 12.918L8.87318 12.2815ZM8.79249 8.69526C9.17141 9.75987 9.19539 11.3218 8.87318 12.2815L10.7692 12.918C11.2441 11.5036 11.1949 9.48055 10.6767 8.02463L8.79249 8.69526ZM9.75203 3.73822C9.08019 4.35319 8.63792 5.1026 8.48058 5.98489C8.32638 6.84958 8.45997 7.76089 8.79248 8.69522L10.6767 8.02466C10.4214 7.30723 10.3741 6.75912 10.4495 6.33601C10.5218 5.93051 10.7198 5.56375 11.1024 5.21348L9.75203 3.73822ZM35.87 17.0833C35.7195 17.1349 35.537 17.2034 35.2916 17.3938C35.104 17.5394 34.8775 17.7574 34.5603 18.0828C33.9117 18.748 32.7207 20.0338 30.3757 22.5653L31.8429 23.9245C34.2008 21.379 35.3669 20.1205 35.9924 19.4789C36.3122 19.1509 36.452 19.0249 36.5176 18.9739C36.5255 18.9678 36.4834 18.9873 36.5181 18.9754L35.87 17.0833ZM37.2663 17.0799C37.0266 17.0013 36.7665 16.9811 36.5718 16.9809C36.3806 16.9807 36.1147 16.9995 35.87 17.0833L36.5181 18.9754C36.4957 18.983 36.482 18.986 36.48 18.9864C36.4773 18.987 36.48 18.9863 36.4887 18.9852C36.507 18.9829 36.5354 18.9809 36.5697 18.9809C36.6039 18.9809 36.6338 18.983 36.6549 18.9857C36.665 18.9869 36.6699 18.9879 36.6698 18.9879C36.6696 18.9878 36.6674 18.9874 36.6633 18.9863C36.6592 18.9853 36.6524 18.9834 36.6433 18.9804L37.2663 17.0799ZM38.9681 19.9068C39.1615 18.6866 38.4579 17.4707 37.2664 17.0799L36.6431 18.9803C36.8664 19.0536 37.0383 19.306 36.9927 19.5937L38.9681 19.9068ZM38.9413 20.0902C38.9505 20.0388 38.9566 19.9916 38.9599 19.9661C38.9639 19.9356 38.9657 19.9219 38.9681 19.9068L36.9927 19.5936C36.9851 19.6416 36.9797 19.6848 36.9767 19.7078C36.973 19.7359 36.9724 19.7391 36.9726 19.7375L38.9413 20.0902ZM33.2709 26.7405C35.7766 24.0315 37.1258 22.5778 37.8535 21.7572C38.2121 21.3528 38.4516 21.0669 38.6071 20.8447C38.7849 20.5907 38.8921 20.3647 38.9413 20.0902L36.9726 19.7376C36.9877 19.6537 37.0284 19.6125 36.9684 19.6981C36.8862 19.8156 36.717 20.0244 36.3571 20.4303C35.6477 21.2303 34.321 22.6598 31.8027 25.3825L33.2709 26.7405ZM27.2137 32.8514C27.4552 32.7738 27.6488 32.6553 27.8713 32.4666C28.0662 32.3012 28.3206 32.0495 28.6888 31.6664C29.4354 30.8895 30.7679 29.4466 33.2709 26.7405L31.8027 25.3825C29.2893 28.0998 27.9761 29.5216 27.2467 30.2806C26.877 30.6654 26.6858 30.8495 26.5773 30.9416C26.4964 31.0102 26.5289 30.9708 26.6013 30.9475L27.2137 32.8514ZM27.0886 32.8884C27.1023 32.8844 27.1097 32.8824 27.1335 32.8756C27.1528 32.8701 27.1816 32.8618 27.2137 32.8514L26.6013 30.9475C26.6019 30.9473 26.5989 30.9483 26.5851 30.9522C26.5766 30.9547 26.5728 30.9557 26.5606 30.9592C26.5509 30.9619 26.539 30.9653 26.526 30.9691L27.0886 32.8884ZM25.475 32.7394C25.9355 32.9563 26.5664 33.0414 27.0884 32.8884L26.5261 30.9691C26.5473 30.9629 26.5513 30.9644 26.5346 30.9655C26.5192 30.9665 26.4952 30.9664 26.465 30.9633C26.4351 30.9602 26.4054 30.9547 26.3787 30.9476C26.3516 30.9404 26.3344 30.9334 26.3273 30.9301L25.475 32.7394ZM22.2398 29.4971C23.5123 30.8687 24.2003 31.6086 24.596 32.0164C24.9656 32.3973 25.1776 32.5993 25.4749 32.7394L26.3274 30.9301C26.3267 30.9298 26.3319 30.9322 26.3401 30.9367C26.3486 30.9414 26.357 30.9464 26.3645 30.9513C26.3791 30.9608 26.3797 30.963 26.3605 30.9465C26.314 30.9069 26.2222 30.8204 26.0314 30.6236C25.6555 30.2363 24.9875 29.5182 23.706 28.1369L22.2398 29.4971ZM19.085 25.6503C19.1937 26.0892 19.4437 26.4195 19.8429 26.8817C20.2597 27.3643 20.9837 28.143 22.2398 29.4971L23.706 28.1369C22.4326 26.7641 21.7433 26.0222 21.3565 25.5744C21.162 25.3493 21.0743 25.2327 21.033 25.169C21.0154 25.1419 21.0136 25.1353 21.0172 25.1436C21.019 25.1477 21.0212 25.1532 21.0233 25.1593C21.0243 25.1622 21.025 25.1646 21.0256 25.1666C21.0259 25.1675 21.0261 25.1683 21.0262 25.1688C21.0263 25.1693 21.0264 25.1696 21.0264 25.1696L19.085 25.6503ZM19.0354 25.3962C19.0434 25.4431 19.0598 25.5484 19.085 25.6503L21.0264 25.1696C21.0237 25.1588 21.022 25.1488 21.0069 25.06L19.0354 25.3962ZM19.7632 23.1268C19.17 23.7062 18.8971 24.5856 19.0354 25.3962L21.0069 25.0601C20.9759 24.8784 21.0507 24.665 21.1607 24.5575L19.7632 23.1268ZM22.5089 22.71C21.574 22.2373 20.5166 22.3908 19.7632 23.1268L21.1607 24.5575C21.2936 24.4277 21.4243 24.4027 21.6065 24.4948L22.5089 22.71ZM25.1216 25.3014C24.1541 24.2575 23.6146 23.6777 23.2903 23.3467C22.9749 23.0248 22.7792 22.8467 22.509 22.71L21.6064 24.4948C21.6083 24.4957 21.6004 24.4917 21.5907 24.4853C21.5826 24.48 21.5842 24.4802 21.5994 24.4929C21.6367 24.524 21.7105 24.592 21.8617 24.7464C22.1615 25.0524 22.6773 25.6064 23.6547 26.6609L25.1216 25.3014ZM27.2154 27.5605L25.1216 25.3014L23.6547 26.6609L25.7485 28.92L27.2154 27.5605ZM30.3757 22.5653L25.7483 27.5607L27.2156 28.9198L31.8429 23.9245L30.3757 22.5653Z" fill="#565879" mask="url(#path-1-inside-1_118_1883)"/>
<defs>
<linearGradient id="paint0_linear_118_1883" x1="3.29412" y1="2.2" x2="40.9951" y2="46.5541" gradientUnits="userSpaceOnUse">
<stop offset="0.28125" stop-color="#484963"/>
<stop offset="0.515625" stop-color="#525372"/>
<stop offset="0.765625" stop-color="#484963"/>
</linearGradient>
</defs>
</svg>