<svg width="25" height="24" viewBox="0 0 25 24" fill="none" xmlns="http://www.w3.org/2000/svg">
<path d="M20.7423 13.246C20.7421 13.3326 20.7713 13.4168 20.8249 13.4847L21.9683 14.9251C22.1753 15.1839 22.2992 15.4991 22.3239 15.8296C22.3487 16.16 22.2735 16.4902 22.1077 16.7771L21.4373 17.9373C21.2718 18.2245 21.0238 18.455 20.7253 18.5989C20.4269 18.7429 20.0919 18.7934 19.7643 18.7439L17.9429 18.4669C17.8568 18.4549 17.769 18.4715 17.6934 18.5143L15.5352 19.7603C15.4602 19.8043 15.402 19.8722 15.3699 19.9531L14.698 21.6674C14.5776 21.9755 14.3672 22.2403 14.0942 22.427C13.8211 22.6137 13.4981 22.714 13.1673 22.7143H11.8265C11.4957 22.714 11.1727 22.6137 10.8997 22.427C10.6266 22.2403 10.4162 21.9755 10.2959 21.6674L9.62396 19.9531C9.59182 19.8722 9.53365 19.8043 9.45867 19.7603L7.30051 18.5143C7.22487 18.4713 7.13713 18.4547 7.05101 18.4669L5.22958 18.7439C4.90195 18.7934 4.56701 18.7429 4.26855 18.5989C3.97009 18.455 3.72197 18.2245 3.55663 17.9373L2.88622 16.7771C2.72043 16.4902 2.64504 16.16 2.66989 15.8296C2.69473 15.4991 2.81868 15.1839 3.02551 14.9251L4.17499 13.4847C4.22878 13.4168 4.25792 13.3326 4.25765 13.246V10.7541C4.25792 10.6675 4.22878 10.5833 4.17499 10.5154L3.02551 9.07505C2.81868 8.81618 2.69473 8.50096 2.66989 8.17054C2.64504 7.84013 2.72043 7.50991 2.88622 7.22301L3.55663 6.06281C3.72197 5.77567 3.97009 5.54508 4.26855 5.40117C4.56701 5.25727 4.90195 5.20673 5.22958 5.25617L7.04641 5.53322C7.13254 5.54542 7.22028 5.52873 7.29591 5.48577L9.45867 4.23372C9.53365 4.18958 9.59182 4.12173 9.62396 4.04086L10.299 2.3327C10.4193 2.02456 10.6297 1.75984 10.9027 1.57307C11.1758 1.38631 11.4988 1.28619 11.8296 1.28577H13.1735C13.5043 1.28619 13.8273 1.38631 14.1003 1.57307C14.3733 1.75984 14.5838 2.02456 14.7041 2.3327L15.376 4.04086C15.407 4.12399 15.4653 4.19416 15.5413 4.23984L17.6994 5.48577C17.7752 5.52862 17.8628 5.5453 17.949 5.53322L19.7705 5.25617C20.0981 5.20673 20.433 5.25727 20.7315 5.40117C21.0299 5.54508 21.278 5.77567 21.4434 6.06281L22.1137 7.22301C22.2795 7.50991 22.3549 7.84013 22.3301 8.17054C22.3052 8.50096 22.1813 8.81618 21.9745 9.07505L20.8249 10.5154C20.7713 10.5833 20.7421 10.6675 20.7423 10.7541V13.246Z" fill="transparent" stroke="currentColor" stroke-width="1.71429"/>
<path d="M12.5 16.9337C15.2248 16.9337 17.4337 14.7248 17.4337 12C17.4337 9.27518 15.2248 7.06628 12.5 7.06628C9.77518 7.06628 7.56628 9.27518 7.56628 12C7.56628 14.7248 9.77518 16.9337 12.5 16.9337Z" fill="transparent" stroke="currentColor" stroke-width="1.71429"/>
<path d="M12.5 7.06702V16.9329" stroke="currentColor" stroke-width="1.71429" stroke-linecap="round" stroke-linejoin="round"/>
<path d="M17.433 12H7.56704" stroke="currentColor" stroke-width="1.71429" stroke-linecap="round" stroke-linejoin="round"/>
</svg>
