<svg xmlns="http://www.w3.org/2000/svg" fill="none" viewBox="-1 -0.2 45 40.39">
<mask id="path-1-inside-1_602_7862" fill="white">
<path fill-rule="evenodd" clip-rule="evenodd" d="M13.9726 0.994867C12.0524 1.6338 9.09884 3.24053 8.00663 4.24028C7.19693 4.98145 7.02341 5.95439 7.47478 7.22271C7.81921 8.19041 7.84729 9.5668 7.54126 10.4783C6.88301 12.4389 5.13191 13.8364 2.94065 14.1498C1.78967 14.3143 1.0574 14.7639 0.618143 15.5754C0.215402 16.3195 -0.0724106 18.7936 0.0160506 20.7523C0.125147 23.1704 0.366755 24.0148 1.13043 24.6485C1.58709 25.0273 1.97485 25.1687 3.07523 25.3577C4.30346 25.5686 5.06264 25.9532 5.99104 26.835C7.17898 27.9634 7.64372 29.0278 7.63645 30.6035C7.63295 31.3627 7.59716 31.5442 7.28628 32.3793C6.51866 34.4412 6.92365 35.1928 9.75916 36.9688C10.7231 37.5725 12.621 38.4997 13.6876 38.888C14.7865 39.2879 15.4165 39.2972 16.2069 38.925C16.562 38.7577 16.8822 38.5236 17.096 38.275C18.1381 37.0628 18.8503 36.5566 20.0517 36.1741C22.2639 35.4698 24.6615 36.1443 26.1966 37.9029C27.0546 38.8859 28.1278 39.2351 29.2454 38.8948C30.1278 38.6263 32.0697 37.6709 33.279 36.9104C34.814 35.9452 35.5984 35.274 35.8592 34.7028C36.1903 33.9773 36.192 33.5878 35.8678 32.6753C35.5059 31.6564 35.4124 30.4083 35.632 29.5268C36.1184 27.5747 37.7006 26.0754 39.771 25.6046C41.2532 25.2676 41.3132 25.2442 41.8219 24.8062C42.1781 24.4992 42.3676 24.2523 42.497 23.9264C43.1813 22.2024 43.1634 17.2408 42.4676 15.7983C42.2396 15.3256 41.7583 14.8257 41.33 14.6171C41.1783 14.5431 40.7754 14.4278 40.4346 14.3608C38.0541 13.893 36.3906 12.448 35.8186 10.3514C35.6088 9.58202 35.6773 8.13951 35.9574 7.43411C36.2392 6.72431 36.2451 5.88353 35.9723 5.32011C35.7164 4.79178 35.4859 4.56008 34.4898 3.83008C32.5194 2.38613 29.4461 0.917663 28.1859 0.818136C27.2485 0.744146 26.8609 0.923413 25.6864 1.97424C24.9185 2.66129 24.5121 2.95522 24.0013 3.19317C22.403 3.93747 20.6542 3.93688 19.0296 3.1914C18.4757 2.93721 18.1168 2.6793 17.3324 1.97204C16.5715 1.28592 16.2355 1.0423 15.9034 0.93559C15.3067 0.743977 14.6675 0.763595 13.9726 0.994867ZM16.9602 24.7636C16.5697 24.3731 16.5697 23.7399 16.9602 23.3494L20.0461 20.2635L16.8642 17.0816C16.4737 16.6911 16.4737 16.0579 16.8642 15.6674C17.2547 15.2769 17.8879 15.2769 18.2784 15.6674L21.4603 18.8493L24.546 15.7636C24.9365 15.3731 25.5697 15.3731 25.9602 15.7636C26.3507 16.1541 26.3507 16.7873 25.9602 17.1778L22.8745 20.2635L25.8642 23.2532C26.2547 23.6437 26.2547 24.2769 25.8642 24.6674C25.4737 25.0579 24.8405 25.0579 24.45 24.6674L21.4603 21.6777L18.3744 24.7636C17.9839 25.1541 17.3507 25.1541 16.9602 24.7636Z"/>
</mask>
<path fill-rule="evenodd" clip-rule="evenodd" d="M13.9726 0.994867C12.0524 1.6338 9.09884 3.24053 8.00663 4.24028C7.19693 4.98145 7.02341 5.95439 7.47478 7.22271C7.81921 8.19041 7.84729 9.5668 7.54126 10.4783C6.88301 12.4389 5.13191 13.8364 2.94065 14.1498C1.78967 14.3143 1.0574 14.7639 0.618143 15.5754C0.215402 16.3195 -0.0724106 18.7936 0.0160506 20.7523C0.125147 23.1704 0.366755 24.0148 1.13043 24.6485C1.58709 25.0273 1.97485 25.1687 3.07523 25.3577C4.30346 25.5686 5.06264 25.9532 5.99104 26.835C7.17898 27.9634 7.64372 29.0278 7.63645 30.6035C7.63295 31.3627 7.59716 31.5442 7.28628 32.3793C6.51866 34.4412 6.92365 35.1928 9.75916 36.9688C10.7231 37.5725 12.621 38.4997 13.6876 38.888C14.7865 39.2879 15.4165 39.2972 16.2069 38.925C16.562 38.7577 16.8822 38.5236 17.096 38.275C18.1381 37.0628 18.8503 36.5566 20.0517 36.1741C22.2639 35.4698 24.6615 36.1443 26.1966 37.9029C27.0546 38.8859 28.1278 39.2351 29.2454 38.8948C30.1278 38.6263 32.0697 37.6709 33.279 36.9104C34.814 35.9452 35.5984 35.274 35.8592 34.7028C36.1903 33.9773 36.192 33.5878 35.8678 32.6753C35.5059 31.6564 35.4124 30.4083 35.632 29.5268C36.1184 27.5747 37.7006 26.0754 39.771 25.6046C41.2532 25.2676 41.3132 25.2442 41.8219 24.8062C42.1781 24.4992 42.3676 24.2523 42.497 23.9264C43.1813 22.2024 43.1634 17.2408 42.4676 15.7983C42.2396 15.3256 41.7583 14.8257 41.33 14.6171C41.1783 14.5431 40.7754 14.4278 40.4346 14.3608C38.0541 13.893 36.3906 12.448 35.8186 10.3514C35.6088 9.58202 35.6773 8.13951 35.9574 7.43411C36.2392 6.72431 36.2451 5.88353 35.9723 5.32011C35.7164 4.79178 35.4859 4.56008 34.4898 3.83008C32.5194 2.38613 29.4461 0.917663 28.1859 0.818136C27.2485 0.744146 26.8609 0.923413 25.6864 1.97424C24.9185 2.66129 24.5121 2.95522 24.0013 3.19317C22.403 3.93747 20.6542 3.93688 19.0296 3.1914C18.4757 2.93721 18.1168 2.6793 17.3324 1.97204C16.5715 1.28592 16.2355 1.0423 15.9034 0.93559C15.3067 0.743977 14.6675 0.763595 13.9726 0.994867ZM16.9602 24.7636C16.5697 24.3731 16.5697 23.7399 16.9602 23.3494L20.0461 20.2635L16.8642 17.0816C16.4737 16.6911 16.4737 16.0579 16.8642 15.6674C17.2547 15.2769 17.8879 15.2769 18.2784 15.6674L21.4603 18.8493L24.546 15.7636C24.9365 15.3731 25.5697 15.3731 25.9602 15.7636C26.3507 16.1541 26.3507 16.7873 25.9602 17.1778L22.8745 20.2635L25.8642 23.2532C26.2547 23.6437 26.2547 24.2769 25.8642 24.6674C25.4737 25.0579 24.8405 25.0579 24.45 24.6674L21.4603 21.6777L18.3744 24.7636C17.9839 25.1541 17.3507 25.1541 16.9602 24.7636Z" fill="url(#paint0_linear_602_7862)"/>
<path d="M8.00663 4.24028L7.33143 3.50264L7.33142 3.50265L8.00663 4.24028ZM13.9726 0.994867L14.2883 1.94371L14.2883 1.9437L13.9726 0.994867ZM7.47478 7.22271L6.53266 7.55799L6.53267 7.55802L7.47478 7.22271ZM7.54126 10.4783L6.59327 10.16L6.59327 10.16L7.54126 10.4783ZM2.94065 14.1498L3.08218 15.1397L3.08223 15.1397L2.94065 14.1498ZM0.618143 15.5754L-0.261294 15.0994L-0.261312 15.0994L0.618143 15.5754ZM0.0160506 20.7523L1.01503 20.7072L1.01503 20.7072L0.0160506 20.7523ZM1.13043 24.6485L0.491851 25.418L0.491959 25.4181L1.13043 24.6485ZM3.07523 25.3577L2.90596 26.3433L2.906 26.3433L3.07523 25.3577ZM5.99104 26.835L5.30233 27.5601L5.30235 27.5601L5.99104 26.835ZM7.63645 30.6035L6.63646 30.5989V30.5989L7.63645 30.6035ZM7.28628 32.3793L8.22345 32.7282L8.22346 32.7282L7.28628 32.3793ZM9.75916 36.9688L10.29 36.1213L10.29 36.1213L9.75916 36.9688ZM13.6876 38.888L13.3456 39.8277L13.3456 39.8277L13.6876 38.888ZM16.2069 38.925L16.6329 39.8297L16.633 39.8297L16.2069 38.925ZM17.096 38.275L17.8542 38.927L17.8542 38.9269L17.096 38.275ZM20.0517 36.1741L19.7483 35.2212L19.7483 35.2212L20.0517 36.1741ZM26.1966 37.9029L26.95 37.2454L26.95 37.2453L26.1966 37.9029ZM29.2454 38.8948L28.9542 37.9381L28.9541 37.9382L29.2454 38.8948ZM33.279 36.9104L32.7467 36.0639L32.7466 36.0639L33.279 36.9104ZM35.8592 34.7028L36.7689 35.1181L36.7689 35.1181L35.8592 34.7028ZM35.8678 32.6753L34.9255 33.01L34.9255 33.0101L35.8678 32.6753ZM35.632 29.5268L34.6617 29.285L34.6617 29.285L35.632 29.5268ZM39.771 25.6046L39.5493 24.6295L39.5493 24.6295L39.771 25.6046ZM41.8219 24.8062L42.4744 25.5639L42.4746 25.5638L41.8219 24.8062ZM42.497 23.9264L43.4264 24.2954L43.4264 24.2954L42.497 23.9264ZM42.4676 15.7983L43.3683 15.3638L43.3683 15.3637L42.4676 15.7983ZM41.33 14.6171L40.8917 15.5159L40.892 15.516L41.33 14.6171ZM40.4346 14.3608L40.6275 13.3796L40.6275 13.3796L40.4346 14.3608ZM35.8186 10.3514L34.8538 10.6146L34.8539 10.6146L35.8186 10.3514ZM35.9574 7.43411L36.8868 7.80316L36.8868 7.8031L35.9574 7.43411ZM35.9723 5.32011L36.8723 4.88428L36.8723 4.88423L35.9723 5.32011ZM34.4898 3.83008L35.0809 3.02348L35.0809 3.02348L34.4898 3.83008ZM28.1859 0.818136L28.2646 -0.178759L28.2646 -0.178763L28.1859 0.818136ZM25.6864 1.97424L25.0196 1.22899L25.0196 1.22899L25.6864 1.97424ZM24.0013 3.19317L24.4235 4.0997L24.4236 4.09963L24.0013 3.19317ZM19.0296 3.1914L18.6126 4.10027L18.6126 4.10028L19.0296 3.1914ZM17.3324 1.97204L16.6627 2.7147L16.6627 2.71472L17.3324 1.97204ZM15.9034 0.93559L16.2093 -0.0164739L16.2091 -0.0165117L15.9034 0.93559ZM16.9602 23.3494L17.6673 24.0565L17.6673 24.0565L16.9602 23.3494ZM16.9602 24.7636L17.6673 24.0565L17.6673 24.0565L16.9602 24.7636ZM20.0461 20.2635L20.7532 20.9706L21.4603 20.2635L20.7532 19.5564L20.0461 20.2635ZM16.8642 17.0816L17.5713 16.3745L17.5713 16.3745L16.8642 17.0816ZM16.8642 15.6674L17.5713 16.3745V16.3745L16.8642 15.6674ZM18.2784 15.6674L17.5713 16.3745L18.2784 15.6674ZM21.4603 18.8493L20.7532 19.5564L21.4603 20.2635L22.1674 19.5564L21.4603 18.8493ZM24.546 15.7636L23.8389 15.0565L23.8389 15.0565L24.546 15.7636ZM25.9602 15.7636L26.6673 15.0565L26.6673 15.0565L25.9602 15.7636ZM22.8745 20.2635L22.1674 19.5564L21.4603 20.2635L22.1674 20.9706L22.8745 20.2635ZM25.8642 23.2532L26.5713 22.5461H26.5713L25.8642 23.2532ZM25.8642 24.6674L25.1571 23.9603L25.1571 23.9603L25.8642 24.6674ZM24.45 24.6674L25.1571 23.9603L25.1571 23.9603L24.45 24.6674ZM21.4603 21.6777L22.1674 20.9706L21.4603 20.2635L20.7532 20.9706L21.4603 21.6777ZM8.68182 4.97792C9.13465 4.56342 10.0576 3.95874 11.157 3.3607C12.2413 2.77084 13.4033 2.23821 14.2883 1.94371L13.6568 0.0460193C12.6217 0.390461 11.3468 0.980661 10.2013 1.60383C9.07074 2.21882 7.97081 2.91738 7.33143 3.50264L8.68182 4.97792ZM8.4169 6.88743C8.22981 6.36172 8.20348 5.98301 8.25227 5.70937C8.29793 5.45335 8.42157 5.21614 8.68183 4.97791L7.33142 3.50265C6.78198 4.00558 6.41402 4.62543 6.28333 5.35825C6.15579 6.07346 6.26838 6.81538 6.53266 7.55799L8.4169 6.88743ZM8.48926 10.7966C8.87162 9.65771 8.83095 8.05075 8.41689 6.88739L6.53267 7.55802C6.80746 8.33008 6.82295 9.47588 6.59327 10.16L8.48926 10.7966ZM3.08223 15.1397C5.61464 14.7775 7.70047 13.146 8.48926 10.7965L6.59327 10.16C6.06555 11.7318 4.64917 12.8953 2.79908 13.1598L3.08223 15.1397ZM1.49758 16.0514C1.74741 15.5898 2.15437 15.2724 3.08218 15.1397L2.79912 13.1598C1.42497 13.3563 0.367392 13.9379 -0.261294 15.0994L1.49758 16.0514ZM1.01503 20.7072C0.973504 19.7877 1.0204 18.7336 1.1262 17.8239C1.179 17.3699 1.24492 16.9656 1.31755 16.6413C1.39497 16.2956 1.46481 16.1119 1.4976 16.0514L-0.261312 15.0994C-0.42989 15.4109 -0.547062 15.8155 -0.634108 16.2042C-0.72595 16.6143 -0.801973 17.0905 -0.860408 17.5929C-0.977084 18.596 -1.02986 19.7583 -0.982931 20.7974L1.01503 20.7072ZM1.76901 23.8789C1.38402 23.5595 1.12587 23.1639 1.01503 20.7072L-0.982933 20.7974C-0.875578 23.1769 -0.650512 24.4701 0.491851 25.418L1.76901 23.8789ZM3.2445 24.3721C2.18888 24.1908 2.01739 24.085 1.7689 23.8788L0.491959 25.4181C1.15679 25.9697 1.76081 26.1466 2.90596 26.3433L3.2445 24.3721ZM6.67975 26.11C6.16871 25.6246 5.66836 25.2419 5.09752 24.9527C4.52554 24.6629 3.92701 24.4893 3.24446 24.3721L2.906 26.3433C3.45168 26.437 3.84685 26.5611 4.19362 26.7368C4.54153 26.9131 4.88497 27.1636 5.30233 27.5601L6.67975 26.11ZM8.63644 30.6082C8.64055 29.7174 8.51081 28.9127 8.1784 28.1514C7.84699 27.3923 7.34102 26.7381 6.67973 26.11L5.30235 27.5601C5.829 28.0603 6.14937 28.5025 6.3455 28.9517C6.54063 29.3986 6.63962 29.914 6.63646 30.5989L8.63644 30.6082ZM8.22346 32.7282C8.37712 32.3154 8.49181 31.9908 8.55774 31.6564C8.62584 31.3111 8.63466 30.9936 8.63644 30.6081L6.63646 30.5989C6.63474 30.9726 6.62392 31.1255 6.59553 31.2695C6.56497 31.4244 6.50632 31.6081 6.34911 32.0304L8.22346 32.7282ZM10.29 36.1213C8.83816 35.212 8.26701 34.7062 8.05189 34.3069C7.9082 34.0402 7.86111 33.7015 8.22345 32.7282L6.34912 32.0304C5.94384 33.119 5.71544 34.187 6.29121 35.2556C6.79555 36.1916 7.84465 36.9496 9.22834 37.8163L10.29 36.1213ZM14.0296 37.9483C13.0292 37.5841 11.1945 36.6879 10.29 36.1213L9.22834 37.8163C10.2517 38.4572 12.2129 39.4154 13.3456 39.8277L14.0296 37.9483ZM15.7808 38.0203C15.492 38.1563 15.2878 38.1993 15.0776 38.1962C14.8447 38.1927 14.5331 38.1315 14.0296 37.9483L13.3456 39.8277C13.941 40.0444 14.4938 40.1878 15.0482 40.1959C15.6254 40.2044 16.1314 40.0659 16.6329 39.8297L15.7808 38.0203ZM16.3378 37.623C16.2318 37.7461 16.0332 37.9014 15.7808 38.0203L16.633 39.8297C17.0908 39.614 17.5325 39.3011 17.8542 38.927L16.3378 37.623ZM19.7483 35.2212C19.0736 35.4361 18.4963 35.6992 17.9348 36.0984C17.383 36.4905 16.8841 36.9875 16.3377 37.6231L17.8542 38.9269C18.35 38.3503 18.7282 37.9881 19.0935 37.7285C19.4489 37.4759 19.8284 37.2947 20.3551 37.127L19.7483 35.2212ZM26.95 37.2453C25.1548 35.1887 22.3429 34.3952 19.7483 35.2212L20.3551 37.127C22.185 36.5444 24.1683 37.0999 25.4432 38.5605L26.95 37.2453ZM28.9541 37.9382C28.266 38.1477 27.5873 37.9756 26.95 37.2454L25.4432 38.5605C26.5218 39.7963 27.9896 40.3225 29.5366 39.8515L28.9541 37.9382ZM32.7466 36.0639C31.5762 36.7999 29.7187 37.7055 28.9542 37.9381L29.5365 39.8515C30.537 39.547 32.5632 38.5418 33.8113 37.757L32.7466 36.0639ZM34.9494 34.2876C34.9078 34.3788 34.7741 34.5762 34.3968 34.899C34.0301 35.2128 33.497 35.5921 32.7467 36.0639L33.8113 37.757C34.596 37.2636 35.2227 36.8246 35.6971 36.4187C36.1609 36.0218 36.5498 35.5981 36.7689 35.1181L34.9494 34.2876ZM34.9255 33.0101C35.0784 33.4405 35.1098 33.632 35.1092 33.7549C35.1088 33.855 35.0877 33.9847 34.9494 34.2876L36.7689 35.1181C36.9618 34.6954 37.1071 34.2676 37.1092 33.7635C37.1113 33.2821 36.9814 32.8226 36.8101 32.3405L34.9255 33.0101ZM34.6617 29.285C34.3861 30.3911 34.5105 31.8417 34.9255 33.01L36.8101 32.3405C36.5012 31.4711 36.4387 30.4255 36.6023 29.7685L34.6617 29.285ZM39.5493 24.6295C37.1366 25.1781 35.2455 26.942 34.6617 29.285L36.6023 29.7686C36.9914 28.2074 38.2646 26.9726 39.9927 26.5797L39.5493 24.6295ZM41.1693 24.0485C40.9263 24.2578 40.893 24.2747 40.7987 24.3114C40.6214 24.3805 40.3264 24.4528 39.5493 24.6295L39.9927 26.5797C40.6979 26.4194 41.174 26.3116 41.5243 26.1752C41.9578 26.0064 42.2088 25.7926 42.4744 25.5639L41.1693 24.0485ZM41.5675 23.5575C41.5145 23.6911 41.4431 23.8126 41.1691 24.0486L42.4746 25.5638C42.9132 25.1859 43.2207 24.8136 43.4264 24.2954L41.5675 23.5575ZM41.5669 16.2327C41.6672 16.4405 41.7838 16.8863 41.8701 17.5612C41.9526 18.2069 41.997 18.974 41.9999 19.7604C42.0027 20.5462 41.9639 21.3333 41.8855 22.0181C41.8049 22.721 41.6895 23.2501 41.5675 23.5575L43.4264 24.2954C43.6466 23.7407 43.7856 23.0032 43.8724 22.2458C43.9613 21.4703 44.0029 20.6036 43.9998 19.7532C43.9968 18.9033 43.949 18.0518 43.8539 17.3076C43.7625 16.5926 43.616 15.8773 43.3683 15.3638L41.5669 16.2327ZM40.892 15.516C41.0974 15.6161 41.4259 15.9405 41.567 16.2328L43.3683 15.3637C43.0532 14.7107 42.4193 14.0354 41.768 13.7181L40.892 15.516ZM40.2418 15.3421C40.3822 15.3697 40.5406 15.4084 40.6781 15.4477C40.7465 15.4673 40.804 15.4854 40.8475 15.5004C40.8975 15.5177 40.9072 15.5234 40.8917 15.5159L41.7684 13.7183C41.4936 13.5842 40.9833 13.4495 40.6275 13.3796L40.2418 15.3421ZM34.8539 10.6146C35.5395 13.1279 37.5423 14.8115 40.2418 15.3421L40.6275 13.3796C38.5658 12.9744 37.2416 11.7681 36.7833 10.0882L34.8539 10.6146ZM35.028 7.06506C34.8289 7.56633 34.7335 8.22957 34.7054 8.82126C34.6771 9.4169 34.71 10.0872 34.8538 10.6146L36.7834 10.0883C36.7173 9.84623 36.6796 9.41058 36.7031 8.91627C36.7268 8.418 36.8058 8.00728 36.8868 7.80316L35.028 7.06506ZM35.0723 5.75594C35.1966 6.0128 35.2309 6.55398 35.028 7.06511L36.8868 7.8031C37.2475 6.89464 37.2936 5.75426 36.8723 4.88428L35.0723 5.75594ZM33.8987 4.63667C34.4014 5.00505 34.6479 5.20337 34.7997 5.35602C34.9185 5.4754 34.9808 5.56707 35.0723 5.75599L36.8723 4.88423C36.7079 4.54482 36.527 4.25647 36.2176 3.94542C35.9412 3.66764 35.5744 3.38511 35.0809 3.02348L33.8987 4.63667ZM28.1072 1.81503C28.5338 1.84873 29.4679 2.16204 30.6404 2.72225C31.7686 3.26129 32.9736 3.95873 33.8987 4.63668L35.0809 3.02348C34.0356 2.25747 32.7188 1.49872 31.5026 0.917652C30.3308 0.357758 29.0982 -0.112928 28.2646 -0.178759L28.1072 1.81503ZM26.3532 2.71949C26.9472 2.18798 27.2366 1.97831 27.4448 1.882C27.588 1.8158 27.7253 1.78489 28.1072 1.81504L28.2646 -0.178763C27.7091 -0.222609 27.1839 -0.200879 26.6052 0.0667657C26.0917 0.3043 25.6 0.709674 25.0196 1.22899L26.3532 2.71949ZM24.4236 4.09963C25.0685 3.7992 25.562 3.4274 26.3532 2.71949L25.0196 1.22899C24.275 1.89518 23.9557 2.11124 23.579 2.28672L24.4236 4.09963ZM18.6126 4.10028C20.4995 4.96613 22.5551 4.96975 24.4235 4.0997L23.5792 2.28665C22.2509 2.90519 20.809 2.90763 19.4467 2.28252L18.6126 4.10028ZM16.6627 2.71472C17.4758 3.44786 17.923 3.78383 18.6126 4.10027L19.4467 2.28252C19.0285 2.09059 18.7577 1.91074 18.002 1.22936L16.6627 2.71472ZM15.5975 1.88765C15.692 1.91804 15.8745 2.00399 16.6627 2.7147L18.002 1.22939C17.2684 0.567855 16.779 0.166571 16.2093 -0.0164739L15.5975 1.88765ZM14.2883 1.9437C14.8169 1.76781 15.2359 1.77153 15.5976 1.88769L16.2091 -0.0165117C15.3776 -0.283572 14.5181 -0.24062 13.6568 0.0460286L14.2883 1.9437ZM16.2531 22.6423C15.4721 23.4233 15.4721 24.6897 16.2531 25.4707L17.6673 24.0565V24.0565L16.2531 22.6423ZM19.339 19.5564L16.2531 22.6423L17.6673 24.0565L20.7532 20.9706L19.339 19.5564ZM20.7532 19.5564L17.5713 16.3745L16.1571 17.7887L19.339 20.9706L20.7532 19.5564ZM17.5713 16.3745L17.5713 16.3745L16.1571 14.9603C15.376 15.7414 15.376 17.0077 16.1571 17.7887L17.5713 16.3745ZM17.5713 16.3745H17.5713L18.9855 14.9603C18.2045 14.1793 16.9381 14.1793 16.1571 14.9603L17.5713 16.3745ZM17.5713 16.3745L20.7532 19.5564L22.1674 18.1422L18.9855 14.9603L17.5713 16.3745ZM23.8389 15.0565L20.7532 18.1422L22.1674 19.5564L25.2531 16.4707L23.8389 15.0565ZM26.6673 15.0565C25.8863 14.2754 24.62 14.2754 23.8389 15.0565L25.2531 16.4707L25.2531 16.4707L26.6673 15.0565ZM26.6673 17.8849C27.4484 17.1039 27.4484 15.8375 26.6673 15.0565L25.2531 16.4707L26.6673 17.8849ZM23.5816 20.9706L26.6673 17.8849L25.2531 16.4707L22.1674 19.5564L23.5816 20.9706ZM22.1674 20.9706L25.1571 23.9603L26.5713 22.5461L23.5816 19.5564L22.1674 20.9706ZM25.1571 23.9603V23.9603L26.5713 25.3745C27.3524 24.5935 27.3524 23.3271 26.5713 22.5461L25.1571 23.9603ZM25.1571 23.9603H25.1571L23.7429 25.3745C24.5239 26.1556 25.7903 26.1556 26.5713 25.3745L25.1571 23.9603ZM25.1571 23.9603L22.1674 20.9706L20.7532 22.3848L23.7429 25.3745L25.1571 23.9603ZM19.0815 25.4707L22.1674 22.3848L20.7532 20.9706L17.6673 24.0565L19.0815 25.4707ZM16.2531 25.4707C17.0342 26.2518 18.3005 26.2518 19.0815 25.4707L17.6673 24.0565H17.6673L16.2531 25.4707Z" fill="#565879" mask="url(#path-1-inside-1_602_7862)"/>
<defs>
<linearGradient id="paint0_linear_602_7862" x1="2.52941" y1="2.49275" x2="31.4784" y2="36.5504" gradientUnits="userSpaceOnUse">
<stop offset="0.28125" stop-color="#484963"/>
<stop offset="0.515625" stop-color="#525372"/>
<stop offset="0.765625" stop-color="#484963"/>
</linearGradient>
</defs>
</svg>