<svg  viewBox="0 0 33 32" fill="none" xmlns="http://www.w3.org/2000/svg">
<path d="M2.69398 23.4708C3.04628 26.7639 5.69474 29.4123 8.98607 29.7792C14.0416 30.3426 18.9584 30.3426 24.0138 29.7792C27.3053 29.4123 29.9537 26.7639 30.3059 23.4708C30.5661 21.0399 30.7857 18.5443 30.7857 15.9999C30.7857 13.4556 30.5661 10.9599 30.3059 8.52899C29.9537 5.23608 27.3053 2.5876 24.0138 2.22073C18.9584 1.65722 14.0416 1.65722 8.98607 2.22073C5.69474 2.5876 3.04628 5.23608 2.69398 8.52899C2.4339 10.9599 2.21428 13.4556 2.21428 15.9999C2.21428 18.5443 2.4339 21.0399 2.69398 23.4708Z" fill="#9092AF" fill-opacity="0.1" stroke="currentColor" stroke-width="1.71429"/>
<path d="M16.5 10.2858V21.7143" stroke="currentColor" stroke-width="1.71429" stroke-linecap="round"/>
<path d="M22.2143 16H10.7857" stroke="currentColor" stroke-width="1.71429" stroke-linecap="round"/>
</svg>
