<svg width="25" height="24" viewBox="0 0 25 24" fill="none" xmlns="http://www.w3.org/2000/svg">
<path d="M18.8874 22.7144V14.4727" stroke="currentColor" stroke-width="1.71429" stroke-linecap="round" stroke-linejoin="round"/>
<path d="M14.7665 18.594H23.0082" stroke="currentColor" stroke-width="1.71429" stroke-linecap="round" stroke-linejoin="round"/>
<path d="M2.1301 7.56159C2.23173 8.51148 2.9957 9.27545 3.94513 9.38129C4.65033 9.45989 5.3744 9.5274 6.1126 9.5274C6.85082 9.5274 7.57489 9.45989 8.28009 9.38129C9.2295 9.27547 9.99349 8.51148 10.0951 7.56159C10.1701 6.86038 10.2335 6.14047 10.2335 5.40652C10.2335 4.67258 10.1701 3.95266 10.0951 3.25145C9.99349 2.30157 9.2295 1.53759 8.28009 1.43176C7.57489 1.35316 6.85082 1.28564 6.1126 1.28564C5.3744 1.28564 4.65033 1.35316 3.94513 1.43176C2.9957 1.53759 2.23173 2.30157 2.1301 3.25145C2.05508 3.95266 1.99173 4.67258 1.99173 5.40652C1.99173 6.14047 2.05508 6.86038 2.1301 7.56159Z" fill="transparent" stroke="currentColor" stroke-width="1.71429" stroke-linecap="round" stroke-linejoin="round"/>
<path d="M2.1301 20.7485C2.23173 21.6984 2.9957 22.4625 3.94513 22.5682C4.65033 22.6469 5.3744 22.7145 6.1126 22.7145C6.85082 22.7145 7.57489 22.6469 8.28009 22.5682C9.2295 22.4625 9.99349 21.6984 10.0951 20.7485C10.1701 20.0474 10.2335 19.3276 10.2335 18.5935C10.2335 17.8596 10.1701 17.1397 10.0951 16.4385C9.99349 15.4886 9.2295 14.7246 8.28009 14.6188C7.57489 14.5402 6.85082 14.4727 6.1126 14.4727C5.3744 14.4727 4.65033 14.5402 3.94513 14.6188C2.9957 14.7246 2.23173 15.4886 2.1301 16.4385C2.05508 17.1397 1.99173 17.8596 1.99173 18.5935C1.99173 19.3276 2.05508 20.0474 2.1301 20.7485Z" fill="transparent" stroke="currentColor" stroke-width="1.71429" stroke-linecap="round" stroke-linejoin="round"/>
<path d="M14.9049 7.56159C15.0065 8.51148 15.7705 9.27545 16.7199 9.38129C17.4251 9.45989 18.1493 9.5274 18.8874 9.5274C19.6256 9.5274 20.3497 9.45989 21.055 9.38129C22.0043 9.27547 22.7682 8.51148 22.8699 7.56159C22.945 6.86038 23.0082 6.14047 23.0082 5.40652C23.0082 4.67258 22.945 3.95266 22.8699 3.25145C22.7682 2.30157 22.0043 1.53759 21.055 1.43176C20.3497 1.35316 19.6256 1.28564 18.8874 1.28564C18.1493 1.28564 17.4251 1.35316 16.7199 1.43176C15.7705 1.53759 15.0065 2.30157 14.9049 3.25145C14.8299 3.95266 14.7665 4.67258 14.7665 5.40652C14.7665 6.14047 14.8299 6.86038 14.9049 7.56159Z" fill="transparent" stroke="currentColor" stroke-width="1.71429" stroke-linecap="round" stroke-linejoin="round"/>
</svg>
