<svg viewBox="0 0 33 32" fill="none" xmlns="http://www.w3.org/2000/svg">
<path d="M16.4996 30.5857C24.5551 30.5857 31.0854 24.0556 31.0854 16C31.0854 7.94456 24.5551 1.41431 16.4996 1.41431C8.44417 1.41431 1.91391 7.94456 1.91391 16C1.91391 24.0556 8.44417 30.5857 16.4996 30.5857Z" fill="none"/>
<path d="M5.44379 24.2597C7.96047 27.6229 11.9758 29.7996 16.4995 29.7996C24.1208 29.7996 30.2991 23.6213 30.2991 16C30.2991 9.39462 25.6582 3.87316 19.459 2.51855" stroke="#51526D" stroke-width="1.71429" stroke-linecap="round" stroke-linejoin="round"/>
<path d="M2.69992 16C2.69992 17.5178 2.94497 18.9784 3.39765 20.3443" stroke="#51526D" stroke-width="1.71429" stroke-linecap="round" stroke-linejoin="round"/>
<path d="M3.57547 11.1521C4.12205 9.69566 4.90779 8.35614 5.88484 7.1814" stroke="#51526D" stroke-width="1.71429" stroke-linecap="round" stroke-linejoin="round"/>
<path d="M9.5975 4.04781C11.0345 3.21618 12.6354 2.63627 14.3399 2.36841" stroke="#51526D" stroke-width="1.71429" stroke-linecap="round" stroke-linejoin="round"/>
<path d="M16.4521 10.9512L16.4522 21.0489" stroke="currentColor" stroke-width="1.71429" stroke-linecap="round"/>
<path d="M10.3743 13.3596V18.6404" stroke="currentColor" stroke-width="1.71429" stroke-linecap="round"/>
<path d="M22.6257 13.3596V18.6404" stroke="currentColor" stroke-width="1.71429" stroke-linecap="round"/>
</svg>
