<svg viewBox="0 0 24 24" fill="none" xmlns="http://www.w3.org/2000/svg">
<path d="M2.89282 2.68773C2.13746 2.88962 1.58583 3.56245 1.55016 4.34351C1.43831 6.79295 1.28564 9.35797 1.28564 11.9998C1.28564 14.6417 1.43831 17.2067 1.55016 19.6561C1.58583 20.4373 2.13746 21.11 2.89282 21.3119C3.68443 21.5234 4.50164 21.724 5.33739 21.724C6.17312 21.724 6.99034 21.5234 7.78195 21.3119C8.53731 21.11 9.08894 20.4373 9.12461 19.6561C9.23647 17.2067 9.38912 14.6417 9.38912 11.9998C9.38912 9.35797 9.23647 6.79295 9.12461 4.34351C9.08895 3.56245 8.53733 2.88962 7.78195 2.68773C6.99034 2.47615 6.17312 2.27563 5.33739 2.27563C4.50164 2.27563 3.68443 2.47615 2.89282 2.68773Z" stroke="currentColor" stroke-width="1.71429"/>
<path d="M14.627 12H22.7144" stroke="currentColor" stroke-width="1.71429" stroke-linecap="round" stroke-linejoin="round"/>
<path d="M19.5059 15.2086C20.9135 14.0552 21.617 13.3519 22.7143 12C21.617 10.6482 20.9135 9.94488 19.5059 8.7915" stroke="currentColor" stroke-width="1.71429" stroke-linecap="round" stroke-linejoin="round"/>
</svg>
