<svg viewBox="0 0 33 32" fill="none" xmlns="http://www.w3.org/2000/svg">
<path d="M2.69393 23.4708C3.04623 26.7638 5.69469 29.4123 8.98603 29.7792C11.4307 30.0516 13.9408 30.2857 16.4999 30.2857C19.0591 30.2857 21.5692 30.0516 24.0138 29.7792C27.3052 29.4123 29.9537 26.7638 30.3059 23.4708C30.566 21.04 30.7857 18.5443 30.7857 15.9999C30.7857 13.4556 30.566 10.9599 30.3059 8.52902C29.9537 5.23611 27.3052 2.58763 24.0138 2.22077C21.5692 1.94827 19.0591 1.71423 16.4999 1.71423C13.9408 1.71423 11.4307 1.94827 8.98603 2.22077C5.69469 2.58763 3.04623 5.23611 2.69393 8.52902C2.43385 10.9599 2.21423 13.4556 2.21423 15.9999C2.21423 18.5443 2.43385 21.04 2.69393 23.4708Z" fill="#9092AF" fill-opacity="0.1" stroke="currentColor" stroke-width="1.71429"/>
<path d="M9.72241 12.485H23.2775L18.7459 7.95337" stroke="currentColor" stroke-width="1.71429" stroke-linecap="round" stroke-linejoin="round"/>
<path d="M23.2775 19.515H9.72241L14.254 24.0467" stroke="currentColor" stroke-width="1.71429" stroke-linecap="round" stroke-linejoin="round"/>
</svg>
