<svg viewBox="0 0 24 24" fill="none" xmlns="http://www.w3.org/2000/svg">
<path d="M14.2827 3.1453C13.2499 3.05815 12.2024 3 11.1428 3C9.43639 3 7.76163 3.15081 6.12864 3.33062C3.75854 3.59162 1.84887 5.50154 1.5985 7.87277C1.42709 9.49618 1.28564 11.161 1.28564 12.8571C1.28564 14.5533 1.42709 16.2181 1.5985 17.8414C1.84887 20.2128 3.75854 22.1227 6.12864 22.3836C7.76163 22.5634 9.43639 22.7143 11.1428 22.7143C12.8492 22.7143 14.5239 22.5634 16.1569 22.3836C18.5271 22.1227 20.4366 20.2128 20.6871 17.8414C20.8585 16.2181 20.9999 14.5533 20.9999 12.8571C20.9999 11.5877 20.9207 10.3358 20.809 9.10572" stroke="currentColor" stroke-width="1.71429" stroke-linecap="round"/>
<path d="M6.85718 11.143L11.8442 16.2858C14.1909 9.54475 16.1453 6.5867 20.5715 2.57153" stroke="currentColor" stroke-width="1.71429" stroke-linecap="round" stroke-linejoin="round"/>
</svg>
