<svg width="16" height="16" viewBox="0 0 16 16" fill="none" xmlns="http://www.w3.org/2000/svg">
<g clip-path="url(#clip0_705_3588)">
<path d="M13.2093 8.82973C13.2092 8.88749 13.2286 8.94361 13.2644 8.98889L14.0266 9.949C14.1646 10.1216 14.2472 10.3317 14.2636 10.5519C14.2802 10.7722 14.23 10.9923 14.1195 11.1836L13.6726 11.957C13.5623 12.1484 13.397 12.3021 13.198 12.398C12.9991 12.4939 12.7758 12.5277 12.5574 12.4946L11.3432 12.31C11.2858 12.302 11.2274 12.3131 11.1769 12.3416L9.73828 13.1722C9.6883 13.2015 9.64953 13.2468 9.62809 13.3007L9.18018 14.4435C9.09997 14.6488 8.95971 14.8254 8.77771 14.9498C8.59569 15.0743 8.38039 15.1411 8.15987 15.1413H7.26609C7.04557 15.1411 6.83026 15.0743 6.64825 14.9498C6.46623 14.8254 6.32597 14.6488 6.24578 14.4435L5.79786 13.3007C5.77643 13.2468 5.73766 13.2015 5.68767 13.1722L4.24904 12.3416C4.19862 12.3129 4.14014 12.3019 4.08272 12.31L2.86856 12.4946C2.65016 12.5277 2.42689 12.4939 2.22794 12.398C2.02899 12.3021 1.86359 12.1484 1.75337 11.957L1.30648 11.1836C1.19596 10.9923 1.1457 10.7722 1.16227 10.5519C1.17883 10.3317 1.26145 10.1216 1.39932 9.949L2.16557 8.98889C2.20143 8.94361 2.22085 8.88749 2.22067 8.82973V7.16866C2.22085 7.11091 2.20143 7.05479 2.16557 7.0095L1.39932 6.04939C1.26145 5.87683 1.17883 5.6667 1.16227 5.44645C1.1457 5.2262 1.19596 5.00607 1.30648 4.81482L1.75337 4.04143C1.86359 3.85002 2.02899 3.69631 2.22794 3.60038C2.42689 3.50446 2.65016 3.47077 2.86856 3.50373L4.07966 3.68841C4.13707 3.69654 4.19556 3.68541 4.24598 3.65678L5.68767 2.82216C5.73766 2.79274 5.77643 2.74751 5.79786 2.6936L6.24781 1.55494C6.32802 1.34953 6.46828 1.17307 6.65029 1.04857C6.8323 0.92408 7.04761 0.857337 7.26812 0.857056H8.16395C8.38447 0.857337 8.59977 0.92408 8.78179 1.04857C8.96379 1.17307 9.10405 1.34953 9.18426 1.55494L9.63217 2.6936C9.65283 2.74902 9.69167 2.79579 9.74236 2.82624L11.181 3.65678C11.2314 3.68534 11.2899 3.69646 11.3473 3.68841L12.5615 3.50373C12.7799 3.47077 13.0032 3.50446 13.2021 3.60038C13.4011 3.69631 13.5664 3.85002 13.6767 4.04143L14.1235 4.81482C14.234 5.00607 14.2843 5.2262 14.2677 5.44645C14.2512 5.6667 14.1686 5.87683 14.0307 6.04939L13.2644 7.0095C13.2286 7.05479 13.2092 7.11091 13.2093 7.16866V8.82973Z" stroke="currentColor" stroke-width="1.14274"/>
<path d="M7.71508 11.2881C9.53145 11.2881 11.0039 9.81562 11.0039 7.99926C11.0039 6.1829 9.53145 4.71045 7.71508 4.71045C5.89872 4.71045 4.42627 6.1829 4.42627 7.99926C4.42627 9.81562 5.89872 11.2881 7.71508 11.2881Z" stroke="currentColor" stroke-width="1.14274"/>
<path d="M6.40234 5.00842L7.71472 7.9992" stroke="currentColor" stroke-width="1.14274" stroke-linecap="round" stroke-linejoin="round"/>
<path d="M11.0032 7.99915H7.71484" stroke="currentColor" stroke-width="1.14274" stroke-linecap="round" stroke-linejoin="round"/>
<path d="M7.71524 7.99915L5.39404 10.3203" stroke="currentColor" stroke-width="1.14274" stroke-linecap="round" stroke-linejoin="round"/>
</g>
<defs>
<clipPath id="clip0_705_3588">
<rect width="15.9984" height="15.9984" fill="white" transform="translate(0.00146484)"/>
</clipPath>
</defs>
</svg>
