<svg viewBox="0 0 24 24" fill="none" xmlns="http://www.w3.org/2000/svg">
<path d="M20.2423 13.2459C20.2421 13.3326 20.2712 13.4167 20.3249 13.4847L21.4683 14.925C21.6752 15.1839 21.7992 15.4991 21.8239 15.8295C21.8487 16.1599 21.7735 16.4902 21.6077 16.777L20.9372 17.9372C20.7718 18.2244 20.5237 18.455 20.2253 18.5988C19.9268 18.7428 19.5919 18.7934 19.2643 18.7438L17.4428 18.4668C17.3568 18.4548 17.269 18.4714 17.1934 18.5143L15.0352 19.7602C14.9602 19.8043 14.902 19.8722 14.8699 19.9531L14.1979 21.6674C14.0776 21.9754 13.8672 22.2403 13.5942 22.427C13.3211 22.6136 12.9981 22.7139 12.6673 22.7143H11.3265C10.9957 22.7139 10.6727 22.6136 10.3997 22.427C10.1266 22.2403 9.91619 21.9754 9.79588 21.6674L9.12393 19.9531C9.09179 19.8722 9.03362 19.8043 8.95864 19.7602L6.80048 18.5143C6.72484 18.4712 6.6371 18.4546 6.55098 18.4668L4.72955 18.7438C4.40192 18.7934 4.06698 18.7428 3.76852 18.5988C3.47006 18.455 3.22194 18.2244 3.0566 17.9372L2.38619 16.777C2.2204 16.4902 2.14501 16.1599 2.16986 15.8295C2.1947 15.4991 2.31865 15.1839 2.52548 14.925L3.67496 13.4847C3.72875 13.4167 3.75789 13.3326 3.75762 13.2459V10.7541C3.75789 10.6674 3.72875 10.5832 3.67496 10.5153L2.52548 9.07499C2.31865 8.81612 2.1947 8.50089 2.16986 8.17048C2.14501 7.84007 2.2204 7.50985 2.38619 7.22295L3.0566 6.06275C3.22194 5.77561 3.47006 5.54502 3.76852 5.40111C4.06698 5.25721 4.40192 5.20667 4.72955 5.25611L6.54638 5.53316C6.63251 5.54536 6.72025 5.52867 6.79588 5.48571L8.95864 4.23366C9.03362 4.18952 9.09179 4.12167 9.12393 4.0408L9.79893 2.33264C9.91926 2.02449 10.1297 1.75977 10.4027 1.57301C10.6758 1.38625 10.9987 1.28613 11.3295 1.28571H12.6734C13.0042 1.28613 13.3272 1.38625 13.6003 1.57301C13.8733 1.75977 14.0837 2.02449 14.204 2.33264L14.876 4.0408C14.907 4.12393 14.9652 4.19409 15.0413 4.23978L17.1994 5.48571C17.2752 5.52856 17.3628 5.54524 17.449 5.53316L19.2704 5.25611C19.598 5.20667 19.933 5.25721 20.2315 5.40111C20.5299 5.54502 20.778 5.77561 20.9434 6.06275L21.6137 7.22295C21.7795 7.50985 21.8549 7.84007 21.83 8.17048C21.8052 8.50089 21.6812 8.81612 21.4745 9.07499L20.3249 10.5153C20.2712 10.5832 20.2421 10.6674 20.2423 10.7541V13.2459Z" stroke="currentColor" stroke-width="1.71429"/>
<path d="M9.70844 14.7952V9.40278C9.70844 8.8016 10.3126 8.38667 10.8646 8.62466C12.8297 9.4718 14.0336 10.2928 15.5305 11.596C15.8979 11.9158 15.9148 12.4813 15.5621 12.8171C13.9187 14.3815 12.6498 15.1101 10.7309 15.6097C10.2065 15.7462 9.70844 15.3372 9.70844 14.7952Z" stroke="currentColor" stroke-width="1.71429" stroke-linecap="round" stroke-linejoin="round"/>
</svg>
