<svg viewBox="0 0 24 24" fill="none" xmlns="http://www.w3.org/2000/svg">
<g clip-path="url(#clip0_15_5673)">
<path d="M1.94151 15.3262C1.58284 14.2616 1.38843 13.1215 1.38843 11.936C1.38843 6.07541 6.13937 1.32446 12 1.32446C17.8606 1.32446 22.6116 6.07541 22.6116 11.936C22.6116 13.1215 22.4172 14.2616 22.0584 15.3262" stroke="currentColor" stroke-width="1.71429" stroke-linecap="round"/>
<path d="M12.0024 13.9505C14.1706 13.9505 15.9282 12.1929 15.9282 10.0248C15.9282 7.85664 14.1706 6.099 12.0024 6.099C9.83428 6.099 8.07666 7.85664 8.07666 10.0248C8.07666 12.1929 9.83428 13.9505 12.0024 13.9505Z" stroke="currentColor" stroke-width="1.71429" stroke-linecap="round" stroke-linejoin="round"/>
<path d="M17.4227 18.5616C19.6919 19.871 18.2538 22.6755 15.6339 22.6755H8.3663C5.74643 22.6755 4.30835 19.871 6.5776 18.5616C8.17348 17.6408 10.0253 17.114 12.0001 17.114C13.975 17.114 15.8268 17.6408 17.4227 18.5616Z" stroke="currentColor" stroke-width="1.71429"/>
</g>
<defs>
<clipPath id="clip0_15_5673">
<rect width="24" height="24" fill="white"/>
</clipPath>
</defs>
</svg>
