<svg viewBox="0 0 24 24" fill="none" xmlns="http://www.w3.org/2000/svg">
<g clip-path="url(#clip0_1065_1663)">
<path d="M1.52741 10.975C1.63307 12.4273 2.42738 13.5954 3.4145 13.7572C4.1477 13.8774 4.90049 13.9806 5.66803 13.9806C6.43557 13.9806 7.18836 13.8774 7.92156 13.7572C8.90868 13.5954 9.70298 12.4273 9.80865 10.975C9.88665 9.90295 9.95251 8.80226 9.95251 7.68012C9.95251 6.55796 9.88665 5.45729 9.80865 4.38519C9.70298 2.9329 8.90866 1.76484 7.92156 1.60304C7.18836 1.48286 6.43557 1.37964 5.66803 1.37964C4.90049 1.37964 4.1477 1.48286 3.4145 1.60304C2.42738 1.76484 1.63307 2.9329 1.52741 4.38519C1.44941 5.45729 1.38354 6.55796 1.38354 7.68012C1.38354 8.80226 1.44941 9.90295 1.52741 10.975Z" fill="currentColor" fill-opacity="0.3" stroke="currentColor" stroke-width="1.71429"/>
<path d="M22.5096 13.0944C22.4038 11.6431 21.6077 10.4758 20.6184 10.3141C19.8835 10.194 19.129 10.0908 18.3598 10.0908C17.5906 10.0908 16.8361 10.194 16.1013 10.3141C15.112 10.4758 14.3159 11.6431 14.21 13.0944C14.1318 14.1658 14.0658 15.2658 14.0658 16.3872C14.0658 17.5087 14.1318 18.6086 14.21 19.68C14.3159 21.1313 15.112 22.2988 16.1013 22.4604C16.8361 22.5804 17.5906 22.6836 18.3598 22.6836C19.129 22.6836 19.8835 22.5804 20.6184 22.4604C21.6077 22.2988 22.4038 21.1313 22.5096 19.68C22.5878 18.6086 22.654 17.5087 22.654 16.3872C22.654 15.2658 22.5878 14.1658 22.5096 13.0944Z" fill="currentColor" fill-opacity="0.3" stroke="currentColor" stroke-width="1.71429"/>
<path d="M1.52741 21.5976C1.63307 22.1224 2.42738 22.5444 3.4145 22.6029C4.1477 22.6464 4.90049 22.6836 5.66803 22.6836C6.43555 22.6836 7.18836 22.6464 7.92156 22.6029C8.90866 22.5444 9.70298 22.1224 9.80865 21.5976C9.88665 21.2102 9.95251 20.8123 9.95251 20.4069C9.95251 20.0013 9.88665 19.6036 9.80865 19.2161C9.70298 18.6914 8.90866 18.2693 7.92156 18.2109C7.18836 18.1673 6.43555 18.1301 5.66803 18.1301C4.90049 18.1301 4.1477 18.1673 3.4145 18.2109C2.42738 18.2693 1.63307 18.6914 1.52741 19.2161C1.44941 19.6036 1.38354 20.0013 1.38354 20.4069C1.38354 20.8123 1.44941 21.2102 1.52741 21.5976Z" stroke="currentColor" stroke-width="1.71429"/>
<path d="M22.5096 2.46574C22.4038 1.94093 21.6077 1.51884 20.6184 1.46037C19.8835 1.41694 19.129 1.37964 18.3598 1.37964C17.5906 1.37964 16.8361 1.41694 16.1013 1.46037C15.112 1.51884 14.3159 1.94093 14.21 2.46574C14.1318 2.85317 14.0658 3.25092 14.0658 3.65642C14.0658 4.06193 14.1318 4.45968 14.21 4.84711C14.3159 5.3719 15.112 5.79401 16.1013 5.85248C16.8361 5.89591 17.5906 5.93321 18.3598 5.93321C19.129 5.93321 19.8835 5.89591 20.6184 5.85248C21.6077 5.79401 22.4038 5.3719 22.5096 4.84711C22.5878 4.45968 22.654 4.06193 22.654 3.65642C22.654 3.25092 22.5878 2.85317 22.5096 2.46574Z" stroke="currentColor" stroke-width="1.71429"/>
</g>
<defs>
<clipPath id="clip0_1065_1663">
<rect width="24" height="24" fill="white"/>
</clipPath>
</defs>
</svg>
