<svg viewBox="0 0 16 16" fill="none" xmlns="http://www.w3.org/2000/svg">
<g clip-path="url(#clip0_717_3389)">
<path d="M5.36806 15.1429H10.6275C11.7394 15.1429 12.6839 14.3294 12.8489 13.2298C13.141 11.2822 13.2432 9.3364 13.2325 7.38477H2.76295C2.75234 9.3364 2.85455 11.2822 3.1467 13.2298C3.31163 14.3294 4.25619 15.1429 5.36806 15.1429Z" fill="currentColor" fill-opacity="0.3"/>
<path d="M0.856934 4.08655H15.1426" stroke="currentColor" stroke-width="1.3" stroke-linecap="round"/>
<path d="M5.23438 4.08655V1.05084H10.7701V4.08655" stroke="currentColor" stroke-width="1.3" stroke-linecap="round" stroke-linejoin="round"/>
<path d="M13.2325 7.38477C13.2432 9.3364 13.141 11.2822 12.8489 13.2298C12.6839 14.3294 11.7394 15.1429 10.6275 15.1429H5.36806C4.25619 15.1429 3.31163 14.3294 3.1467 13.2298C2.85455 11.2822 2.75234 9.3364 2.76295 7.38477" stroke="currentColor" stroke-width="1.3" stroke-linecap="round" stroke-linejoin="round"/>
</g>
<defs>
<clipPath id="clip0_717_3389">
<rect width="16" height="16" fill="white"/>
</clipPath>
</defs>
</svg>
