<svg viewBox="0 0 16 16" fill="none" xmlns="http://www.w3.org/2000/svg">
<path fill-rule="evenodd" clip-rule="evenodd" d="M8.00004 1.33333C8.36823 1.33333 8.66671 1.63181 8.66671 2V8.39052L10.862 6.19526C11.1223 5.93491 11.5444 5.93491 11.8048 6.19526C12.0651 6.45561 12.0651 6.87772 11.8048 7.13807L8.47145 10.4714C8.2111 10.7318 7.78899 10.7318 7.52864 10.4714L4.1953 7.13807C3.93495 6.87772 3.93495 6.45561 4.1953 6.19526C4.45565 5.93491 4.87776 5.93491 5.13811 6.19526L7.33337 8.39052V2C7.33337 1.63181 7.63185 1.33333 8.00004 1.33333ZM2.00004 9.33333C2.36823 9.33333 2.66671 9.63181 2.66671 10V12.6667C2.66671 12.8435 2.73695 13.013 2.86197 13.1381C2.98699 13.2631 3.15656 13.3333 3.33337 13.3333H12.6667C12.8435 13.3333 13.0131 13.2631 13.1381 13.1381C13.2631 13.013 13.3334 12.8435 13.3334 12.6667V10C13.3334 9.63181 13.6319 9.33333 14 9.33333C14.3682 9.33333 14.6667 9.63181 14.6667 10V12.6667C14.6667 13.1971 14.456 13.7058 14.0809 14.0809C13.7058 14.456 13.1971 14.6667 12.6667 14.6667H3.33337C2.80294 14.6667 2.29423 14.456 1.91916 14.0809C1.54409 13.7058 1.33337 13.1971 1.33337 12.6667V10C1.33337 9.63181 1.63185 9.33333 2.00004 9.33333Z" fill="currentColor"/>
</svg>
