<svg viewBox="0 0 24 24" fill="none" xmlns="http://www.w3.org/2000/svg">
<path d="M15.4286 22.5008C16.7425 22.5008 18.0357 22.4173 19.2873 22.2846C20.7676 22.1278 21.9369 20.9633 22.0865 19.4821C22.2124 18.2374 22.2857 16.9496 22.2857 15.6436C22.2857 14.3377 22.2124 13.05 22.0865 11.8051C21.9369 10.3241 20.7676 9.15953 19.2873 9.00262C18.0357 8.86993 16.7425 8.7865 15.4286 8.7865C14.1146 8.7865 12.8216 8.86993 11.5698 9.00262C10.0896 9.15953 8.92032 10.3241 8.77068 11.8051C8.6449 13.05 8.57144 14.3377 8.57144 15.6436C8.57144 16.9496 8.6449 18.2374 8.77068 19.4821C8.92032 20.9633 10.0896 22.1278 11.5698 22.2846C12.8216 22.4173 14.1146 22.5008 15.4286 22.5008Z" stroke="currentColor" stroke-width="1.71429"/>
<path d="M9.42858 17.358C10.9068 17.358 12.3615 17.2641 13.7697 17.1149C15.435 16.9384 16.7504 15.6282 16.9187 13.9621C17.0602 12.5616 17.1429 11.1129 17.1429 9.64373C17.1429 8.17452 17.0602 6.72584 16.9187 5.32534C16.7504 3.65921 15.435 2.3491 13.7697 2.17258C12.3615 2.0233 10.9068 1.92944 9.42858 1.92944C7.95039 1.92944 6.4957 2.0233 5.0875 2.17258C3.42221 2.3491 2.10678 3.65921 1.93844 5.32534C1.79693 6.72584 1.71429 8.17452 1.71429 9.64373C1.71429 11.1129 1.79693 12.5616 1.93844 13.9621C2.10678 15.6282 3.42221 16.9384 5.0875 17.1149C6.4957 17.2641 7.95039 17.358 9.42858 17.358Z" stroke="currentColor" stroke-width="1.71429"/>
<path d="M3.08905 3.08289L15.9895 15.9833" stroke="currentColor" stroke-width="1.71429" stroke-linecap="round" stroke-linejoin="round"/>
<path d="M8.57144 1.92944L15.4286 8.78659" stroke="currentColor" stroke-width="1.71429" stroke-linecap="round" stroke-linejoin="round"/>
<path d="M1.71429 8.7865L8.57144 15.6436" stroke="currentColor" stroke-width="1.71429" stroke-linecap="round" stroke-linejoin="round"/>
</svg>
