<svg viewBox="0 0 24 24" fill="none" xmlns="http://www.w3.org/2000/svg">
<path d="M10.9273 4.13171C9.43711 4.19883 7.97542 4.36199 6.55017 4.52686C4.90528 4.71713 3.5898 6.03197 3.40598 7.67758C3.19934 9.52743 2.99994 11.4388 2.99994 13.3943C2.99994 15.3498 3.19934 17.2612 3.40598 19.111C3.5898 20.7566 4.90527 22.0714 6.55015 22.2617C8.40881 22.4767 10.3294 22.6889 12.2945 22.6889C14.2595 22.6889 16.1801 22.4767 18.0388 22.2617C19.6837 22.0714 20.9991 20.7568 21.183 19.111C21.3317 17.7804 21.4765 16.4179 21.5461 15.03" stroke="currentColor" stroke-width="1.71429" stroke-linecap="round"/>
<path d="M17.2005 3.23312L10.8836 10.4008L10.0182 14.4711C9.87895 15.126 10.5616 15.7457 11.201 15.5447L15.2515 14.2713L21.7763 7.40578C22.8599 6.26549 22.6708 4.35828 21.359 3.19803C20.0781 2.06496 18.2162 2.08067 17.2005 3.23312Z" stroke="currentColor" stroke-width="1.71429" stroke-linecap="round" stroke-linejoin="round"/>
</svg>
