<svg viewBox="0 0 25 24" fill="none" xmlns="http://www.w3.org/2000/svg">
<g clip-path="url(#clip0_38_80)">
<path d="M2.26857 18.0629C2.47241 19.7049 3.79888 21.0019 5.44447 21.174C7.72156 21.4119 10.0815 21.6633 12.5 21.6633C14.9184 21.6633 17.2784 21.4119 19.5555 21.174C21.201 21.0019 22.5275 19.7049 22.7314 18.0629C22.9748 16.1025 23.2143 14.0752 23.2143 12C23.2143 9.92475 22.9748 7.89742 22.7314 5.93707C22.5275 4.29513 21.201 2.99803 19.5555 2.826C17.2784 2.58797 14.9184 2.33664 12.5 2.33664C10.0815 2.33664 7.72154 2.58797 5.44447 2.826C3.79888 2.99803 2.47241 4.29513 2.26855 5.93707C2.02517 7.89742 1.78571 9.92475 1.78571 12C1.78571 14.0752 2.02517 16.1025 2.26857 18.0629Z" fill="currentColor" fill-opacity="0.2" stroke="currentColor" stroke-width="1.71429"/>
<path d="M2.31641 5.49317L10.3772 11.8488C11.6222 12.8305 13.3778 12.8305 14.6228 11.8488L22.6835 5.49317" stroke="currentColor" stroke-width="1.71429" stroke-linejoin="round"/>
</g>
<defs>
<clipPath id="clip0_38_80">
<rect width="24" height="24" fill="currentColor" transform="translate(0.5)"/>
</clipPath>
</defs>
</svg>
