<svg viewBox="0 0 16 16" fill="none" xmlns="http://www.w3.org/2000/svg">
<path fill-rule="evenodd" clip-rule="evenodd" d="M9.99967 2.66666C9.63148 2.66666 9.33301 2.36818 9.33301 1.99999C9.33301 1.63181 9.63148 1.33333 9.99967 1.33333H13.9997C14.3679 1.33333 14.6663 1.63181 14.6663 1.99999V6C14.6663 6.36819 14.3679 6.66666 13.9997 6.66666C13.6315 6.66666 13.333 6.36819 13.333 6V3.60947L7.13775 9.80473C6.8774 10.0651 6.45529 10.0651 6.19494 9.80473C5.93459 9.54438 5.93459 9.12227 6.19494 8.86192L12.3902 2.66666H9.99967ZM3.33301 4.66666C3.1562 4.66666 2.98663 4.7369 2.8616 4.86192C2.73658 4.98695 2.66634 5.15652 2.66634 5.33333V12.6667C2.66634 12.8435 2.73658 13.013 2.8616 13.1381C2.98663 13.2631 3.1562 13.3333 3.33301 13.3333H10.6663C10.8432 13.3333 11.0127 13.2631 11.1377 13.1381C11.2628 13.013 11.333 12.8435 11.333 12.6667V8.66666C11.333 8.29847 11.6315 8 11.9997 8C12.3679 8 12.6663 8.29847 12.6663 8.66666V12.6667C12.6663 13.1971 12.4556 13.7058 12.0806 14.0809C11.7055 14.4559 11.1968 14.6667 10.6663 14.6667H3.33301C2.80257 14.6667 2.29387 14.4559 1.91879 14.0809C1.54372 13.7058 1.33301 13.1971 1.33301 12.6667V5.33333C1.33301 4.8029 1.54372 4.29419 1.91879 3.91911C2.29387 3.54404 2.80257 3.33333 3.33301 3.33333H7.33301C7.7012 3.33333 7.99967 3.63181 7.99967 3.99999C7.99967 4.36818 7.7012 4.66666 7.33301 4.66666H3.33301Z" fill="#06E9EE"/>
</svg>
