<svg viewBox="0 0 20 20" fill="none" xmlns="http://www.w3.org/2000/svg">
<path d="M16.7241 1.01006H3.27587C2.8408 1.00938 2.41468 1.13094 2.04814 1.36031C1.6816 1.58967 1.39005 1.91719 1.20815 2.30394C1.02624 2.6907 0.961619 3.12043 1.02197 3.54207C1.08231 3.96371 1.26509 4.35954 1.54857 4.68251L6.86413 10.7496C7.05948 10.981 7.17258 11.2728 7.17258 11.5646V17.2392C7.17258 17.853 7.4913 18.4164 8.02594 18.7384C8.31383 18.9094 8.64284 19 8.97185 19C9.24945 19 9.51677 18.9396 9.77381 18.8088L11.8301 17.8027C12.447 17.5008 12.8274 16.8972 12.8274 16.223V11.5545C12.8274 11.2527 12.9405 10.9609 13.1359 10.7395L18.4514 4.67245C18.7349 4.34948 18.9177 3.95365 18.978 3.53201C19.0384 3.11037 18.9738 2.68064 18.7919 2.29388C18.6099 1.90713 18.3184 1.57961 17.9519 1.35024C17.5853 1.12088 17.1592 0.999319 16.7241 1V1.01006ZM17.2793 3.69648L11.9638 9.76356C11.5217 10.2666 11.2852 10.9005 11.2852 11.5646V16.2331C11.2852 16.3337 11.2338 16.4142 11.1413 16.4544L9.08494 17.4606C8.97185 17.521 8.87931 17.4807 8.83819 17.4505C8.79706 17.4203 8.71481 17.36 8.71481 17.2392V11.5646C8.71481 10.9005 8.47833 10.2666 8.03623 9.76356L2.72067 3.69648C2.60784 3.56755 2.54585 3.4034 2.54588 3.23365C2.54588 2.84125 2.87489 2.51929 3.27587 2.51929H16.7241C17.1251 2.51929 17.4541 2.84125 17.4541 3.23365C17.4541 3.4047 17.3924 3.56568 17.2793 3.69648Z" fill="currentColor" fill-opacity="0.6"/>
</svg>
