<svg viewBox="0 0 24 24" fill="none" xmlns="http://www.w3.org/2000/svg">
<g clip-path="url(#clip0_1065_1690)">
<path d="M22.7079 6.03276C22.7079 7.63759 22.187 9.1767 21.2595 10.3115C20.5277 11.2069 19.5903 11.7927 18.5832 12L5.40566 11.9965C4.40477 11.7862 3.47364 11.2019 2.74595 10.3115C1.81857 9.1767 1.29758 7.63759 1.29758 6.03276L1.29755 3.46658C1.29754 3.15062 1.50512 2.87219 1.80794 2.782C8.46005 0.800689 15.5454 0.800695 22.1974 2.78201C22.5003 2.8722 22.7079 3.15062 22.7079 3.46658V6.03276Z" stroke="currentColor" stroke-width="1.71429" stroke-linecap="round" stroke-linejoin="round"/>
<path d="M11.9935 17.5247V22.7143" stroke="currentColor" stroke-width="1.71429" stroke-linecap="round" stroke-linejoin="round"/>
<path d="M7.87268 22.7142H16.1144" stroke="currentColor" stroke-width="1.71429" stroke-linecap="round" stroke-linejoin="round"/>
<path d="M6.03702 11.3067C6.14087 14.5829 8.7249 17.5117 12.0028 17.5117C15.3383 17.5117 17.8507 14.6345 17.9656 11.3009C17.9872 10.6733 17.9988 10.0393 17.9988 9.39874C17.9988 6.80122 17.8255 4.15565 17.542 1.80924C15.7605 1.41154 13.9285 1.28577 12.0028 1.28577C10.077 1.28577 8.20799 1.39626 6.4635 1.80924C6.16463 4.14578 6.00671 6.80122 6.00671 9.39874C6.00671 10.0415 6.01707 10.6774 6.03702 11.3067Z" fill="currentColor" fill-opacity="0.3" stroke="currentColor" stroke-width="1.71429"/>
</g>
<defs>
<clipPath id="clip0_1065_1690">
<rect width="24" height="24" fill="white"/>
</clipPath>
</defs>
</svg>
