<svg viewBox="0 0 20 20" fill="none" xmlns="http://www.w3.org/2000/svg">
<g clip-path="url(#clip0_39_10067)">
<path fill-rule="evenodd" clip-rule="evenodd" d="M9.99992 2.5C5.85778 2.5 2.49992 5.85787 2.49992 10C2.49992 14.1421 5.85778 17.5 9.99992 17.5C14.1421 17.5 17.4999 14.1421 17.4999 10C17.4999 5.85787 14.1421 2.5 9.99992 2.5ZM0.833252 10C0.833252 4.93739 4.93731 0.833336 9.99992 0.833336C15.0625 0.833336 19.1666 4.93739 19.1666 10C19.1666 15.0626 15.0625 19.1667 9.99992 19.1667C4.93731 19.1667 0.833252 15.0626 0.833252 10ZM9.16658 14.1667C9.16658 13.7064 9.53968 13.3333 9.99992 13.3333H10.0083C10.4685 13.3333 10.8416 13.7064 10.8416 14.1667C10.8416 14.6269 10.4685 15 10.0083 15H9.99992C9.53968 15 9.16658 14.6269 9.16658 14.1667Z" fill="currentColor"/>
<path d="M9.08878 6.89272C9.42812 6.69329 9.82708 6.62039 10.215 6.68693C10.603 6.75347 10.9548 6.95516 11.2083 7.25628C11.4618 7.55739 11.6005 7.9385 11.5999 8.33209L11.5999 8.33333C11.5999 8.72428 11.2957 9.13185 10.721 9.51496C10.459 9.68961 10.1911 9.82415 9.98543 9.91558C9.88376 9.96076 9.72548 10.0215 9.66929 10.0429C9.23295 10.1886 8.99719 10.6604 9.14268 11.0969C9.28822 11.5335 9.76015 11.7694 10.1968 11.6239L10.2089 11.6193C10.3002 11.5845 10.5357 11.4949 10.6623 11.4386C10.9254 11.3217 11.2825 11.1437 11.6455 10.9017C12.3207 10.4516 13.2662 9.60939 13.2666 8.3341C13.2676 7.54707 12.9902 6.78504 12.4833 6.18294C11.9764 5.58072 11.2726 5.17734 10.4968 5.04426C9.72091 4.91118 8.92298 5.05698 8.24431 5.45584C7.56564 5.8547 7.05003 6.48087 6.78881 7.22347C6.63608 7.65762 6.86422 8.13339 7.29838 8.28611C7.73254 8.43884 8.2083 8.2107 8.36103 7.77654C8.49164 7.40524 8.74945 7.09215 9.08878 6.89272Z" fill="currentColor"/>
</g>
<defs>
<clipPath id="clip0_39_10067">
<rect width="20" height="20" fill="white"/>
</clipPath>
</defs>
</svg>
