<svg width="16" height="16" viewBox="0 0 16 16" fill="none" xmlns="http://www.w3.org/2000/svg">
<g clip-path="url(#clip0_1944_5598)">
<path d="M1.09727 11.7353C1.27342 13.3819 2.59765 14.7061 4.24332 14.8895C5.46566 15.0257 6.7207 15.1428 8.00028 15.1428C9.27986 15.1428 10.5349 15.0257 11.7572 14.8895C13.4029 14.7061 14.7271 13.3819 14.9033 11.7353C15.0333 10.5199 15.1431 9.27208 15.1431 7.99991C15.1431 6.72773 15.0333 5.47989 14.9033 4.26445C14.7271 2.61799 13.4029 1.29375 11.7572 1.11032C10.5349 0.974075 9.27986 0.857056 8.00028 0.857056C6.7207 0.857056 5.46566 0.974075 4.24332 1.11032C2.59765 1.29375 1.27342 2.61799 1.09727 4.26445C0.967231 5.47989 0.857422 6.72773 0.857422 7.99991C0.857422 9.27208 0.967232 10.5199 1.09727 11.7353Z" stroke="currentColor" stroke-width="1.14274"/>
<path d="M10 7.42857C11.1046 7.42857 12 6.53315 12 5.42857C12 4.324 11.1046 3.42857 10 3.42857C8.89543 3.42857 8 4.324 8 5.42857C8 6.53315 8.89543 7.42857 10 7.42857Z" fill="#9092AF" fill-opacity="0.2" stroke="currentColor" stroke-width="1.14274" stroke-linecap="round" stroke-linejoin="round"/>
<path d="M4.24311 14.8896C2.59745 14.7062 1.27322 13.3819 1.09707 11.7354C0.990218 10.7368 0.897028 9.71619 0.867188 8.67822C1.33257 8.60589 1.80306 8.57015 2.27436 8.57141C4.26809 8.52633 6.213 9.19108 7.76205 10.4471C9.19869 11.6119 10.2082 13.215 10.6407 15.0051C9.77426 15.0858 8.89314 15.1429 8.00008 15.1429C6.72049 15.1429 5.46545 15.0258 4.24311 14.8896Z" fill="#9092AF" fill-opacity="0.2" stroke="currentColor" stroke-width="1.14274" stroke-linecap="round" stroke-linejoin="round"/>
<path d="M10.6402 15.0051C11.0151 14.9702 11.3873 14.9307 11.7565 14.8896C13.4022 14.7062 14.7264 13.3819 14.9025 11.7354C14.9221 11.5527 14.9413 11.3691 14.9596 11.1849C14.1789 10.9672 13.3715 10.8567 12.5596 10.8572C11.3298 10.8545 10.1124 11.1034 8.98242 11.5886V11.6645C9.77456 12.6357 10.3433 13.7763 10.6402 15.0051Z" fill="#9092AF" fill-opacity="0.2" stroke="currentColor" stroke-width="1.14274" stroke-linecap="round" stroke-linejoin="round"/>
</g>
<defs>
<clipPath id="clip0_1944_5598">
<rect width="16" height="16" fill="white"/>
</clipPath>
</defs>
</svg>
