<svg width="16" height="16" viewBox="0 0 16 16" fill="none" xmlns="http://www.w3.org/2000/svg">
<path d="M14.2817 9.57137C13.8164 10.8899 12.9713 12.0411 11.8526 12.88C10.7341 13.719 9.39227 14.208 7.99623 14.2855C6.70574 14.2857 5.44645 13.8887 4.38941 13.1483C3.33237 12.4081 2.52882 11.3604 2.08789 10.1475" stroke="currentColor" stroke-width="1.14274" stroke-linecap="round" stroke-linejoin="round"/>
<path d="M1.70996 6.42849C2.58993 4.01906 5.29267 1.71439 7.99542 1.71439C9.29221 1.71803 10.5561 2.12269 11.6139 2.87288C12.6717 3.62307 13.4715 4.68208 13.9038 5.90471" stroke="currentColor" stroke-width="1.14274" stroke-linecap="round" stroke-linejoin="round"/>
<path d="M15.0142 11.8807C14.8135 10.9318 14.6532 10.4265 14.2825 9.57581C13.3737 9.7637 12.8684 9.92416 11.9775 10.3076" stroke="currentColor" stroke-width="1.14274" stroke-linecap="round" stroke-linejoin="round"/>
<path d="M1.16016 4.08325C1.29009 5.04442 1.41261 5.56018 1.71937 6.43601C2.63955 6.31588 3.15529 6.19324 4.07212 5.87678" stroke="currentColor" stroke-width="1.14274" stroke-linecap="round" stroke-linejoin="round"/>
</svg>
