<svg viewBox="0 0 24 24" fill="none" xmlns="http://www.w3.org/2000/svg">
<path d="M22.2858 11.6656C22.2858 9.26613 22.2112 6.92445 22.0694 4.66473C21.9657 3.01212 20.6536 1.69999 19.0009 1.59627C16.7412 1.45443 14.3995 1.37988 12.0001 1.37988C9.6006 1.37988 7.25892 1.45443 4.9992 1.59627C3.3466 1.69999 2.03446 3.01212 1.93073 4.66473C1.78891 6.92445 1.71436 9.26613 1.71436 11.6656C1.71436 14.0651 1.78891 16.4067 1.93073 18.6665C2.03446 20.3191 3.3466 21.6312 4.9992 21.7349C7.25892 21.8767 9.6006 21.9513 12.0001 21.9513L12.5569 21.9492C12.7636 21.9483 12.9631 21.8729 13.1185 21.7368L21.9786 13.9738C22.1624 13.8128 22.2686 13.5811 22.2709 13.3368L22.2858 11.6656Z" stroke="currentColor" stroke-width="1.71429"/>
<path d="M22.2857 13.7142C21.4586 18.8199 16.5493 21.5754 12.8572 21.9637C14.2629 20.0903 15.2529 18.1832 15.6843 15.3003C15.8174 14.4113 16.5534 13.7142 17.4523 13.7142H22.2857Z" fill="#2B2C3E" fill-opacity="0.2" stroke="currentColor" stroke-width="1.71429" stroke-linecap="round" stroke-linejoin="round"/>
</svg>
