<svg viewBox="0 0 16 16" fill="none" xmlns="http://www.w3.org/2000/svg">
<path d="M15.5 9.69811V15.5H12.2713V10.0519C12.2713 8.70755 11.8004 7.78774 10.657 7.78774C9.78251 7.78774 9.24439 8.42453 9.0426 8.99057C8.97534 9.20283 8.90807 9.48585 8.90807 9.83962V15.5H5.67937C5.67937 15.5 5.74664 6.30189 5.67937 5.38208H8.90807V6.79717C9.31166 6.08962 10.1188 5.09906 11.8004 5.09906C13.8856 5.09906 15.5 6.58491 15.5 9.69811ZM2.31614 0.5C1.23991 0.5 0.5 1.2783 0.5 2.26887C0.5 3.25943 1.17264 4.03774 2.24888 4.03774C3.39238 4.03774 4.06502 3.25943 4.06502 2.26887C4.13229 1.20755 3.45964 0.5 2.31614 0.5ZM0.701793 15.5H3.93049V5.38208H0.701793V15.5Z" fill="currentColor"/>
</svg>
