<svg viewBox="0 0 24 24" fill="none" xmlns="http://www.w3.org/2000/svg">
<g clip-path="url(#clip0_118_1657)">
<path d="M8.89795 11.7209C7.93586 10.7588 6.42 10.6311 5.31058 11.4189L4.82834 11.7613C3.79476 12.4952 2.88927 13.3945 2.14832 14.423C1.1569 15.7992 1.30965 17.6914 2.50901 18.8907L5.10927 21.4909C6.30864 22.6902 8.20073 22.843 9.57696 21.8516C10.6055 21.1107 11.5048 20.2052 12.2386 19.1716L12.6148 18.6419" stroke="currentColor" stroke-width="1.71429" stroke-linecap="round" stroke-linejoin="round"/>
<path d="M2.14832 14.423C1.1569 15.7992 1.30965 17.6914 2.50901 18.8907L5.10927 21.4909C6.30864 22.6902 8.20073 22.843 9.57696 21.8516C10.6055 21.1107 11.5048 20.2052 12.2386 19.1716L12.6148 18.6419C13.383 17.5599 13.2586 16.0815 12.3202 15.1431L8.89795 11.7209C7.93586 10.7588 6.42 10.6311 5.31058 11.4189L4.82834 11.7613C3.79476 12.4952 2.88927 13.3945 2.14832 14.423Z" stroke="currentColor" stroke-width="1.71429" stroke-linecap="round" stroke-linejoin="round"/>
<path d="M21.491 5.10951L18.8907 2.50924C17.6914 1.30988 15.7993 1.15713 14.423 2.14856C13.3945 2.88951 12.4952 3.79499 11.7614 4.82857L11.4189 5.31081C10.6312 6.42023 10.7588 7.93609 11.7209 8.89818L15.1432 12.3205C16.0815 13.2588 17.5599 13.3832 18.642 12.615L19.1717 12.2389C20.2053 11.505 21.1107 10.6057 21.8517 9.57719C22.843 8.20096 22.6903 6.30887 21.491 5.10951Z" stroke="currentColor" stroke-width="1.71429" stroke-linecap="round" stroke-linejoin="round"/>
<path d="M15.1917 8.80859L8.82391 15.1764" stroke="currentColor" stroke-width="1.71429" stroke-linecap="round" stroke-linejoin="round"/>
</g>
<defs>
<clipPath id="clip0_118_1657">
<rect width="24" height="24" fill="white"/>
</clipPath>
</defs>
</svg>
