<svg width="16" height="16" viewBox="0 0 16 16" fill="none" xmlns="http://www.w3.org/2000/svg">
<g clip-path="url(#clip0_598_7512)">
<path d="M8.62748 15.029C9.40093 15.1038 10.1976 15.1429 11.0113 15.1429C11.825 15.1429 12.6216 15.1038 13.3951 15.029C14.2462 14.9466 14.8973 14.084 14.9357 13.0336C14.9951 11.4113 15.0264 9.72724 15.0264 8.00003C15.0264 6.27283 14.9951 4.58875 14.9357 2.96643C14.8973 1.91603 14.2462 1.0534 13.3951 0.971111C12.6216 0.896254 11.825 0.857168 11.0113 0.857168C10.1976 0.857168 9.40093 0.896254 8.62748 0.971111C7.77638 1.0534 7.12528 1.91603 7.08684 2.96643C7.06565 3.54528 7.04805 4.13191 7.03416 4.72566L7.03416 11.2744C7.04805 11.8681 7.06565 12.4548 7.08684 13.0336C7.12528 14.084 7.77638 14.9466 8.62748 15.029Z" fill="currentColor" fill-opacity="0.3"/>
<path d="M7.08684 13.0336C7.12527 14.084 7.77638 14.9466 8.62748 15.029C9.40093 15.1038 10.1976 15.1429 11.0113 15.1429C11.825 15.1429 12.6216 15.1038 13.3951 15.029C14.2462 14.9466 14.8973 14.084 14.9357 13.0336C14.9951 11.4113 15.0264 9.72724 15.0264 8.00003C15.0264 6.27283 14.9951 4.58875 14.9357 2.96643C14.8973 1.91603 14.2462 1.0534 13.3951 0.971111C12.6216 0.896254 11.825 0.857168 11.0113 0.857168C10.1976 0.857168 9.40093 0.896254 8.62748 0.971111C7.77638 1.0534 7.12527 1.91603 7.08684 2.96643" stroke="currentColor" stroke-width="1.71429" stroke-linecap="round"/>
<path d="M4.54004 4.61521C3.10038 5.79479 2.38095 6.51404 1.25867 7.89665C2.38095 9.27927 3.10038 9.99851 4.54004 11.1781" stroke="currentColor" stroke-width="1.71429" stroke-linecap="round" stroke-linejoin="round"/>
<path d="M11.4243 7.89648L1.29554 7.89648" stroke="currentColor" stroke-width="1.71429" stroke-linecap="round" stroke-linejoin="round"/>
</g>
<defs>
<clipPath id="clip0_598_7512">
<rect width="16" height="16" fill="white" transform="translate(16 16) rotate(-180)"/>
</clipPath>
</defs>
</svg>
