<svg viewBox="0 0 24 24" fill="none" xmlns="http://www.w3.org/2000/svg">
<path d="M2.00827 18.9014C2.09966 19.7242 2.75395 20.3779 3.57655 20.4716C7.12738 20.8764 10.4418 20.8764 13.9927 20.4716C14.8153 20.3779 15.4696 19.7242 15.5609 18.9014C15.9528 15.3734 15.9528 8.62661 15.5609 5.09863C15.4696 4.27577 14.8153 3.62203 13.9927 3.52828C10.4418 3.12355 7.12738 3.12355 3.57655 3.52828C2.75395 3.62203 2.09966 4.27576 2.00827 5.09863C1.61638 8.62661 1.61638 15.3734 2.00827 18.9014Z" fill="currentColor" fill-opacity="0.3"/>
<path d="M15.5609 5.09863C15.4696 4.27577 14.8153 3.62203 13.9927 3.52828C10.4418 3.12355 7.12738 3.12355 3.57655 3.52828C2.75395 3.62203 2.09966 4.27576 2.00827 5.09863C1.61638 8.62661 1.61638 15.3734 2.00827 18.9014C2.09966 19.7242 2.75395 20.3779 3.57655 20.4716C7.12738 20.8764 10.4418 20.8764 13.9927 20.4716C14.8153 20.3779 15.4696 19.7242 15.5609 18.9014" stroke="currentColor" stroke-width="1.71429" stroke-linecap="round"/>
<path d="M9.82178 12H22.589" stroke="currentColor" stroke-width="1.71429" stroke-linecap="round" stroke-linejoin="round"/>
<path d="M19.124 16.0371C20.6739 14.8105 21.3951 13.975 22.3385 12.7298C22.6723 12.2893 22.6723 11.7113 22.3385 11.2707C21.3951 10.0256 20.6739 9.19005 19.124 7.96338" stroke="currentColor" stroke-width="1.71429" stroke-linecap="round" stroke-linejoin="round"/>
</svg>
