<svg viewBox="0 0 32 32" fill="none" xmlns="http://www.w3.org/2000/svg">
<g id="24px/File/Interface File Multiple by Streamlinehq">
<path id="Vector" d="M18.6428 2.28564C15.4825 2.28564 12.8609 2.53545 9.68837 3.01458C8.65192 3.17111 7.86435 4.02782 7.78707 5.07319C7.31192 11.5009 7.30895 16.1769 7.77818 22.5828C7.8588 23.6831 8.72403 24.565 9.82344 24.6571C12.8495 24.9108 15.7462 25.0376 18.6428 25.0376C21.5394 25.0376 24.436 24.9108 27.4621 24.6571C28.5615 24.565 29.4266 23.6831 29.5073 22.5829C29.9766 16.177 29.9736 11.501 29.4984 5.07328C29.4212 4.02791 28.6335 3.1712 27.5972 3.01465C24.4246 2.53552 21.803 2.28564 18.6428 2.28564Z" fill="9092AF#" fill-opacity="0.1" stroke="currentColor" stroke-width="1.71429"/>
<path id="Vector_2" d="M12.9286 7.42847C9.76839 7.42847 7.14681 7.67827 3.97426 8.1574C2.93781 8.31393 2.15025 9.17064 2.07297 10.216C1.5978 16.6437 1.59484 21.3197 2.06408 27.7256C2.14468 28.826 3.00992 29.7078 4.10933 29.7999C7.13543 30.0536 10.032 30.1805 12.9286 30.1805C15.8253 30.1805 18.7219 30.0536 21.748 29.7999C22.8474 29.7078 23.7125 28.826 23.7932 27.7256C24.2625 21.3198 24.2595 16.6438 23.7843 10.2161C23.707 9.17073 22.9194 8.31402 21.883 8.15747C18.7105 7.67834 16.0889 7.42847 12.9286 7.42847Z" fill="#353648" stroke="currentColor" stroke-width="1.71429"/>
<path id="Vector_3" d="M8.57153 15.4285H17.2858" stroke="currentColor" stroke-width="1.71429" stroke-linecap="round"/>
<path id="Vector_4" d="M8.57153 21.75H13.8302" stroke="currentColor" stroke-width="1.71429" stroke-linecap="round"/>
</g>
</svg>