<svg viewBox="0 0 24 24" fill="none" xmlns="http://www.w3.org/2000/svg">
<g clip-path="url(#clip0_115_4748)">
<path d="M18.3874 22.7145V14.4727" stroke="currentColor" stroke-width="1.71429" stroke-linecap="round" stroke-linejoin="round"/>
<path d="M14.2665 18.594H22.5082" stroke="currentColor" stroke-width="1.71429" stroke-linecap="round" stroke-linejoin="round"/>
<path d="M1.6301 7.56153C1.73173 8.51142 2.4957 9.27539 3.44513 9.38123C4.15033 9.45983 4.8744 9.52734 5.6126 9.52734C6.35082 9.52734 7.07489 9.45983 7.78009 9.38123C8.7295 9.27541 9.49349 8.51142 9.59511 7.56153C9.67015 6.86032 9.73349 6.14041 9.73349 5.40645C9.73349 4.67252 9.67015 3.9526 9.59511 3.25139C9.49349 2.30151 8.7295 1.53753 7.78009 1.4317C7.07489 1.3531 6.35082 1.28558 5.6126 1.28558C4.8744 1.28558 4.15033 1.3531 3.44513 1.4317C2.4957 1.53753 1.73173 2.30151 1.6301 3.25139C1.55508 3.9526 1.49173 4.67252 1.49173 5.40645C1.49173 6.14041 1.55508 6.86032 1.6301 7.56153Z" fill="currentColor" fill-opacity="0.3" stroke="currentColor" stroke-width="1.71429" stroke-linecap="round" stroke-linejoin="round"/>
<path d="M1.6301 20.7485C1.73173 21.6984 2.4957 22.4625 3.44513 22.5682C4.15033 22.6469 4.8744 22.7145 5.6126 22.7145C6.35082 22.7145 7.07489 22.6469 7.78009 22.5682C8.7295 22.4625 9.49349 21.6984 9.59511 20.7485C9.67015 20.0474 9.73349 19.3276 9.73349 18.5935C9.73349 17.8596 9.67015 17.1397 9.59511 16.4385C9.49349 15.4886 8.7295 14.7246 7.78009 14.6188C7.07489 14.5402 6.35082 14.4727 5.6126 14.4727C4.8744 14.4727 4.15033 14.5402 3.44513 14.6188C2.4957 14.7246 1.73173 15.4886 1.6301 16.4385C1.55508 17.1397 1.49173 17.8596 1.49173 18.5935C1.49173 19.3276 1.55508 20.0474 1.6301 20.7485Z" fill="currentColor" fill-opacity="0.3" stroke="currentColor" stroke-width="1.71429" stroke-linecap="round" stroke-linejoin="round"/>
<path d="M14.4049 7.56153C14.5065 8.51142 15.2705 9.27539 16.22 9.38123C16.9251 9.45983 17.6493 9.52734 18.3874 9.52734C19.1256 9.52734 19.8497 9.45983 20.555 9.38123C21.5044 9.27541 22.2682 8.51142 22.3699 7.56153C22.445 6.86032 22.5082 6.14041 22.5082 5.40645C22.5082 4.67252 22.445 3.9526 22.3699 3.25139C22.2682 2.30151 21.5044 1.53753 20.555 1.4317C19.8497 1.3531 19.1256 1.28558 18.3874 1.28558C17.6493 1.28558 16.9251 1.3531 16.22 1.4317C15.2705 1.53753 14.5065 2.30151 14.4049 3.25139C14.3299 3.9526 14.2665 4.67252 14.2665 5.40645C14.2665 6.14041 14.3299 6.86032 14.4049 7.56153Z" fill="currentColor" fill-opacity="0.3" stroke="currentColor" stroke-width="1.71429" stroke-linecap="round" stroke-linejoin="round"/>
</g>
<defs>
<clipPath id="clip0_115_4748">
<rect width="24" height="24" fill="white"/>
</clipPath>
</defs>
</svg>
