<svg width="24" height="24" viewBox="0 0 24 24" fill="none" xmlns="http://www.w3.org/2000/svg">
<g clip-path="url(#clip0_10_861)">
<path d="M9.73242 21.3564C10.1659 22.1647 11.0188 22.7143 12 22.7143C12.9813 22.7143 13.8341 22.1647 14.2676 21.3564" fill="#9092AF" fill-opacity="0.1"/>
<path d="M9.73242 21.3564C10.1659 22.1647 11.0188 22.7143 12 22.7143C12.9813 22.7143 13.8341 22.1647 14.2676 21.3564" stroke="currentColor" stroke-width="1.71429" stroke-linecap="round" stroke-linejoin="round"/>
<path d="M7.30693 3.2297C8.55162 1.98502 10.2398 1.28577 12 1.28577C13.7602 1.28577 15.4484 1.98502 16.693 3.2297C17.9378 4.47437 18.637 6.16252 18.637 7.92276C18.637 8.95846 18.8079 9.93166 19.0651 10.9271C19.1371 11.1524 19.2164 11.3651 19.3016 11.5657C19.6995 12.5013 20.7946 12.8205 21.6118 13.4255C22.8315 14.3284 22.5956 16.2604 21.5811 17.0106C21.5811 17.0106 19.9431 18.4286 12 18.4286C4.0568 18.4286 2.41883 17.0106 2.41883 17.0106C1.40434 16.2604 1.16853 14.3284 2.38821 13.4255C3.20533 12.8205 4.30041 12.5014 4.69823 11.5658C5.09478 10.6332 5.36301 9.44023 5.36301 7.92276C5.36301 6.16252 6.06225 4.47437 7.30693 3.2297Z" fill="#9092AF" fill-opacity="0.1" stroke="currentColor" stroke-width="1.71429" stroke-linecap="round" stroke-linejoin="round"/>
</g>
<defs>
<clipPath id="clip0_10_861">
<rect width="24" height="24" fill="white"/>
</clipPath>
</defs>
</svg>
