<svg width="24" height="24" viewBox="0 0 24 24" fill="none" xmlns="http://www.w3.org/2000/svg">
<g clip-path="url(#clip0_821_2375)">
<path d="M1.71436 12H9.42864H1.71436Z" fill="#9092AF" fill-opacity="0.1"/>
<path d="M1.71436 12H9.42864" stroke="#AEAFB6" stroke-width="1.71429" stroke-linecap="round" stroke-linejoin="round"/>
<path d="M1.71436 20.0894H17.1429" stroke="#AEAFB6" stroke-width="1.71429" stroke-linecap="round" stroke-linejoin="round"/>
<path d="M14.5715 12H22.2858" stroke="#AEAFB6" stroke-width="1.71429" stroke-linecap="round" stroke-linejoin="round"/>
<path d="M11.9999 14.5713C13.4201 14.5713 14.5713 13.4201 14.5713 11.9999C14.5713 10.5797 13.4201 9.42847 11.9999 9.42847C10.5797 9.42847 9.42847 10.5797 9.42847 11.9999C9.42847 13.4201 10.5797 14.5713 11.9999 14.5713Z" fill="#9092AF" fill-opacity="0.1" stroke="#AEAFB6" stroke-width="1.71429" stroke-linecap="round" stroke-linejoin="round"/>
<path d="M19.7143 22.6607C21.1344 22.6607 22.2857 21.5094 22.2857 20.0893C22.2857 18.669 21.1344 17.5178 19.7143 17.5178C18.2941 17.5178 17.1428 18.669 17.1428 20.0893C17.1428 21.5094 18.2941 22.6607 19.7143 22.6607Z" fill="#9092AF" fill-opacity="0.1" stroke="#AEAFB6" stroke-width="1.71429" stroke-linecap="round" stroke-linejoin="round"/>
<path d="M22.2857 3.9104H6.85718" stroke="#AEAFB6" stroke-width="1.71429" stroke-linecap="round" stroke-linejoin="round"/>
<path d="M4.28578 6.48173C2.86562 6.48173 1.71436 5.33045 1.71436 3.9103C1.71436 2.49014 2.86562 1.33887 4.28578 1.33887C5.70595 1.33887 6.85721 2.49014 6.85721 3.9103C6.85721 5.33045 5.70595 6.48173 4.28578 6.48173Z" fill="#9092AF" fill-opacity="0.1" stroke="#AEAFB6" stroke-width="1.71429" stroke-linecap="round" stroke-linejoin="round"/>
</g>
<defs>
<clipPath id="clip0_821_2375">
<rect width="24" height="24" fill="white"/>
</clipPath>
</defs>
</svg>
