<svg width="16" height="16" viewBox="0 0 16 16" fill="none" xmlns="http://www.w3.org/2000/svg">
<g clip-path="url(#clip0_237_222)">
<path d="M1.09703 11.7354C1.27318 13.3819 2.59741 14.7062 4.24308 14.8896C5.46542 15.0258 6.72046 15.1429 8.00004 15.1429C9.27961 15.1429 10.5347 15.0258 11.7569 14.8896C13.4027 14.7062 14.7269 13.3819 14.903 11.7354C15.0331 10.52 15.1429 9.27217 15.1429 8C15.1429 6.72781 15.0331 5.47997 14.903 4.26453C14.7269 2.61808 13.4027 1.29384 11.7569 1.11041C10.5347 0.974159 9.27961 0.85714 8.00004 0.85714C6.72046 0.85714 5.46542 0.974159 4.24308 1.11041C2.59741 1.29384 1.27318 2.61808 1.09703 4.26453C0.966987 5.47997 0.857178 6.72781 0.857178 8C0.857178 9.27217 0.966988 10.52 1.09703 11.7354Z" fill="currentColor" fill-opacity="0.2"/>
<path d="M7.99991 9.42203C9.38016 9.42203 10.4991 8.30312 10.4991 6.92286C10.4991 5.54261 9.38016 4.42369 7.99991 4.42369C6.61965 4.42369 5.50073 5.54261 5.50073 6.92286C5.50073 8.30312 6.61965 9.42203 7.99991 9.42203Z" stroke="currentColor" stroke-width="1.71429" stroke-linecap="round" stroke-linejoin="round"/>
<path d="M1.09703 11.7354C1.27318 13.3819 2.59741 14.7062 4.24308 14.8896C5.46542 15.0258 6.72046 15.1429 8.00004 15.1429C9.27961 15.1429 10.5347 15.0258 11.7569 14.8896C13.4027 14.7062 14.7269 13.3819 14.903 11.7354C15.0331 10.52 15.1429 9.27217 15.1429 8C15.1429 6.72781 15.0331 5.47997 14.903 4.26453C14.7269 2.61808 13.4027 1.29384 11.7569 1.11041C10.5347 0.974159 9.27961 0.85714 8.00004 0.85714C6.72046 0.85714 5.46542 0.974159 4.24308 1.11041C2.59741 1.29384 1.27318 2.61808 1.09703 4.26453C0.966987 5.47997 0.857178 6.72781 0.857178 8C0.857178 9.27217 0.966988 10.52 1.09703 11.7354Z" stroke="currentColor" stroke-width="1.71429"/>
<path d="M12.2777 14.7913C12.2832 14.7729 12.2881 14.7544 12.2927 14.7357C12.0916 13.7455 11.5544 12.8553 10.7721 12.2159C9.98974 11.5765 9.01042 11.2271 8.00003 11.2271C6.98965 11.2271 6.01032 11.5765 5.228 12.2159C4.45654 12.8464 3.89359 13.8051 3.6853 14.7811C3.86603 14.8318 4.05235 14.8683 4.24299 14.8896C5.46533 15.0258 6.72038 15.1429 7.99995 15.1429C9.27953 15.1429 10.5346 15.0258 11.7569 14.8896C11.9346 14.8698 12.1085 14.8367 12.2777 14.7913Z" stroke="currentColor" stroke-width="1.71429" stroke-linejoin="round"/>
</g>
<defs>
<clipPath id="clip0_237_222">
<rect width="16" height="16" fill="currentColor"/>
</clipPath>
</defs>
</svg>
