<svg viewBox="0 0 24 24" fill="none" xmlns="http://www.w3.org/2000/svg">
<path fill-rule="evenodd" clip-rule="evenodd" d="M6.70708 5.29301C6.51848 5.11085 6.26588 5.01006 6.00368 5.01234C5.74148 5.01461 5.49067 5.11978 5.30526 5.30519C5.11985 5.4906 5.01469 5.74141 5.01241 6.00361C5.01013 6.26581 5.11092 6.51841 5.29308 6.70701L10.5861 12L5.29308 17.293C5.19757 17.3853 5.12139 17.4956 5.06898 17.6176C5.01657 17.7396 4.98898 17.8708 4.98783 18.0036C4.98668 18.1364 5.01198 18.2681 5.06226 18.391C5.11254 18.5139 5.18679 18.6255 5.28069 18.7194C5.37458 18.8133 5.48623 18.8876 5.60913 18.9378C5.73202 18.9881 5.8637 19.0134 5.99648 19.0123C6.12926 19.0111 6.26048 18.9835 6.38249 18.9311C6.50449 18.8787 6.61483 18.8025 6.70708 18.707L12.0001 13.414L17.2931 18.707C17.4817 18.8892 17.7343 18.99 17.9965 18.9877C18.2587 18.9854 18.5095 18.8802 18.6949 18.6948C18.8803 18.5094 18.9855 18.2586 18.9878 17.9964C18.99 17.7342 18.8892 17.4816 18.7071 17.293L13.4141 12L18.7071 6.70701C18.8892 6.51841 18.99 6.26581 18.9878 6.00361C18.9855 5.74141 18.8803 5.4906 18.6949 5.30519C18.5095 5.11978 18.2587 5.01461 17.9965 5.01234C17.7343 5.01006 17.4817 5.11085 17.2931 5.29301L12.0001 10.586L6.70708 5.29301Z" fill="currentColor"/>
</svg>
