<svg viewBox="0 0 24 24" fill="none" xmlns="http://www.w3.org/2000/svg">
<g clip-path="url(#clip0_117_2185)">
<path d="M6.36455 22.3344C8.19807 22.5387 10.0806 22.7143 12 22.7143C13.9194 22.7143 15.8019 22.5387 17.6354 22.3344C20.1039 22.0592 22.0903 20.0729 22.3544 17.6031C22.5495 15.78 22.7143 13.9082 22.7143 12C22.7143 10.0917 22.5495 8.21996 22.3544 6.3968C22.0903 3.92711 20.1039 1.94075 17.6354 1.66561C15.8019 1.46123 13.9194 1.28571 12 1.28571C10.7399 1.28571 9.49573 1.36136 8.27085 1.47116L1.47544 8.12168C1.36349 9.39459 1.28571 10.6887 1.28571 12C1.28571 13.9082 1.45042 15.78 1.64548 17.6031C1.90971 20.0729 3.89605 22.0592 6.36455 22.3344Z" fill="currentColor" fill-opacity="0.3" stroke="currentColor" stroke-width="1.71429" stroke-linejoin="round"/>
<path d="M16.5094 1.54559C15.0337 1.39703 13.5285 1.28571 12 1.28571C10.7613 1.28571 9.53795 1.35881 8.33322 1.4656V5.99999C8.33322 6.94676 9.10074 7.71428 10.0475 7.71428H14.7951C15.7419 7.71428 16.5094 6.94676 16.5094 5.99999V1.54559Z" stroke="currentColor" stroke-width="1.71429" stroke-linejoin="round"/>
<path d="M17.0385 22.3995V16.857C17.0385 15.9102 16.271 15.1427 15.3242 15.1427H8.67577C7.72899 15.1427 6.96149 15.9102 6.96149 16.857V22.3995C8.60593 22.5746 10.2883 22.7143 12 22.7143C13.7117 22.7143 15.3941 22.5746 17.0385 22.3995Z" stroke="currentColor" stroke-width="1.71429" stroke-linejoin="round"/>
</g>
<defs>
<clipPath id="clip0_117_2185">
<rect width="24" height="24" fill="white"/>
</clipPath>
</defs>
</svg>
