<svg width="24" height="24" viewBox="0 0 24 24" fill="none" xmlns="http://www.w3.org/2000/svg">
<path d="M3.23598 18.1819C3.51476 20.6413 5.59458 22.5589 8.06823 22.6467C9.32302 22.6913 10.6115 22.7143 12.0001 22.7143C13.3888 22.7143 14.6772 22.6913 15.932 22.6467C18.4057 22.5589 20.4854 20.6413 20.7642 18.1819C20.8614 17.3247 20.9288 16.4537 20.9288 15.5714C20.9288 14.6892 20.8614 13.8182 20.7642 12.961C20.4854 10.5015 18.4057 8.5839 15.932 8.49611C14.6772 8.45159 13.3888 8.42859 12.0001 8.42859C10.6115 8.42859 9.32302 8.45159 8.06823 8.49611C5.59457 8.5839 3.51476 10.5015 3.23598 12.961C3.1388 13.8182 3.07153 14.6892 3.07153 15.5714C3.07153 16.4537 3.1388 17.3247 3.23598 18.1819Z" fill="#9092AF" fill-opacity="0.1" stroke="currentColor" stroke-width="1.71429"/>
<path d="M17 8.42863V6.28577C17 4.95969 16.4732 3.68791 15.5355 2.75023C14.5979 1.81255 13.3261 1.28577 12 1.28577C10.6739 1.28577 9.40216 1.81255 8.46448 2.75023C7.52678 3.68791 7 4.95969 7 6.28577V8.42863" fill="#9092AF" fill-opacity="0.1"/>
<path d="M17 8.42863V6.28577C17 4.95969 16.4732 3.68791 15.5355 2.75023C14.5979 1.81255 13.3261 1.28577 12 1.28577C10.6739 1.28577 9.40216 1.81255 8.46448 2.75023C7.52678 3.68791 7 4.95969 7 6.28577V8.42863" stroke="currentColor" stroke-width="1.71429" stroke-linecap="round" stroke-linejoin="round"/>
<path d="M12 14.5715V16.2857V14.5715Z" fill="white"/>
<path d="M12 14.5715V16.2857" stroke="currentColor" stroke-width="1.71429" stroke-linecap="round" stroke-linejoin="round"/>
</svg>
