<svg viewBox="0 0 22 24" fill="none" xmlns="http://www.w3.org/2000/svg">
<path d="M19.3249 13.4847C19.2713 13.4167 19.2421 13.3326 19.2423 13.2459V10.7541C19.2421 10.6674 19.2713 10.5832 19.3249 10.5153L20.4745 9.07499C20.6813 8.81612 20.8052 8.50089 20.8301 8.17048C20.8549 7.84007 20.7795 7.50985 20.6137 7.22295L19.9434 6.06275C19.778 5.77561 19.5299 5.54502 19.2315 5.40111C18.933 5.25721 18.5981 5.20667 18.2705 5.25611L16.449 5.53316C16.3628 5.54524 16.2752 5.52856 16.1994 5.48571L14.0413 4.23978C13.9653 4.19409 13.907 4.12393 13.876 4.0408L13.2041 2.33264C13.0838 2.02449 12.8733 1.75977 12.6003 1.57301C12.3273 1.38625 12.0043 1.28613 11.6735 1.28571H10.3296C9.99877 1.28613 9.67579 1.38625 9.40273 1.57301C9.1297 1.75977 8.91929 2.02449 8.79896 2.33264L8.12396 4.0408C8.0918 4.12167 8.03365 4.18952 7.95867 4.23366L5.79591 5.48571C5.72028 5.52867 5.63254 5.54536 5.54641 5.53316L3.72958 5.25611C3.40195 5.20667 3.06701 5.25721 2.76855 5.40111C2.47009 5.54502 2.22197 5.77561 2.05663 6.06275L1.38622 7.22295C1.22043 7.50985 1.14504 7.84007 1.16989 8.17048C1.19473 8.50089 1.31868 8.81612 1.52551 9.07499L2.67499 10.5153C2.72878 10.5832 2.75792 10.6674 2.75765 10.7541V13.2459C2.75792 13.3326 2.72878 13.4167 2.67499 13.4847L1.52551 14.925C1.31868 15.1839 1.19473 15.4991 1.16989 15.8295C1.14504 16.1599 1.22043 16.4902 1.38622 16.777L2.05663 17.9372C2.22197 18.2244 2.47009 18.455 2.76855 18.5988C3.06701 18.7428 3.40195 18.7934 3.72958 18.7438L5.55101 18.4668C5.63713 18.4546 5.72487 18.4712 5.80051 18.5143L7.95867 19.7602C8.03365 19.8043 8.0918 19.8722 8.12396 19.9531L8.79591 21.6674C8.91622 21.9754 9.12663 22.2403 9.39968 22.427C9.67272 22.6136 9.99572 22.7139 10.3265 22.7143H11.6673C11.9981 22.7139 12.3211 22.6136 12.5942 22.427C12.8672 22.2403 13.0776 21.9754 13.198 21.6674L13.8699 19.9531C13.902 19.8722 13.9602 19.8043 14.0352 19.7602L16.1934 18.5143C16.269 18.4714 16.3568 18.4548 16.4429 18.4668L18.2643 18.7438C18.5919 18.7934 18.9269 18.7428 19.2253 18.5988C19.5238 18.455 19.7718 18.2244 19.9373 17.9372L20.6077 16.777C20.7735 16.4902 20.8487 16.1599 20.8239 15.8295C20.7992 15.4991 20.6753 15.1839 20.4683 14.925L19.3249 13.4847ZM11 15.4439C10.3188 15.4439 9.65302 15.2419 9.08667 14.8635C8.52034 14.4851 8.07893 13.9472 7.81825 13.3179C7.5576 12.6886 7.4894 11.9962 7.62228 11.3281C7.75517 10.6601 8.08316 10.0464 8.56481 9.5648C9.04644 9.08317 9.66008 8.75517 10.3281 8.62228C10.9962 8.48941 11.6886 8.5576 12.3179 8.81826C12.9472 9.07892 13.485 9.52033 13.8635 10.0867C14.2419 10.653 14.4439 11.3189 14.4439 12C14.4439 12.9134 14.081 13.7893 13.4352 14.4352C12.7893 15.081 11.9134 15.4439 11 15.4439Z" fill="currentColor" fill-opacity="0.1" stroke="currentColor" stroke-width="1.71429"/>
</svg>
