<svg viewBox="0 0 24 24" fill="none" xmlns="http://www.w3.org/2000/svg">
<path d="M17.5713 9.92908C18.0748 10.3864 18.4288 11.0907 18.4288 12.0001C18.4288 12.9094 18.0748 13.6137 17.5713 14.071" stroke="currentColor" stroke-width="1.71429" stroke-linecap="round" stroke-linejoin="round"/>
<path d="M20.0771 5.72668C21.6227 7.09724 22.7156 9.23204 22.7156 11.9998C22.7156 14.7676 21.6227 16.9024 20.0771 18.2729" stroke="currentColor" stroke-width="1.71429" stroke-linecap="round" stroke-linejoin="round"/>
<path d="M1.53789 9.35419C1.39299 10.1846 1.28564 11.1084 1.28564 12C1.28564 12.8916 1.39299 13.8154 1.53789 14.6458C1.81616 16.2405 3.01939 17.5704 4.62199 17.7984C5.01836 17.8548 5.47968 17.9032 6.02335 17.9385C7.31928 18.0223 8.49051 18.7468 9.18843 19.842C9.46186 20.2709 9.75084 20.6897 10.0496 21.0869C11.3922 22.8725 13.4855 21.8414 13.5767 19.6094C13.6529 17.7463 13.7142 15.2407 13.7142 12C13.7142 8.7593 13.6529 6.25373 13.5767 4.39068C13.4855 2.15858 11.3922 1.12753 10.0496 2.91304C9.75084 3.31037 9.46186 3.72904 9.18843 4.15807C8.49051 5.25322 7.31928 5.97768 6.02335 6.0616C5.47968 6.09679 5.01836 6.14515 4.62199 6.20157C3.01939 6.42965 1.81616 7.75953 1.53789 9.35419Z" fill="currentColor"  stroke-width="1.71429" stroke-linecap="round" stroke-linejoin="round"/>
</svg>
