<svg viewBox="0 0 24 24" fill="none" xmlns="http://www.w3.org/2000/svg">
<path d="M19 5.59498C19.1097 5.75307 19.2469 5.89033 19.405 6C19.2469 6.10967 19.1097 6.24693 19 6.40502C18.8903 6.24693 18.7531 6.10968 18.595 6C18.7531 5.89033 18.8903 5.75307 19 5.59498ZM8.8166 7.01196L9.30252 6.89413L8.8166 7.01196C8.957 7.59094 9.40906 8.043 9.98805 8.18339L13.0481 8.92541C13.6506 9.07152 13.6506 9.92848 13.0481 10.0746L9.98805 10.8166C9.40906 10.957 8.957 11.4091 8.81661 11.988L8.07459 15.0481C7.92848 15.6506 7.07152 15.6506 6.92541 15.0481L6.1834 11.988C6.043 11.4091 5.59094 10.957 5.01195 10.8166L1.95191 10.0746C1.34936 9.92848 1.34936 9.07152 1.95191 8.92541L5.01196 8.1834C5.59094 8.043 6.043 7.59094 6.18339 7.01196L6.92541 3.95191C7.07152 3.34936 7.92848 3.34936 8.07459 3.95191L8.8166 7.01196ZM15.8333 14.6311C15.847 14.5746 15.8715 14.5477 15.8928 14.5322C15.9184 14.5135 15.9559 14.5 16 14.5C16.0441 14.5 16.0816 14.5135 16.1072 14.5322C16.1285 14.5477 16.153 14.5746 16.1667 14.6311L16.6233 16.5142C16.7267 16.9405 17.0595 17.2733 17.4858 17.3767L19.3689 17.8333C19.4254 17.847 19.4523 17.8715 19.4678 17.8928C19.4865 17.9184 19.5 17.9559 19.5 18C19.5 18.0441 19.4865 18.0816 19.4678 18.1072C19.4523 18.1285 19.4254 18.153 19.3689 18.1667L17.4858 18.6233C17.0595 18.7267 16.7267 19.0595 16.6233 19.4858L16.1667 21.3689C16.153 21.4254 16.1285 21.4523 16.1072 21.4678C16.0816 21.4865 16.0441 21.5 16 21.5C15.9559 21.5 15.9184 21.4865 15.8928 21.4678C15.8715 21.4523 15.847 21.4254 15.8333 21.3689L15.3767 19.4858C15.2733 19.0595 14.9405 18.7267 14.5142 18.6233L12.6311 18.1667C12.5746 18.153 12.5477 18.1285 12.5322 18.1072C12.5135 18.0816 12.5 18.0441 12.5 18C12.5 17.9559 12.5135 17.9184 12.5322 17.8928C12.5477 17.8715 12.5746 17.847 12.6311 17.8333L14.5142 17.3767C14.9405 17.2733 15.2733 16.9405 15.3767 16.5142L15.8333 14.6311Z" fill="currentColor" stroke="currentColor"/>
</svg>
