<svg viewBox="0 0 24 24" fill="none" xmlns="http://www.w3.org/2000/svg">
<g clip-path="url(#clip0_117_2011)">
<path d="M14.4916 7.56172C14.5932 8.5116 15.3572 9.27559 16.3067 9.38141C17.0118 9.46001 17.736 9.52752 18.4742 9.52752C19.2123 9.52752 19.9364 9.46001 20.6415 9.38141C21.5911 9.27559 22.355 8.5116 22.4566 7.56172C22.5317 6.8605 22.595 6.14059 22.595 5.40665C22.595 4.6727 22.5317 3.95278 22.4566 3.25157C22.355 2.30169 21.5911 1.53771 20.6415 1.43188C19.9364 1.35328 19.2123 1.28577 18.4742 1.28577C17.736 1.28577 17.0118 1.35328 16.3067 1.43188C15.3572 1.53771 14.5932 2.30169 14.4916 3.25157C14.4166 3.95278 14.3532 4.6727 14.3532 5.40665C14.3532 6.14059 14.4166 6.8605 14.4916 7.56172Z" fill="currentColor" fill-opacity="0.3" stroke="currentColor" stroke-width="1.71429"/>
<path d="M1.54334 7.56172C1.64497 8.5116 2.40895 9.27559 3.35838 9.38141C4.06357 9.46001 4.78763 9.52752 5.52585 9.52752C6.26407 9.52752 6.98814 9.46001 7.69333 9.38141C8.64275 9.27559 9.40674 8.5116 9.50836 7.56172C9.58338 6.8605 9.64674 6.14059 9.64674 5.40665C9.64674 4.6727 9.58338 3.95278 9.50836 3.25157C9.40674 2.30169 8.64275 1.53771 7.69333 1.43188C6.98814 1.35328 6.26407 1.28577 5.52585 1.28577C4.78763 1.28577 4.06357 1.35328 3.35838 1.43188C2.40895 1.53771 1.64497 2.30169 1.54334 3.25157C1.46832 3.95278 1.40497 4.6727 1.40497 5.40665C1.40497 6.14059 1.46832 6.8605 1.54334 7.56172Z" fill="currentColor" fill-opacity="0.3" stroke="currentColor" stroke-width="1.71429"/>
<path d="M1.54334 20.7485C1.64497 21.6984 2.40895 22.4623 3.35838 22.5682C4.06357 22.6467 4.78763 22.7143 5.52585 22.7143C6.26407 22.7143 6.98814 22.6467 7.69333 22.5682C8.64275 22.4623 9.40674 21.6984 9.50836 20.7485C9.58338 20.0474 9.64674 19.3274 9.64674 18.5935C9.64674 17.8594 9.58338 17.1396 9.50836 16.4383C9.40674 15.4885 8.64275 14.7245 7.69333 14.6187C6.98814 14.54 6.26407 14.4725 5.52585 14.4725C4.78763 14.4725 4.06357 14.54 3.35838 14.6187C2.40895 14.7245 1.64497 15.4885 1.54334 16.4383C1.46832 17.1396 1.40497 17.8594 1.40497 18.5935C1.40497 19.3274 1.46832 20.0474 1.54334 20.7485Z" fill="currentColor" fill-opacity="0.3" stroke="currentColor" stroke-width="1.71429"/>
<path d="M14.4916 20.7485C14.5932 21.6984 15.3572 22.4623 16.3067 22.5682C17.0118 22.6467 17.736 22.7143 18.4742 22.7143C19.2123 22.7143 19.9364 22.6467 20.6415 22.5682C21.5911 22.4623 22.355 21.6984 22.4566 20.7485C22.5317 20.0474 22.595 19.3274 22.595 18.5935C22.595 17.8594 22.5317 17.1396 22.4566 16.4383C22.355 15.4885 21.5911 14.7245 20.6415 14.6187C19.9364 14.54 19.2123 14.4725 18.4742 14.4725C17.736 14.4725 17.0118 14.54 16.3067 14.6187C15.3572 14.7245 14.5932 15.4885 14.4916 16.4383C14.4166 17.1396 14.3532 17.8594 14.3532 18.5935C14.3532 19.3274 14.4166 20.0474 14.4916 20.7485Z" fill="currentColor" fill-opacity="0.3" stroke="currentColor" stroke-width="1.71429"/>
</g>
<defs>
<clipPath id="clip0_117_2011">
<rect width="24" height="24" fill="white"/>
</clipPath>
</defs>
</svg>
