<svg viewBox="0 0 285 95" fill="none" xmlns="http://www.w3.org/2000/svg">
<rect y="24" width="3" height="19" rx="1.5" fill="#06E9EE"/>
<rect x="8" y="19" width="3" height="29" rx="1.5" fill="#06E9EE"/>
<rect x="16" y="15" width="3" height="37" rx="1.5" fill="#06E9EE"/>
<rect x="24" y="1" width="3" height="65" rx="1.5" fill="#06E9EE"/>
<rect x="32" y="10" width="3" height="47" rx="1.5" fill="#06E9EE"/>
<rect x="40" y="16" width="3" height="35" rx="1.5" fill="#06E9EE"/>
<rect x="48" y="1" width="3" height="65" rx="1.5" fill="#06E9EE"/>
<rect x="56" y="15" width="3" height="37" rx="1.5" fill="#06E9EE"/>
<rect x="64" y="4" width="3" height="59" rx="1.5" fill="#06E9EE"/>
<rect x="72" y="21" width="3" height="25" rx="1.5" fill="#06E9EE"/>
<rect x="80" y="16" width="3" height="35" rx="1.5" fill="#06E9EE"/>
<rect x="88" y="22" width="3" height="23" rx="1.5" fill="#06E9EE"/>
<rect x="96" y="18" width="3" height="31" rx="1.5" fill="#06E9EE"/>
<rect x="104" y="3" width="3" height="61" rx="1.5" fill="#06E9EE"/>
<rect x="112" y="14" width="3" height="39" rx="1.5" fill="#06E9EE"/>
<rect x="120" y="6" width="3" height="55" rx="1.5" fill="#06E9EE"/>
<rect x="128" y="6" width="3" height="55" rx="1.5" fill="#06E9EE"/>
<rect x="136" y="23" width="3" height="21" rx="1.5" fill="#9092AF" fill-opacity="0.3"/>
<rect x="144" y="17" width="3" height="33" rx="1.5" fill="#9092AF" fill-opacity="0.3"/>
<rect x="152" y="12" width="3" height="43" rx="1.5" fill="#9092AF" fill-opacity="0.3"/>
<rect x="160" y="23" width="3" height="21" rx="1.5" fill="#9092AF" fill-opacity="0.3"/>
<rect x="168" y="17" width="3" height="33" rx="1.5" fill="#9092AF" fill-opacity="0.3"/>
<rect x="176" y="14" width="3" height="39" rx="1.5" fill="#9092AF" fill-opacity="0.3"/>
<rect x="184" y="5" width="3" height="57" rx="1.5" fill="#9092AF" fill-opacity="0.3"/>
<rect x="192" y="8" width="3" height="51" rx="1.5" fill="#9092AF" fill-opacity="0.3"/>
<rect x="200" y="15" width="3" height="37" rx="1.5" fill="#9092AF" fill-opacity="0.3"/>
<rect x="208" y="5" width="3" height="57" rx="1.5" fill="#9092AF" fill-opacity="0.3"/>
<rect x="216" y="17" width="3" height="33" rx="1.5" fill="#9092AF" fill-opacity="0.3"/>
<rect x="224" y="23" width="3" height="21" rx="1.5" fill="#9092AF" fill-opacity="0.3"/>
<rect x="232" y="15" width="3" height="37" rx="1.5" fill="#9092AF" fill-opacity="0.3"/>
<rect x="240" y="26" width="3" height="15" rx="1.5" fill="#9092AF" fill-opacity="0.3"/>
<rect x="248" y="20" width="3" height="27" rx="1.5" fill="#9092AF" fill-opacity="0.3"/>
<rect x="256" y="17" width="3" height="33" rx="1.5" fill="#9092AF" fill-opacity="0.3"/>
<rect x="264" y="7" width="3" height="53" rx="1.5" fill="#9092AF" fill-opacity="0.3"/>
<rect x="272" y="14" width="3" height="39" rx="1.5" fill="#9092AF" fill-opacity="0.3"/>
<rect x="280" y="23" width="3" height="21" rx="1.5" fill="#9092AF" fill-opacity="0.3"/>
<path d="M7.14 88.796C6.496 89.7107 5.586 90.168 4.41 90.168C3.234 90.168 2.31933 89.7107 1.666 88.796C1.022 87.872 0.7 86.64 0.7 85.1C0.7 83.56 1.022 82.3327 1.666 81.418C2.31933 80.494 3.234 80.032 4.41 80.032C5.586 80.032 6.496 80.494 7.14 81.418C7.79333 82.3327 8.12 83.56 8.12 85.1C8.12 86.64 7.79333 87.872 7.14 88.796ZM2.394 88.138C2.87933 88.8567 3.55133 89.216 4.41 89.216C5.26867 89.216 5.936 88.8567 6.412 88.138C6.89733 87.4193 7.14 86.4067 7.14 85.1C7.14 83.7933 6.89733 82.7807 6.412 82.062C5.936 81.3433 5.26867 80.984 4.41 80.984C3.55133 80.984 2.87933 81.3433 2.394 82.062C1.918 82.7807 1.68 83.7933 1.68 85.1C1.68 86.4067 1.918 87.4193 2.394 88.138ZM15.3984 88.796C14.7544 89.7107 13.8444 90.168 12.6684 90.168C11.4924 90.168 10.5777 89.7107 9.92436 88.796C9.28036 87.872 8.95836 86.64 8.95836 85.1C8.95836 83.56 9.28036 82.3327 9.92436 81.418C10.5777 80.494 11.4924 80.032 12.6684 80.032C13.8444 80.032 14.7544 80.494 15.3984 81.418C16.0517 82.3327 16.3784 83.56 16.3784 85.1C16.3784 86.64 16.0517 87.872 15.3984 88.796ZM10.6524 88.138C11.1377 88.8567 11.8097 89.216 12.6684 89.216C13.527 89.216 14.1944 88.8567 14.6704 88.138C15.1557 87.4193 15.3984 86.4067 15.3984 85.1C15.3984 83.7933 15.1557 82.7807 14.6704 82.062C14.1944 81.3433 13.527 80.984 12.6684 80.984C11.8097 80.984 11.1377 81.3433 10.6524 82.062C10.1764 82.7807 9.93836 83.7933 9.93836 85.1C9.93836 86.4067 10.1764 87.4193 10.6524 88.138ZM18.6727 84.176C18.5234 84.3253 18.3414 84.4 18.1267 84.4C17.9121 84.4 17.7301 84.3253 17.5807 84.176C17.4314 84.0267 17.3567 83.8447 17.3567 83.63C17.3567 83.4153 17.4314 83.2333 17.5807 83.084C17.7301 82.9347 17.9121 82.86 18.1267 82.86C18.3414 82.86 18.5234 82.9347 18.6727 83.084C18.8221 83.2333 18.8967 83.4153 18.8967 83.63C18.8967 83.8447 18.8221 84.0267 18.6727 84.176ZM18.6727 89.916C18.5234 90.0653 18.3414 90.14 18.1267 90.14C17.9121 90.14 17.7301 90.0653 17.5807 89.916C17.4314 89.7667 17.3567 89.5847 17.3567 89.37C17.3567 89.1553 17.4314 88.9733 17.5807 88.824C17.7301 88.6747 17.9121 88.6 18.1267 88.6C18.3414 88.6 18.5234 88.6747 18.6727 88.824C18.8221 88.9733 18.8967 89.1553 18.8967 89.37C18.8967 89.5847 18.8221 89.7667 18.6727 89.916ZM26.3233 88.796C25.6793 89.7107 24.7693 90.168 23.5933 90.168C22.4173 90.168 21.5026 89.7107 20.8493 88.796C20.2053 87.872 19.8833 86.64 19.8833 85.1C19.8833 83.56 20.2053 82.3327 20.8493 81.418C21.5026 80.494 22.4173 80.032 23.5933 80.032C24.7693 80.032 25.6793 80.494 26.3233 81.418C26.9766 82.3327 27.3033 83.56 27.3033 85.1C27.3033 86.64 26.9766 87.872 26.3233 88.796ZM21.5773 88.138C22.0626 88.8567 22.7346 89.216 23.5933 89.216C24.4519 89.216 25.1193 88.8567 25.5953 88.138C26.0806 87.4193 26.3233 86.4067 26.3233 85.1C26.3233 83.7933 26.0806 82.7807 25.5953 82.062C25.1193 81.3433 24.4519 80.984 23.5933 80.984C22.7346 80.984 22.0626 81.3433 21.5773 82.062C21.1013 82.7807 20.8633 83.7933 20.8633 85.1C20.8633 86.4067 21.1013 87.4193 21.5773 88.138ZM34.4416 83.266C34.4416 84.0033 34.241 84.6567 33.8396 85.226L30.6336 90H29.5276L31.9356 86.416C31.6836 86.472 31.4223 86.5 31.1516 86.5C30.1903 86.5 29.4016 86.2013 28.7856 85.604C28.1696 84.9973 27.8616 84.218 27.8616 83.266C27.8616 82.314 28.1696 81.5393 28.7856 80.942C29.4016 80.3353 30.1903 80.032 31.1516 80.032C32.113 80.032 32.9016 80.3353 33.5176 80.942C34.1336 81.5393 34.4416 82.314 34.4416 83.266ZM29.4716 81.614C29.0516 82.034 28.8416 82.5847 28.8416 83.266C28.8416 83.9473 29.0516 84.498 29.4716 84.918C29.901 85.338 30.461 85.548 31.1516 85.548C31.8423 85.548 32.3976 85.338 32.8176 84.918C33.247 84.498 33.4616 83.9473 33.4616 83.266C33.4616 82.5847 33.247 82.034 32.8176 81.614C32.3976 81.194 31.8423 80.984 31.1516 80.984C30.461 80.984 29.901 81.194 29.4716 81.614ZM36.4615 84.176C36.3121 84.3253 36.1301 84.4 35.9155 84.4C35.7008 84.4 35.5188 84.3253 35.3695 84.176C35.2201 84.0267 35.1455 83.8447 35.1455 83.63C35.1455 83.4153 35.2201 83.2333 35.3695 83.084C35.5188 82.9347 35.7008 82.86 35.9155 82.86C36.1301 82.86 36.3121 82.9347 36.4615 83.084C36.6108 83.2333 36.6855 83.4153 36.6855 83.63C36.6855 83.8447 36.6108 84.0267 36.4615 84.176ZM36.4615 89.916C36.3121 90.0653 36.1301 90.14 35.9155 90.14C35.7008 90.14 35.5188 90.0653 35.3695 89.916C35.2201 89.7667 35.1455 89.5847 35.1455 89.37C35.1455 89.1553 35.2201 88.9733 35.3695 88.824C35.5188 88.6747 35.7008 88.6 35.9155 88.6C36.1301 88.6 36.3121 88.6747 36.4615 88.824C36.6108 88.9733 36.6855 89.1553 36.6855 89.37C36.6855 89.5847 36.6108 89.7667 36.4615 89.916ZM37.532 90V89.118L41.06 85.562C42.068 84.554 42.572 83.6907 42.572 82.972C42.572 82.3467 42.376 81.8613 41.984 81.516C41.6014 81.1613 41.1394 80.984 40.598 80.984C39.59 80.984 38.8574 81.446 38.4 82.37L37.574 81.88C37.882 81.2733 38.302 80.816 38.834 80.508C39.366 80.1907 39.954 80.032 40.598 80.032C41.382 80.032 42.068 80.298 42.656 80.83C43.2534 81.3527 43.552 82.0667 43.552 82.972C43.552 83.5413 43.3934 84.0873 43.076 84.61C42.7587 85.1327 42.3107 85.6833 41.732 86.262L38.932 89.048H43.762V90H37.532ZM46.5675 80.2H47.4075V90H46.4275V81.278L44.2295 81.936L43.9775 81.096L46.5675 80.2Z" fill="#ADAFCE"/>
<path d="M240.771 88.796C240.127 89.7107 239.217 90.168 238.041 90.168C236.865 90.168 235.95 89.7107 235.297 88.796C234.653 87.872 234.331 86.64 234.331 85.1C234.331 83.56 234.653 82.3327 235.297 81.418C235.95 80.494 236.865 80.032 238.041 80.032C239.217 80.032 240.127 80.494 240.771 81.418C241.424 82.3327 241.751 83.56 241.751 85.1C241.751 86.64 241.424 87.872 240.771 88.796ZM236.025 88.138C236.51 88.8567 237.182 89.216 238.041 89.216C238.9 89.216 239.567 88.8567 240.043 88.138C240.528 87.4193 240.771 86.4067 240.771 85.1C240.771 83.7933 240.528 82.7807 240.043 82.062C239.567 81.3433 238.9 80.984 238.041 80.984C237.182 80.984 236.51 81.3433 236.025 82.062C235.549 82.7807 235.311 83.7933 235.311 85.1C235.311 86.4067 235.549 87.4193 236.025 88.138ZM249.029 88.796C248.385 89.7107 247.475 90.168 246.299 90.168C245.123 90.168 244.209 89.7107 243.555 88.796C242.911 87.872 242.589 86.64 242.589 85.1C242.589 83.56 242.911 82.3327 243.555 81.418C244.209 80.494 245.123 80.032 246.299 80.032C247.475 80.032 248.385 80.494 249.029 81.418C249.683 82.3327 250.009 83.56 250.009 85.1C250.009 86.64 249.683 87.872 249.029 88.796ZM244.283 88.138C244.769 88.8567 245.441 89.216 246.299 89.216C247.158 89.216 247.825 88.8567 248.301 88.138C248.787 87.4193 249.029 86.4067 249.029 85.1C249.029 83.7933 248.787 82.7807 248.301 82.062C247.825 81.3433 247.158 80.984 246.299 80.984C245.441 80.984 244.769 81.3433 244.283 82.062C243.807 82.7807 243.569 83.7933 243.569 85.1C243.569 86.4067 243.807 87.4193 244.283 88.138ZM252.304 84.176C252.154 84.3253 251.972 84.4 251.758 84.4C251.543 84.4 251.361 84.3253 251.212 84.176C251.062 84.0267 250.988 83.8447 250.988 83.63C250.988 83.4153 251.062 83.2333 251.212 83.084C251.361 82.9347 251.543 82.86 251.758 82.86C251.972 82.86 252.154 82.9347 252.304 83.084C252.453 83.2333 252.528 83.4153 252.528 83.63C252.528 83.8447 252.453 84.0267 252.304 84.176ZM252.304 89.916C252.154 90.0653 251.972 90.14 251.758 90.14C251.543 90.14 251.361 90.0653 251.212 89.916C251.062 89.7667 250.988 89.5847 250.988 89.37C250.988 89.1553 251.062 88.9733 251.212 88.824C251.361 88.6747 251.543 88.6 251.758 88.6C251.972 88.6 252.154 88.6747 252.304 88.824C252.453 88.9733 252.528 89.1553 252.528 89.37C252.528 89.5847 252.453 89.7667 252.304 89.916ZM253.374 90V89.118L256.902 85.562C257.91 84.554 258.414 83.6907 258.414 82.972C258.414 82.3467 258.218 81.8613 257.826 81.516C257.444 81.1613 256.982 80.984 256.44 80.984C255.432 80.984 254.7 81.446 254.242 82.37L253.416 81.88C253.724 81.2733 254.144 80.816 254.676 80.508C255.208 80.1907 255.796 80.032 256.44 80.032C257.224 80.032 257.91 80.298 258.498 80.83C259.096 81.3527 259.394 82.0667 259.394 82.972C259.394 83.5413 259.236 84.0873 258.918 84.61C258.601 85.1327 258.153 85.6833 257.574 86.262L254.774 89.048H259.604V90H253.374ZM260.17 90V89.118L263.698 85.562C264.706 84.554 265.21 83.6907 265.21 82.972C265.21 82.3467 265.014 81.8613 264.622 81.516C264.239 81.1613 263.777 80.984 263.236 80.984C262.228 80.984 261.495 81.446 261.038 82.37L260.212 81.88C260.52 81.2733 260.94 80.816 261.472 80.508C262.004 80.1907 262.592 80.032 263.236 80.032C264.02 80.032 264.706 80.298 265.294 80.83C265.891 81.3527 266.19 82.0667 266.19 82.972C266.19 83.5413 266.031 84.0873 265.714 84.61C265.396 85.1327 264.948 85.6833 264.37 86.262L261.57 89.048H266.4V90H260.17ZM268.561 84.176C268.412 84.3253 268.23 84.4 268.015 84.4C267.8 84.4 267.618 84.3253 267.469 84.176C267.32 84.0267 267.245 83.8447 267.245 83.63C267.245 83.4153 267.32 83.2333 267.469 83.084C267.618 82.9347 267.8 82.86 268.015 82.86C268.23 82.86 268.412 82.9347 268.561 83.084C268.71 83.2333 268.785 83.4153 268.785 83.63C268.785 83.8447 268.71 84.0267 268.561 84.176ZM268.561 89.916C268.412 90.0653 268.23 90.14 268.015 90.14C267.8 90.14 267.618 90.0653 267.469 89.916C267.32 89.7667 267.245 89.5847 267.245 89.37C267.245 89.1553 267.32 88.9733 267.469 88.824C267.618 88.6747 267.8 88.6 268.015 88.6C268.23 88.6 268.412 88.6747 268.561 88.824C268.71 88.9733 268.785 89.1553 268.785 89.37C268.785 89.5847 268.71 89.7667 268.561 89.916ZM276.212 88.796C275.568 89.7107 274.658 90.168 273.482 90.168C272.306 90.168 271.391 89.7107 270.738 88.796C270.094 87.872 269.772 86.64 269.772 85.1C269.772 83.56 270.094 82.3327 270.738 81.418C271.391 80.494 272.306 80.032 273.482 80.032C274.658 80.032 275.568 80.494 276.212 81.418C276.865 82.3327 277.192 83.56 277.192 85.1C277.192 86.64 276.865 87.872 276.212 88.796ZM271.466 88.138C271.951 88.8567 272.623 89.216 273.482 89.216C274.34 89.216 275.008 88.8567 275.484 88.138C275.969 87.4193 276.212 86.4067 276.212 85.1C276.212 83.7933 275.969 82.7807 275.484 82.062C275.008 81.3433 274.34 80.984 273.482 80.984C272.623 80.984 271.951 81.3433 271.466 82.062C270.99 82.7807 270.752 83.7933 270.752 85.1C270.752 86.4067 270.99 87.4193 271.466 88.138ZM282.818 84.946C283.313 85.1793 283.705 85.506 283.994 85.926C284.293 86.3367 284.442 86.808 284.442 87.34C284.442 88.2267 284.129 88.922 283.504 89.426C282.879 89.9207 282.099 90.168 281.166 90.168C280.233 90.168 279.453 89.9207 278.828 89.426C278.203 88.922 277.89 88.2267 277.89 87.34C277.89 86.808 278.035 86.3367 278.324 85.926C278.623 85.506 279.019 85.1793 279.514 84.946C278.646 84.4513 278.212 83.7187 278.212 82.748C278.212 81.8707 278.501 81.1987 279.08 80.732C279.668 80.2653 280.363 80.032 281.166 80.032C281.969 80.032 282.659 80.2653 283.238 80.732C283.826 81.1987 284.12 81.8707 284.12 82.748C284.12 83.7187 283.686 84.4513 282.818 84.946ZM282.566 81.418C282.193 81.1287 281.726 80.984 281.166 80.984C280.606 80.984 280.135 81.1287 279.752 81.418C279.379 81.7073 279.192 82.1507 279.192 82.748C279.192 83.308 279.383 83.742 279.766 84.05C280.158 84.358 280.625 84.512 281.166 84.512C281.707 84.512 282.169 84.358 282.552 84.05C282.944 83.742 283.14 83.308 283.14 82.748C283.14 82.1507 282.949 81.7073 282.566 81.418ZM279.5 88.74C279.92 89.0573 280.475 89.216 281.166 89.216C281.857 89.216 282.412 89.0573 282.832 88.74C283.252 88.4133 283.462 87.9467 283.462 87.34C283.462 86.7333 283.252 86.2713 282.832 85.954C282.412 85.6273 281.857 85.464 281.166 85.464C280.475 85.464 279.92 85.6273 279.5 85.954C279.08 86.2713 278.87 86.7333 278.87 87.34C278.87 87.9467 279.08 88.4133 279.5 88.74Z" fill="#ADAFCE"/>
</svg>
