<svg viewBox="0 0 400 119" fill="none" xmlns="http://www.w3.org/2000/svg">
<path d="M0.25 8C0.25 3.71979 3.71979 0.25 8 0.25H52C56.2802 0.25 59.75 3.71979 59.75 8V111C59.75 115.28 56.2802 118.75 52 118.75H8C3.71979 118.75 0.25 115.28 0.25 111V8ZM68.25 8C68.25 3.71979 71.7198 0.25 76 0.25H120C124.28 0.25 127.75 3.71979 127.75 8V111C127.75 115.28 124.28 118.75 120 118.75H76C71.7198 118.75 68.25 115.28 68.25 111V8ZM136.25 8C136.25 3.71979 139.72 0.25 144 0.25H188C192.28 0.25 195.75 3.71979 195.75 8V111C195.75 115.28 192.28 118.75 188 118.75H144C139.72 118.75 136.25 115.28 136.25 111V8ZM204.25 8C204.25 3.71979 207.72 0.25 212 0.25H256C260.28 0.25 263.75 3.71979 263.75 8V111C263.75 115.28 260.28 118.75 256 118.75H212C207.72 118.75 204.25 115.28 204.25 111V8ZM272.25 8C272.25 3.71979 275.72 0.25 280 0.25H324C328.28 0.25 331.75 3.71979 331.75 8V111C331.75 115.28 328.28 118.75 324 118.75H280C275.72 118.75 272.25 115.28 272.25 111V8ZM340.25 8C340.25 3.71979 343.72 0.25 348 0.25H392C396.28 0.25 399.75 3.71979 399.75 8V111C399.75 115.28 396.28 118.75 392 118.75H348C343.72 118.75 340.25 115.28 340.25 111V8Z" fill="url(#paint0_linear_183_1403)" stroke="#565879" stroke-width="0.5"/>
<defs>
<linearGradient id="paint0_linear_183_1403" x1="23.5294" y1="5.236" x2="71.2038" y2="173.566" gradientUnits="userSpaceOnUse">
<stop offset="0.28125" stop-color="#484963"/>
<stop offset="0.515625" stop-color="#525372"/>
<stop offset="0.765625" stop-color="#484963"/>
</linearGradient>
</defs>
</svg>
