<?xml version="1.0" encoding="utf-8"?>
<svg viewBox="258.794 -2.692 69.38 15.496" fill="none" xmlns="http://www.w3.org/2000/svg">
  <path d="M0.5 67C0.5 61.7533 4.7533 57.5 10 57.5H48.5714C53.8181 57.5 58.0714 61.7533 58.0714 67V110.257C58.0714 115.504 53.8181 119.757 48.5714 119.757H10C4.7533 119.757 0.5 115.504 0.5 110.257V67ZM68.4429 67C68.4429 61.7533 72.6962 57.5 77.9429 57.5H115.343C120.59 57.5 124.843 61.7533 124.843 67V110.257C124.843 115.504 120.59 119.757 115.343 119.757H77.9429C72.6962 119.757 68.4429 115.504 68.4429 110.257V67ZM135.214 67C135.214 61.7533 139.468 57.5 144.714 57.5H183.286C188.532 57.5 192.786 61.7533 192.786 67V110.257C192.786 115.504 188.532 119.757 183.286 119.757H144.714C139.468 119.757 135.214 115.504 135.214 110.257V67ZM203.157 67C203.157 61.7533 207.41 57.5 212.657 57.5H251.229C256.475 57.5 260.729 61.7533 260.729 67V110.257C260.729 115.504 256.475 119.757 251.229 119.757H212.657C207.41 119.757 203.157 115.504 203.157 110.257V67ZM271.1 67C271.1 61.7533 275.353 57.5 280.6 57.5H318C323.247 57.5 327.5 61.7533 327.5 67V110.257C327.5 115.504 323.247 119.757 318 119.757H280.6C275.353 119.757 271.1 115.504 271.1 110.257V67ZM259.5 4C259.5 2.067 261.067 0.5 263 0.5H324C325.933 0.5 327.5 2.067 327.5 4V7C327.5 8.933 325.933 10.5 324 10.5H263C261.067 10.5 259.5 8.933 259.5 7V4Z" fill="url(#paint0_linear_115_4802)" stroke="#565879"/>
  <defs>
    <linearGradient id="paint0_linear_115_4802" x1="19.2941" y1="5.29131" x2="76.4659" y2="169.089" gradientUnits="userSpaceOnUse">
      <stop offset="0.2813" stop-color="#484963"/>
      <stop offset="0.5156" stop-color="#525372"/>
      <stop offset="0.7656" stop-color="#484963"/>
    </linearGradient>
  </defs>
</svg>