<svg viewBox="0 0 14 14" fill="none" xmlns="http://www.w3.org/2000/svg">
<path fill-rule="evenodd" clip-rule="evenodd" d="M8.99967 1.66666C8.63148 1.66666 8.33301 1.36818 8.33301 0.999995C8.33301 0.631805 8.63148 0.333328 8.99967 0.333328H12.9997C13.3679 0.333328 13.6663 0.631805 13.6663 0.999995V5C13.6663 5.36819 13.3679 5.66666 12.9997 5.66666C12.6315 5.66666 12.333 5.36819 12.333 5V2.60947L6.13775 8.80473C5.8774 9.06508 5.45529 9.06508 5.19494 8.80473C4.93459 8.54438 4.93459 8.12227 5.19494 7.86192L11.3902 1.66666H8.99967ZM2.33301 3.66666C2.1562 3.66666 1.98663 3.7369 1.8616 3.86192C1.73658 3.98695 1.66634 4.15652 1.66634 4.33333V11.6667C1.66634 11.8435 1.73658 12.013 1.8616 12.1381C1.98663 12.2631 2.1562 12.3333 2.33301 12.3333H9.66634C9.84315 12.3333 10.0127 12.2631 10.1377 12.1381C10.2628 12.013 10.333 11.8435 10.333 11.6667V7.66666C10.333 7.29847 10.6315 7 10.9997 7C11.3679 7 11.6663 7.29847 11.6663 7.66666V11.6667C11.6663 12.1971 11.4556 12.7058 11.0806 13.0809C10.7055 13.4559 10.1968 13.6667 9.66634 13.6667H2.33301C1.80257 13.6667 1.29387 13.4559 0.918794 13.0809C0.543721 12.7058 0.333008 12.1971 0.333008 11.6667V4.33333C0.333008 3.8029 0.543721 3.29419 0.918794 2.91911C1.29387 2.54404 1.80257 2.33333 2.33301 2.33333H6.33301C6.7012 2.33333 6.99967 2.63181 6.99967 2.99999C6.99967 3.36818 6.7012 3.66666 6.33301 3.66666H2.33301Z" fill="#06E9EE"/>
</svg>
