<svg width="14" height="14" viewBox="0 0 14 14" fill="none" xmlns="http://www.w3.org/2000/svg">
<path fill-rule="evenodd" clip-rule="evenodd" d="M8.99967 1.66665C8.63148 1.66665 8.33301 1.36817 8.33301 0.99998C8.33301 0.63179 8.63148 0.333313 8.99967 0.333313H12.9997C13.3679 0.333313 13.6663 0.63179 13.6663 0.99998V4.99998C13.6663 5.36817 13.3679 5.66665 12.9997 5.66665C12.6315 5.66665 12.333 5.36817 12.333 4.99998V2.60946L6.13775 8.80472C5.8774 9.06507 5.45529 9.06507 5.19494 8.80472C4.93459 8.54437 4.93459 8.12226 5.19494 7.86191L11.3902 1.66665H8.99967ZM2.33301 3.66665C2.1562 3.66665 1.98663 3.73688 1.8616 3.86191C1.73658 3.98693 1.66634 4.1565 1.66634 4.33331V11.6666C1.66634 11.8435 1.73658 12.013 1.8616 12.1381C1.98663 12.2631 2.1562 12.3333 2.33301 12.3333H9.66634C9.84315 12.3333 10.0127 12.2631 10.1377 12.1381C10.2628 12.013 10.333 11.8435 10.333 11.6666V7.66665C10.333 7.29846 10.6315 6.99998 10.9997 6.99998C11.3679 6.99998 11.6663 7.29846 11.6663 7.66665V11.6666C11.6663 12.1971 11.4556 12.7058 11.0806 13.0809C10.7055 13.4559 10.1968 13.6666 9.66634 13.6666H2.33301C1.80257 13.6666 1.29387 13.4559 0.918794 13.0809C0.543721 12.7058 0.333008 12.1971 0.333008 11.6666V4.33331C0.333008 3.80288 0.543721 3.29417 0.918794 2.9191C1.29387 2.54403 1.80257 2.33331 2.33301 2.33331H6.33301C6.7012 2.33331 6.99967 2.63179 6.99967 2.99998C6.99967 3.36817 6.7012 3.66665 6.33301 3.66665H2.33301Z" fill="#7102FF"/>
</svg>
