<svg viewBox="0 0 109 34" fill="none" xmlns="http://www.w3.org/2000/svg">
<g clip-path="url(#clip0_1065_3100)">
<path d="M50.1344 5.33557C50.2169 7.5923 50.1867 9.85196 50.0438 12.1054C50.0572 12.1718 50.0673 12.2389 50.074 12.3063C50.1374 12.9685 51.2705 13.6276 51.2917 14.2899C51.4277 14.5226 50.3941 14.7934 50.376 15.0651C50.34 15.6751 50.2735 16.2827 50.1767 16.8855C50.1767 17.0644 50.1767 17.2401 50.1586 17.419C50.1894 18.5425 50.1043 19.6663 49.9049 20.771C49.9049 20.953 49.9049 21.1319 49.9049 21.314C49.9049 22.6479 50.2069 24.1387 49.3794 25.2717C49.0425 25.6989 48.6013 26.0242 48.1019 26.2133C47.374 26.6495 46.3441 26.841 44.9851 26.841C43.1435 26.8471 41.3086 26.6099 39.5247 26.1348V33.3817C41.3972 33.7725 43.3017 33.9743 45.2116 33.9843C54.2388 33.9843 57.1955 30.1647 57.1955 22.8111V5.33557H50.1344Z" fill="currentColor"/>
<path d="M68.6509 25.6075C60.7471 25.6075 56.6367 21.4332 56.6367 15.2251C56.6367 9.01705 60.8136 4.84277 67.5274 4.84277C73.1478 4.84277 77.6479 9.1834 77.6479 15.291V17.5288H64.9633C65.5099 19.2644 66.9535 19.7258 68.9468 19.7258C71.0035 19.7258 72.2871 19.0981 73.6703 18.1565L77.6539 22.6635C75.6938 24.3646 72.3868 25.6012 68.6599 25.6012L68.6509 25.6075ZM64.9572 13.1819H69.7441C69.3908 11.7476 68.6206 10.9849 67.3673 10.9849C66.1139 10.9849 65.3106 11.7194 64.9512 13.1819" fill="currentColor"/>
<path d="M85.2737 24.7946H77.5632V5.64945H84.8871V8.58714C85.5585 7.56643 86.4598 6.73174 87.5126 6.15573C88.5653 5.57973 89.7376 5.27986 90.9274 5.28224C94.3975 5.28224 97.4478 7.95315 97.4478 12.2938V24.7946H89.7404V14.7889C89.7404 13.1192 88.9703 12.3503 87.5871 12.3503C86.3005 12.3503 85.2737 13.3201 85.2737 14.4531V24.7946Z" fill="currentColor"/>
<path d="M107.233 12.3534V24.804H99.5229V12.3534H97.7561V5.64313H99.5229V1.0012L107.233 0V5.64313H109V12.3534H107.233Z" fill="currentColor"/>
<path d="M16.0068 24.9891C15.0494 25.4693 13.3702 25.6169 11.8178 25.6169C5.07686 25.6074 0 21.9385 0 15.222C0 8.50544 5.07686 4.8396 11.8057 4.8396C13.3551 4.8396 15.0373 4.9777 15.9947 5.46731V12.8241H15.7954C15.3 12.1744 13.9833 11.7287 12.3343 11.7287C10.0933 11.7287 8.27822 13.2039 8.27822 15.2251C8.27822 17.3154 10.0903 18.7214 12.3343 18.7214C13.9833 18.7214 15.3031 18.2758 15.7954 17.6261H16.0068V24.9891Z" fill="currentColor"/>
<path fill-rule="evenodd" clip-rule="evenodd" d="M26.4747 25.6044C32.8351 25.6044 37.6855 21.1853 37.6855 15.2221C37.6855 9.2337 32.8351 4.83972 26.4747 4.83972C20.1143 4.83972 15.2639 9.2337 15.2639 15.2221C15.2639 21.2104 20.1143 25.6044 26.4747 25.6044ZM24.5025 11.6723H28.4469L30.419 15.2252L28.4469 18.7749H24.5025L22.5304 15.2252L24.5025 11.6723Z" fill="currentColor"/>
<path fill-rule="evenodd" clip-rule="evenodd" d="M45.9787 24.9359C52.0129 24.9359 56.6186 20.7522 56.6186 15.0808C56.6186 9.41568 52.0159 5.22571 45.9787 5.22571C39.9414 5.22571 35.3357 9.40941 35.3357 15.0808C35.3357 20.7522 39.9444 24.9359 45.9787 24.9359ZM47.519 13.3954L45.9757 10.1439L44.4324 13.3954L40.9803 13.9164L43.478 16.4461L42.8891 20.0178L45.9757 18.3324L49.0622 20.0178L48.4733 16.4461L50.971 13.9164L47.519 13.3954Z" fill="currentColor"/>
</g>
<defs>
<clipPath id="clip0_1065_3100">
<rect width="109" height="34" fill="currentColor"/>
</clipPath>
</defs>
</svg>
