<svg width="29" height="15" viewBox="0 0 29 15" fill="none" xmlns="http://www.w3.org/2000/svg">
<rect x="0.412109" y="0.165039" width="28.5847" height="14.2924" rx="3.17608" fill="#7102FF"/>
<path d="M5.17969 10.2705V3.34082H5.97822V5.89883H6.04589C6.10454 5.8086 6.18575 5.69356 6.28951 5.5537C6.39553 5.41159 6.54667 5.28527 6.74292 5.17474C6.94142 5.06195 7.20985 5.00556 7.54821 5.00556C7.98583 5.00556 8.37156 5.11496 8.70541 5.33377C9.03926 5.55257 9.2998 5.86274 9.48702 6.26426C9.67425 6.66578 9.76786 7.13948 9.76786 7.68537C9.76786 8.23577 9.67425 8.71286 9.48702 9.11664C9.2998 9.51816 9.04039 9.82945 8.70879 10.0505C8.3772 10.2693 7.99485 10.3787 7.56175 10.3787C7.2279 10.3787 6.96059 10.3235 6.75983 10.2129C6.55907 10.1001 6.40455 9.97269 6.29628 9.83058C6.188 9.68621 6.10454 9.56666 6.04589 9.47192H5.95115V10.2705H5.17969ZM5.96468 7.67184C5.96468 8.06434 6.02221 8.41059 6.13725 8.71061C6.25229 9.00837 6.42034 9.24183 6.64141 9.41101C6.86247 9.57794 7.13316 9.6614 7.45347 9.6614C7.78732 9.6614 8.06591 9.57343 8.28922 9.39748C8.5148 9.21928 8.68398 8.98017 8.79677 8.68015C8.91181 8.37789 8.96933 8.04178 8.96933 7.67184C8.96933 7.30641 8.91294 6.97707 8.80015 6.68383C8.68962 6.38832 8.52157 6.15486 8.29599 5.98342C8.07267 5.80973 7.79183 5.72288 7.45347 5.72288C7.12865 5.72288 6.8557 5.80522 6.63464 5.96988C6.41358 6.1323 6.24665 6.36013 6.13387 6.65337C6.02108 6.94436 5.96468 7.28385 5.96468 7.67184Z" fill="white"/>
<path d="M13.1684 10.3787C12.6676 10.3787 12.2356 10.2682 11.8725 10.0471C11.5115 9.82381 11.233 9.51252 11.0367 9.11326C10.8427 8.71174 10.7457 8.2448 10.7457 7.71244C10.7457 7.18009 10.8427 6.71089 11.0367 6.30486C11.233 5.89657 11.5059 5.57851 11.8555 5.35068C12.2074 5.1206 12.618 5.00556 13.0872 5.00556C13.3579 5.00556 13.6252 5.05067 13.8891 5.1409C14.153 5.23113 14.3933 5.37775 14.6098 5.58077C14.8264 5.78153 14.9989 6.04771 15.1275 6.3793C15.2561 6.71089 15.3204 7.11918 15.3204 7.60417V7.94253H11.3142V7.25227H14.5083C14.5083 6.95903 14.4497 6.69736 14.3324 6.46727C14.2173 6.23719 14.0526 6.0556 13.8383 5.92251C13.6263 5.78942 13.3759 5.72288 13.0872 5.72288C12.7691 5.72288 12.4939 5.80183 12.2616 5.95973C12.0315 6.11538 11.8544 6.3184 11.7304 6.56878C11.6063 6.81917 11.5443 7.0876 11.5443 7.37408V7.83425C11.5443 8.22675 11.6119 8.55947 11.7473 8.83242C11.8849 9.10311 12.0755 9.30951 12.3191 9.45162C12.5627 9.59147 12.8458 9.6614 13.1684 9.6614C13.3782 9.6614 13.5677 9.63208 13.7368 9.57343C13.9083 9.51252 14.056 9.42229 14.1801 9.30274C14.3042 9.18093 14.4 9.02979 14.4677 8.84934L15.2392 9.06589C15.158 9.32755 15.0215 9.55764 14.8297 9.75614C14.638 9.95239 14.4012 10.1058 14.1192 10.2163C13.8372 10.3246 13.5203 10.3787 13.1684 10.3787Z" fill="white"/>
<path d="M18.7953 5.07323V5.74995H16.102V5.07323H18.7953ZM16.887 3.82806H17.6855V8.78166C17.6855 9.00724 17.7182 9.17642 17.7836 9.2892C17.8513 9.39974 17.937 9.47417 18.0408 9.51252C18.1468 9.54861 18.2585 9.56666 18.3758 9.56666C18.4637 9.56666 18.5359 9.56215 18.5923 9.55313C18.6487 9.54185 18.6938 9.53282 18.7277 9.52606L18.8901 10.2434C18.8359 10.2637 18.7604 10.284 18.6634 10.3043C18.5664 10.3268 18.4434 10.3381 18.2946 10.3381C18.069 10.3381 17.8479 10.2896 17.6314 10.1926C17.4171 10.0956 17.2389 9.94788 17.0968 9.74938C16.9569 9.55087 16.887 9.30048 16.887 8.99821V3.82806Z" fill="white"/>
<path d="M21.5259 10.3923C21.1966 10.3923 20.8977 10.3302 20.6292 10.2062C20.3608 10.0798 20.1476 9.89825 19.9897 9.6614C19.8318 9.42229 19.7529 9.13356 19.7529 8.7952C19.7529 8.49744 19.8115 8.25608 19.9288 8.07111C20.0461 7.88388 20.2029 7.73726 20.3992 7.63124C20.5954 7.52522 20.812 7.44627 21.0488 7.39438C21.2879 7.34025 21.5282 7.29739 21.7695 7.26581C22.0853 7.2252 22.3414 7.19475 22.5376 7.17445C22.7361 7.15189 22.8805 7.11467 22.9707 7.06279C23.0632 7.01091 23.1094 6.92068 23.1094 6.7921V6.76503C23.1094 6.43118 23.0181 6.17177 22.8354 5.9868C22.6549 5.80183 22.3808 5.70935 22.0131 5.70935C21.6319 5.70935 21.333 5.79281 21.1165 5.95973C20.8999 6.12666 20.7477 6.30486 20.6597 6.49434L19.9018 6.22365C20.0371 5.90785 20.2176 5.66198 20.4432 5.48603C20.671 5.30782 20.9191 5.18376 21.1875 5.11383C21.4582 5.04165 21.7244 5.00556 21.9861 5.00556C22.153 5.00556 22.3447 5.02586 22.5613 5.06646C22.7801 5.10481 22.991 5.18489 23.194 5.3067C23.3993 5.42851 23.5696 5.61235 23.705 5.85823C23.8403 6.1041 23.908 6.43344 23.908 6.84624V10.2705H23.1094V9.56666H23.0688C23.0147 9.67945 22.9245 9.80013 22.7981 9.92871C22.6718 10.0573 22.5038 10.1667 22.294 10.2569C22.0842 10.3471 21.8282 10.3923 21.5259 10.3923ZM21.6477 9.67494C21.9635 9.67494 22.2297 9.6129 22.4462 9.48884C22.6651 9.36477 22.8297 9.20461 22.9403 9.00837C23.053 8.81212 23.1094 8.60572 23.1094 8.38916V7.65831C23.0756 7.69891 23.0012 7.73613 22.8861 7.76996C22.7733 7.80154 22.6425 7.82974 22.4936 7.85455C22.347 7.87711 22.2038 7.89741 22.0639 7.91546C21.9263 7.93125 21.8146 7.94478 21.7289 7.95606C21.5214 7.98313 21.3274 8.02712 21.1469 8.08802C20.9687 8.14667 20.8244 8.23577 20.7138 8.35533C20.6056 8.47263 20.5514 8.63278 20.5514 8.8358C20.5514 9.11326 20.6541 9.32304 20.8593 9.46515C21.0669 9.60501 21.3297 9.67494 21.6477 9.67494Z" fill="white"/>
</svg>
