<svg width="343" height="44" viewBox="0 0 343 44" fill="none" xmlns="http://www.w3.org/2000/svg">
<path d="M41.8553 12.396C41.9242 14.2554 41.8989 16.1171 41.7797 17.9738C41.7909 18.0285 41.7993 18.0837 41.8049 18.1393C41.8578 18.6849 42.8038 19.2279 42.8215 19.7736C42.935 19.9653 42.0721 20.1884 42.057 20.4123C42.027 20.9148 41.9714 21.4154 41.8906 21.9121C41.8906 22.0595 41.8906 22.2043 41.8755 22.3517C41.9012 23.2774 41.8302 24.2032 41.6637 25.1134C41.6637 25.2634 41.6637 25.4108 41.6637 25.5608C41.6637 26.6598 41.9158 27.8881 41.225 28.8216C40.9437 29.1736 40.5753 29.4415 40.1584 29.5973C39.5507 29.9568 38.6909 30.1145 37.5563 30.1145C36.0188 30.1196 34.487 29.9241 32.9976 29.5327V35.5035C34.5609 35.8255 36.1509 35.9918 37.7454 36C45.2819 36 47.7503 32.853 47.7503 26.7942V12.396H41.8553Z" fill="currentColor"/>
<path d="M57.314 29.0983C50.7155 29.0983 47.2839 25.659 47.2839 20.5441C47.2839 15.4293 50.771 11.99 56.3761 11.99C61.0684 11.99 64.8253 15.5663 64.8253 20.5985V22.4422H54.2354C54.6918 23.8722 55.897 24.2523 57.5611 24.2523C59.2782 24.2523 60.3498 23.7351 61.5046 22.9594L64.8303 26.6727C63.1939 28.0743 60.433 29.0931 57.3216 29.0931L57.314 29.0983ZM54.2304 18.8607H58.2268C57.9318 17.679 57.2888 17.0506 56.2424 17.0506C55.1961 17.0506 54.5254 17.6557 54.2253 18.8607" fill="currentColor"/>
<path d="M71.1919 28.4285H64.7547V12.6546H70.8691V15.075C71.4297 14.234 72.1821 13.5463 73.061 13.0717C73.9399 12.5972 74.9186 12.3501 75.9119 12.3521C78.809 12.3521 81.3556 14.5526 81.3556 18.1289V28.4285H74.921V20.1847C74.921 18.809 74.2781 18.1755 73.1233 18.1755C72.0491 18.1755 71.1919 18.9745 71.1919 19.908V28.4285Z" fill="currentColor"/>
<path d="M89.525 18.1781V28.4363H83.0878V18.1781H81.6128V12.6494H83.0878V8.8249L89.525 8V12.6494H91V18.1781H89.525Z" fill="currentColor"/>
<path d="M13.3634 28.5889C12.5642 28.9845 11.1623 29.106 9.86626 29.106C4.23848 29.0983 0 26.0754 0 20.5416C0 15.0078 4.23848 11.9874 9.85617 11.9874C11.1497 11.9874 12.5541 12.1012 13.3534 12.5046V18.5659H13.1869C12.7734 18.0307 11.6741 17.6635 10.2974 17.6635C8.42653 17.6635 6.91117 18.8788 6.91117 20.5441C6.91117 22.2663 8.42401 23.4248 10.2974 23.4248C11.6741 23.4248 12.776 23.0576 13.1869 22.5224H13.3634V28.5889Z" fill="currentColor"/>
<path fill-rule="evenodd" clip-rule="evenodd" d="M22.1026 29.0957C27.4127 29.0957 31.4621 25.4548 31.4621 20.5416C31.4621 15.6077 27.4127 11.9875 22.1026 11.9875C16.7926 11.9875 12.7432 15.6077 12.7432 20.5416C12.7432 25.4755 16.7926 29.0957 22.1026 29.0957ZM20.4562 17.6169H23.7491L25.3956 20.5441L23.7491 23.4688H20.4562L18.8097 20.5441L20.4562 17.6169Z" fill="currentColor"/>
<path fill-rule="evenodd" clip-rule="evenodd" d="M38.3858 28.5449C43.4236 28.5449 47.2687 25.0979 47.2687 20.4252C47.2687 15.7577 43.4261 12.3055 38.3858 12.3055C33.3456 12.3055 29.5004 15.7525 29.5004 20.4252C29.5004 25.0979 33.3481 28.5449 38.3858 28.5449ZM41.4229 17.5499H35.2258V23.5981H41.4229V17.5499Z" fill="currentColor"/>
<rect x="93" y="15.5" width="25" height="13" rx="2.88889" fill="#7102FF"/>
<path d="M97 24.7864V18.89H97.7248V21.0666H97.7863C97.8395 20.9898 97.9132 20.8919 98.0074 20.7729C98.1036 20.652 98.2408 20.5445 98.419 20.4505C98.5992 20.3545 98.8428 20.3065 99.15 20.3065C99.5472 20.3065 99.8973 20.3996 100.2 20.5858C100.503 20.772 100.74 21.0359 100.91 21.3775C101.08 21.7192 101.165 22.1223 101.165 22.5868C101.165 23.0551 101.08 23.461 100.91 23.8046C100.74 24.1463 100.504 24.4111 100.203 24.5992C99.9024 24.7854 99.5554 24.8785 99.1622 24.8785C98.8592 24.8785 98.6166 24.8315 98.4343 24.7374C98.2521 24.6415 98.1118 24.533 98.0136 24.4121C97.9153 24.2892 97.8395 24.1875 97.7863 24.1069H97.7003V24.7864H97ZM97.7126 22.5752C97.7126 22.9092 97.7648 23.2038 97.8692 23.4591C97.9736 23.7125 98.1262 23.9111 98.3268 24.0551C98.5275 24.1971 98.7732 24.2681 99.064 24.2681C99.367 24.2681 99.6199 24.1933 99.8226 24.0436C100.027 23.8919 100.181 23.6885 100.283 23.4332C100.388 23.176 100.44 22.89 100.44 22.5752C100.44 22.2643 100.389 21.9841 100.286 21.7345C100.186 21.4831 100.033 21.2844 99.8287 21.1386C99.626 20.9908 99.3711 20.9169 99.064 20.9169C98.7691 20.9169 98.5213 20.9869 98.3207 21.1271C98.12 21.2653 97.9685 21.4591 97.8661 21.7086C97.7637 21.9562 97.7126 22.2451 97.7126 22.5752Z" fill="white"/>
<path d="M104.251 24.8785C103.797 24.8785 103.405 24.7844 103.075 24.5963C102.748 24.4063 102.495 24.1415 102.317 23.8017C102.14 23.4601 102.052 23.0628 102.052 22.6098C102.052 22.1568 102.14 21.7576 102.317 21.4121C102.495 21.0647 102.742 20.794 103.06 20.6002C103.379 20.4044 103.752 20.3065 104.178 20.3065C104.423 20.3065 104.666 20.3449 104.906 20.4217C105.145 20.4985 105.363 20.6232 105.56 20.796C105.756 20.9668 105.913 21.1933 106.03 21.4754C106.147 21.7576 106.205 22.105 106.205 22.5177V22.8056H102.568V22.2182H105.468C105.468 21.9687 105.415 21.7461 105.308 21.5503C105.204 21.3545 105.054 21.2 104.86 21.0868C104.667 20.9735 104.44 20.9169 104.178 20.9169C103.889 20.9169 103.639 20.9841 103.428 21.1184C103.22 21.2509 103.059 21.4236 102.946 21.6367C102.834 21.8497 102.777 22.0781 102.777 22.3219V22.7134C102.777 23.0474 102.839 23.3305 102.962 23.5628C103.086 23.7931 103.259 23.9687 103.481 24.0896C103.702 24.2086 103.959 24.2681 104.251 24.2681C104.442 24.2681 104.614 24.2432 104.767 24.1933C104.923 24.1415 105.057 24.0647 105.17 23.963C105.282 23.8593 105.369 23.7307 105.431 23.5772L106.131 23.7614C106.057 23.9841 105.934 24.1798 105.76 24.3487C105.585 24.5157 105.37 24.6463 105.115 24.7403C104.859 24.8324 104.571 24.8785 104.251 24.8785Z" fill="white"/>
<path d="M109.359 20.3641V20.9399H106.914V20.3641H109.359ZM107.627 19.3046H108.352V23.5196C108.352 23.7115 108.381 23.8555 108.441 23.9514C108.502 24.0455 108.58 24.1088 108.674 24.1415C108.77 24.1722 108.872 24.1875 108.978 24.1875C109.058 24.1875 109.124 24.1837 109.175 24.176C109.226 24.1664 109.267 24.1587 109.298 24.153L109.445 24.7633C109.396 24.7806 109.327 24.7979 109.239 24.8152C109.151 24.8344 109.04 24.8439 108.905 24.8439C108.7 24.8439 108.499 24.8027 108.303 24.7201C108.108 24.6376 107.946 24.5119 107.817 24.343C107.69 24.1741 107.627 23.961 107.627 23.7038V19.3046Z" fill="white"/>
<path d="M111.838 24.89C111.539 24.89 111.268 24.8372 111.024 24.7317C110.78 24.6242 110.587 24.4697 110.443 24.2681C110.3 24.0647 110.228 23.819 110.228 23.5311C110.228 23.2777 110.282 23.0724 110.388 22.915C110.495 22.7557 110.637 22.6309 110.815 22.5407C110.993 22.4505 111.19 22.3833 111.405 22.3392C111.622 22.2931 111.84 22.2566 112.059 22.2297C112.346 22.1952 112.578 22.1693 112.756 22.152C112.936 22.1328 113.067 22.1011 113.149 22.057C113.233 22.0129 113.275 21.9361 113.275 21.8267V21.8036C113.275 21.5196 113.192 21.2988 113.026 21.1415C112.863 20.9841 112.614 20.9054 112.28 20.9054C111.934 20.9054 111.663 20.9764 111.466 21.1184C111.27 21.2605 111.131 21.4121 111.051 21.5733L110.364 21.343C110.486 21.0743 110.65 20.8651 110.855 20.7154C111.062 20.5637 111.287 20.4582 111.531 20.3987C111.776 20.3372 112.018 20.3065 112.255 20.3065C112.407 20.3065 112.581 20.3238 112.778 20.3583C112.976 20.391 113.168 20.4591 113.352 20.5628C113.538 20.6664 113.693 20.8228 113.816 21.032C113.939 21.2413 114 21.5215 114 21.8727V24.7864H113.275V24.1875H113.238C113.189 24.2835 113.107 24.3862 112.993 24.4956C112.878 24.605 112.725 24.6981 112.535 24.7749C112.345 24.8516 112.112 24.89 111.838 24.89ZM111.948 24.2796C112.235 24.2796 112.477 24.2269 112.673 24.1213C112.872 24.0157 113.021 23.8795 113.122 23.7125C113.224 23.5455 113.275 23.3699 113.275 23.1856V22.5637C113.244 22.5983 113.177 22.6299 113.072 22.6587C112.97 22.6856 112.851 22.7096 112.716 22.7307C112.583 22.7499 112.453 22.7672 112.326 22.7825C112.201 22.796 112.1 22.8075 112.022 22.8171C111.834 22.8401 111.658 22.8775 111.494 22.9294C111.332 22.9793 111.201 23.0551 111.101 23.1568C111.002 23.2566 110.953 23.3929 110.953 23.5656C110.953 23.8017 111.046 23.9802 111.233 24.1011C111.421 24.2201 111.66 24.2796 111.948 24.2796Z" fill="white"/>
</svg>
