<svg width="477" height="153" viewBox="0 0 477 153" fill="none" xmlns="http://www.w3.org/2000/svg">
<path d="M219.395 24.0211C219.756 34.181 219.624 44.3542 218.999 54.4995C219.058 54.7983 219.102 55.1002 219.131 55.4039C219.409 58.3853 224.367 61.3526 224.46 64.334C225.055 65.3819 220.532 66.6012 220.453 67.8242C220.295 70.5703 220.004 73.3058 219.58 76.0196C219.58 76.825 219.58 77.6163 219.501 78.4217C219.636 83.4799 219.264 88.5391 218.391 93.5126C218.391 94.3321 218.391 95.1375 218.391 95.9571C218.391 101.962 219.713 108.674 216.091 113.775C214.617 115.699 212.686 117.163 210.501 118.014C207.315 119.978 202.809 120.84 196.861 120.84C188.802 120.868 180.772 119.8 172.966 117.661V150.287C181.16 152.046 189.494 152.955 197.852 153C237.357 153 250.296 135.804 250.296 102.697V24.0211H219.395Z" fill="white"/>
<path d="M300.426 115.287C265.839 115.287 247.851 96.494 247.851 68.5448C247.851 40.5956 266.129 21.8026 295.51 21.8026C320.106 21.8026 339.799 41.3445 339.799 68.8415V78.9163H284.289C286.681 86.7302 292.999 88.8073 301.722 88.8073C310.722 88.8073 316.339 85.9813 322.392 81.7423L339.825 102.033C331.247 109.691 316.775 115.259 300.466 115.259L300.426 115.287ZM284.262 59.3462H305.211C303.664 52.8887 300.294 49.4551 294.809 49.4551C289.324 49.4551 285.809 52.7616 284.236 59.3462" fill="white"/>
<path d="M373.171 111.627H339.429V25.4341H371.479V38.6598C374.417 34.0645 378.361 30.3066 382.968 27.7134C387.575 25.1202 392.705 23.7701 397.912 23.7809C413.098 23.7809 426.447 35.8055 426.447 55.3473V111.627H392.718V66.5807C392.718 59.0635 389.348 55.6017 383.294 55.6017C377.664 55.6017 373.171 59.9679 373.171 65.0688V111.627Z" fill="white"/>
<path d="M469.268 55.6158V111.67H435.526V55.6158H427.795V25.4058H435.526V4.50748L469.268 0V25.4058H477V55.6158H469.268Z" fill="white"/>
<path d="M70.0479 112.503C65.8583 114.665 58.5099 115.329 51.7165 115.329C22.2171 115.287 0 98.769 0 68.5307C0 38.2924 22.2171 21.7885 51.6637 21.7885C58.4438 21.7885 65.8054 22.4102 69.9951 24.6145V57.7353H69.1228C66.9553 54.8104 61.1928 52.804 53.9766 52.804C44.1699 52.804 36.2267 59.4451 36.2267 68.5448C36.2267 77.9554 44.1566 84.2857 53.9766 84.2857C61.1928 84.2857 66.9685 82.2792 69.1228 79.3543H70.0479V112.503Z" fill="white"/>
<path fill-rule="evenodd" clip-rule="evenodd" d="M115.857 115.273C143.691 115.273 164.917 95.3778 164.917 68.5307C164.917 41.5706 143.691 21.7886 115.857 21.7886C88.0225 21.7886 66.7966 41.5706 66.7966 68.5307C66.7966 95.4909 88.0225 115.273 115.857 115.273ZM107.226 52.5496H124.487L133.118 68.5448L124.487 84.5258H107.226L98.5958 68.5448L107.226 52.5496Z" fill="white"/>
<path fill-rule="evenodd" clip-rule="evenodd" d="M201.209 112.263C227.616 112.263 247.771 93.4278 247.771 67.8948C247.771 42.3901 227.629 23.5265 201.209 23.5265C174.789 23.5265 154.634 42.3618 154.634 67.8948C154.634 93.4278 174.803 112.263 201.209 112.263ZM217.129 52.1832H184.645V85.2326H217.129V52.1832Z" fill="white"/>
</svg>
